M48
;DRILL file {KiCad 4.0.7} date 12/01/17 20:59:22
;FORMAT={-:-/ absolute / metric / decimal}
FMAT,2
METRIC,TZ
T1C0.300
T2C0.800
T3C1.000
T4C2.400
%
G90
G05
M71
T1
X2.37Y-17.93
X2.7Y-12.3
X6.58Y-5.35
X6.73Y-17.69
X11.63Y-16.14
X13.02Y-11.43
X13.76Y-19.59
T2
X5.41Y-12.81
X6.425Y-10.27
X7.44Y-12.81
X8.455Y-10.27
X9.47Y-12.81
X10.485Y-10.27
T3
X1.65Y-3.
X4.19Y-3.
X6.73Y-3.
X9.27Y-3.
X11.81Y-3.
X14.35Y-3.
T4
X1.95Y-15.11
X13.95Y-15.11
T0
M30
