%TF.GenerationSoftware,KiCad,Pcbnew,4.0.7*%
%TF.CreationDate,2017-12-10T14:33:21+08:00*%
%TF.ProjectId,rj12,726A31322E6B696361645F7063620000,rev?*%
%TF.FileFunction,Copper,L1,Top,Signal*%
%FSLAX46Y46*%
G04 Gerber Fmt 4.6, Leading zero omitted, Abs format (unit mm)*
G04 Created by KiCad (PCBNEW 4.0.7) date 12/10/17 14:33:21*
%MOMM*%
%LPD*%
G01*
G04 APERTURE LIST*
%ADD10C,0.100000*%
%ADD11C,0.435000*%
%ADD12C,1.400000*%
%ADD13R,1.700000X1.700000*%
%ADD14O,1.700000X1.700000*%
%ADD15C,0.254000*%
G04 APERTURE END LIST*
D10*
D11*
X13760000Y-19590000D03*
X6580000Y-5350000D03*
X6730000Y-17690000D03*
X2370000Y-17930000D03*
X13020000Y-11430000D03*
X2700000Y-12300000D03*
X11630000Y-16140000D03*
D12*
X5410000Y-12810000D03*
X6425000Y-10270000D03*
X7440000Y-12810000D03*
X8455000Y-10270000D03*
X9470000Y-12810000D03*
X10484995Y-10270000D03*
D13*
X14350000Y-3000000D03*
D14*
X11810000Y-3000000D03*
X9270000Y-3000000D03*
X6730000Y-3000000D03*
X4190000Y-3000000D03*
X1650000Y-3000000D03*
D15*
G36*
X15563000Y-1925575D02*
X15512073Y-1846433D01*
X15369381Y-1748936D01*
X15200000Y-1714635D01*
X13500000Y-1714635D01*
X13341763Y-1744409D01*
X13196433Y-1837927D01*
X13098936Y-1980619D01*
X13064635Y-2150000D01*
X13064635Y-2862546D01*
X12989794Y-2486295D01*
X12712975Y-2072007D01*
X12298687Y-1795188D01*
X11810000Y-1697982D01*
X11321313Y-1795188D01*
X10907025Y-2072007D01*
X10634691Y-2479583D01*
X10465183Y-2118642D01*
X10036924Y-1728355D01*
X9626890Y-1558524D01*
X9397000Y-1679845D01*
X9397000Y-2873000D01*
X9417000Y-2873000D01*
X9417000Y-3127000D01*
X9397000Y-3127000D01*
X9397000Y-4320155D01*
X9626890Y-4441476D01*
X10036924Y-4271645D01*
X10465183Y-3881358D01*
X10634691Y-3520417D01*
X10907025Y-3927993D01*
X11321313Y-4204812D01*
X11810000Y-4302018D01*
X12298687Y-4204812D01*
X12712975Y-3927993D01*
X12989794Y-3513705D01*
X13064635Y-3137454D01*
X13064635Y-3850000D01*
X13094409Y-4008237D01*
X13187927Y-4153567D01*
X13330619Y-4251064D01*
X13500000Y-4285365D01*
X15200000Y-4285365D01*
X15358237Y-4255591D01*
X15503567Y-4162073D01*
X15563000Y-4075090D01*
X15563000Y-14753224D01*
X15330108Y-14189582D01*
X14872825Y-13731501D01*
X14275050Y-13483283D01*
X13627789Y-13482718D01*
X13029582Y-13729892D01*
X12571501Y-14187175D01*
X12323283Y-14784950D01*
X12322718Y-15432211D01*
X12569892Y-16030418D01*
X13027175Y-16488499D01*
X13624950Y-16736717D01*
X14272211Y-16737282D01*
X14870418Y-16490108D01*
X15328499Y-16032825D01*
X15563000Y-15468084D01*
X15563000Y-22523000D01*
X477000Y-22523000D01*
X477000Y-15805602D01*
X569892Y-16030418D01*
X1027175Y-16488499D01*
X1624950Y-16736717D01*
X2272211Y-16737282D01*
X2870418Y-16490108D01*
X3328499Y-16032825D01*
X3576717Y-15435050D01*
X3577282Y-14787789D01*
X3330108Y-14189582D01*
X2872825Y-13731501D01*
X2275050Y-13483283D01*
X1627789Y-13482718D01*
X1029582Y-13729892D01*
X571501Y-14187175D01*
X477000Y-14414759D01*
X477000Y-13033191D01*
X4282805Y-13033191D01*
X4454019Y-13447560D01*
X4770772Y-13764867D01*
X5184842Y-13936804D01*
X5633191Y-13937195D01*
X6047560Y-13765981D01*
X6364867Y-13449228D01*
X6424935Y-13304567D01*
X6484019Y-13447560D01*
X6800772Y-13764867D01*
X7214842Y-13936804D01*
X7663191Y-13937195D01*
X8077560Y-13765981D01*
X8394867Y-13449228D01*
X8454935Y-13304567D01*
X8514019Y-13447560D01*
X8830772Y-13764867D01*
X9244842Y-13936804D01*
X9693191Y-13937195D01*
X10107560Y-13765981D01*
X10424867Y-13449228D01*
X10596804Y-13035158D01*
X10597195Y-12586809D01*
X10425981Y-12172440D01*
X10109228Y-11855133D01*
X9695158Y-11683196D01*
X9246809Y-11682805D01*
X8832440Y-11854019D01*
X8515133Y-12170772D01*
X8455065Y-12315433D01*
X8395981Y-12172440D01*
X8079228Y-11855133D01*
X7665158Y-11683196D01*
X7216809Y-11682805D01*
X6802440Y-11854019D01*
X6485133Y-12170772D01*
X6425065Y-12315433D01*
X6365981Y-12172440D01*
X6049228Y-11855133D01*
X5635158Y-11683196D01*
X5186809Y-11682805D01*
X4772440Y-11854019D01*
X4455133Y-12170772D01*
X4283196Y-12584842D01*
X4282805Y-13033191D01*
X477000Y-13033191D01*
X477000Y-10493191D01*
X5297805Y-10493191D01*
X5469019Y-10907560D01*
X5785772Y-11224867D01*
X6199842Y-11396804D01*
X6648191Y-11397195D01*
X7062560Y-11225981D01*
X7083302Y-11205275D01*
X7699331Y-11205275D01*
X7761169Y-11441042D01*
X8262122Y-11617419D01*
X8792440Y-11588664D01*
X9148831Y-11441042D01*
X9210669Y-11205275D01*
X8455000Y-10449605D01*
X7699331Y-11205275D01*
X7083302Y-11205275D01*
X7316594Y-10972391D01*
X7519725Y-11025669D01*
X8275395Y-10270000D01*
X8634605Y-10270000D01*
X9390275Y-11025669D01*
X9593664Y-10972323D01*
X9845767Y-11224867D01*
X10259837Y-11396804D01*
X10708186Y-11397195D01*
X11122555Y-11225981D01*
X11439862Y-10909228D01*
X11611799Y-10495158D01*
X11612190Y-10046809D01*
X11440976Y-9632440D01*
X11124223Y-9315133D01*
X10710153Y-9143196D01*
X10261804Y-9142805D01*
X9847435Y-9314019D01*
X9593402Y-9567608D01*
X9390275Y-9514331D01*
X8634605Y-10270000D01*
X8275395Y-10270000D01*
X7519725Y-9514331D01*
X7316332Y-9567678D01*
X7083786Y-9334725D01*
X7699331Y-9334725D01*
X8455000Y-10090395D01*
X9210669Y-9334725D01*
X9148831Y-9098958D01*
X8647878Y-8922581D01*
X8117560Y-8951336D01*
X7761169Y-9098958D01*
X7699331Y-9334725D01*
X7083786Y-9334725D01*
X7064228Y-9315133D01*
X6650158Y-9143196D01*
X6201809Y-9142805D01*
X5787440Y-9314019D01*
X5470133Y-9630772D01*
X5298196Y-10044842D01*
X5297805Y-10493191D01*
X477000Y-10493191D01*
X477000Y-3523873D01*
X747025Y-3927993D01*
X1161313Y-4204812D01*
X1650000Y-4302018D01*
X2138687Y-4204812D01*
X2552975Y-3927993D01*
X2829794Y-3513705D01*
X2920000Y-3060209D01*
X3010206Y-3513705D01*
X3287025Y-3927993D01*
X3701313Y-4204812D01*
X4190000Y-4302018D01*
X4678687Y-4204812D01*
X5092975Y-3927993D01*
X5369794Y-3513705D01*
X5460000Y-3060209D01*
X5550206Y-3513705D01*
X5827025Y-3927993D01*
X6241313Y-4204812D01*
X6730000Y-4302018D01*
X7218687Y-4204812D01*
X7632975Y-3927993D01*
X7905309Y-3520417D01*
X8074817Y-3881358D01*
X8503076Y-4271645D01*
X8913110Y-4441476D01*
X9143000Y-4320155D01*
X9143000Y-3127000D01*
X9123000Y-3127000D01*
X9123000Y-2873000D01*
X9143000Y-2873000D01*
X9143000Y-1679845D01*
X8913110Y-1558524D01*
X8503076Y-1728355D01*
X8074817Y-2118642D01*
X7905309Y-2479583D01*
X7632975Y-2072007D01*
X7218687Y-1795188D01*
X6730000Y-1697982D01*
X6241313Y-1795188D01*
X5827025Y-2072007D01*
X5550206Y-2486295D01*
X5460000Y-2939791D01*
X5369794Y-2486295D01*
X5092975Y-2072007D01*
X4678687Y-1795188D01*
X4190000Y-1697982D01*
X3701313Y-1795188D01*
X3287025Y-2072007D01*
X3010206Y-2486295D01*
X2920000Y-2939791D01*
X2829794Y-2486295D01*
X2552975Y-2072007D01*
X2138687Y-1795188D01*
X1650000Y-1697982D01*
X1161313Y-1795188D01*
X747025Y-2072007D01*
X477000Y-2476127D01*
X477000Y-477000D01*
X15563000Y-477000D01*
X15563000Y-1925575D01*
X15563000Y-1925575D01*
G37*
X15563000Y-1925575D02*
X15512073Y-1846433D01*
X15369381Y-1748936D01*
X15200000Y-1714635D01*
X13500000Y-1714635D01*
X13341763Y-1744409D01*
X13196433Y-1837927D01*
X13098936Y-1980619D01*
X13064635Y-2150000D01*
X13064635Y-2862546D01*
X12989794Y-2486295D01*
X12712975Y-2072007D01*
X12298687Y-1795188D01*
X11810000Y-1697982D01*
X11321313Y-1795188D01*
X10907025Y-2072007D01*
X10634691Y-2479583D01*
X10465183Y-2118642D01*
X10036924Y-1728355D01*
X9626890Y-1558524D01*
X9397000Y-1679845D01*
X9397000Y-2873000D01*
X9417000Y-2873000D01*
X9417000Y-3127000D01*
X9397000Y-3127000D01*
X9397000Y-4320155D01*
X9626890Y-4441476D01*
X10036924Y-4271645D01*
X10465183Y-3881358D01*
X10634691Y-3520417D01*
X10907025Y-3927993D01*
X11321313Y-4204812D01*
X11810000Y-4302018D01*
X12298687Y-4204812D01*
X12712975Y-3927993D01*
X12989794Y-3513705D01*
X13064635Y-3137454D01*
X13064635Y-3850000D01*
X13094409Y-4008237D01*
X13187927Y-4153567D01*
X13330619Y-4251064D01*
X13500000Y-4285365D01*
X15200000Y-4285365D01*
X15358237Y-4255591D01*
X15503567Y-4162073D01*
X15563000Y-4075090D01*
X15563000Y-14753224D01*
X15330108Y-14189582D01*
X14872825Y-13731501D01*
X14275050Y-13483283D01*
X13627789Y-13482718D01*
X13029582Y-13729892D01*
X12571501Y-14187175D01*
X12323283Y-14784950D01*
X12322718Y-15432211D01*
X12569892Y-16030418D01*
X13027175Y-16488499D01*
X13624950Y-16736717D01*
X14272211Y-16737282D01*
X14870418Y-16490108D01*
X15328499Y-16032825D01*
X15563000Y-15468084D01*
X15563000Y-22523000D01*
X477000Y-22523000D01*
X477000Y-15805602D01*
X569892Y-16030418D01*
X1027175Y-16488499D01*
X1624950Y-16736717D01*
X2272211Y-16737282D01*
X2870418Y-16490108D01*
X3328499Y-16032825D01*
X3576717Y-15435050D01*
X3577282Y-14787789D01*
X3330108Y-14189582D01*
X2872825Y-13731501D01*
X2275050Y-13483283D01*
X1627789Y-13482718D01*
X1029582Y-13729892D01*
X571501Y-14187175D01*
X477000Y-14414759D01*
X477000Y-13033191D01*
X4282805Y-13033191D01*
X4454019Y-13447560D01*
X4770772Y-13764867D01*
X5184842Y-13936804D01*
X5633191Y-13937195D01*
X6047560Y-13765981D01*
X6364867Y-13449228D01*
X6424935Y-13304567D01*
X6484019Y-13447560D01*
X6800772Y-13764867D01*
X7214842Y-13936804D01*
X7663191Y-13937195D01*
X8077560Y-13765981D01*
X8394867Y-13449228D01*
X8454935Y-13304567D01*
X8514019Y-13447560D01*
X8830772Y-13764867D01*
X9244842Y-13936804D01*
X9693191Y-13937195D01*
X10107560Y-13765981D01*
X10424867Y-13449228D01*
X10596804Y-13035158D01*
X10597195Y-12586809D01*
X10425981Y-12172440D01*
X10109228Y-11855133D01*
X9695158Y-11683196D01*
X9246809Y-11682805D01*
X8832440Y-11854019D01*
X8515133Y-12170772D01*
X8455065Y-12315433D01*
X8395981Y-12172440D01*
X8079228Y-11855133D01*
X7665158Y-11683196D01*
X7216809Y-11682805D01*
X6802440Y-11854019D01*
X6485133Y-12170772D01*
X6425065Y-12315433D01*
X6365981Y-12172440D01*
X6049228Y-11855133D01*
X5635158Y-11683196D01*
X5186809Y-11682805D01*
X4772440Y-11854019D01*
X4455133Y-12170772D01*
X4283196Y-12584842D01*
X4282805Y-13033191D01*
X477000Y-13033191D01*
X477000Y-10493191D01*
X5297805Y-10493191D01*
X5469019Y-10907560D01*
X5785772Y-11224867D01*
X6199842Y-11396804D01*
X6648191Y-11397195D01*
X7062560Y-11225981D01*
X7083302Y-11205275D01*
X7699331Y-11205275D01*
X7761169Y-11441042D01*
X8262122Y-11617419D01*
X8792440Y-11588664D01*
X9148831Y-11441042D01*
X9210669Y-11205275D01*
X8455000Y-10449605D01*
X7699331Y-11205275D01*
X7083302Y-11205275D01*
X7316594Y-10972391D01*
X7519725Y-11025669D01*
X8275395Y-10270000D01*
X8634605Y-10270000D01*
X9390275Y-11025669D01*
X9593664Y-10972323D01*
X9845767Y-11224867D01*
X10259837Y-11396804D01*
X10708186Y-11397195D01*
X11122555Y-11225981D01*
X11439862Y-10909228D01*
X11611799Y-10495158D01*
X11612190Y-10046809D01*
X11440976Y-9632440D01*
X11124223Y-9315133D01*
X10710153Y-9143196D01*
X10261804Y-9142805D01*
X9847435Y-9314019D01*
X9593402Y-9567608D01*
X9390275Y-9514331D01*
X8634605Y-10270000D01*
X8275395Y-10270000D01*
X7519725Y-9514331D01*
X7316332Y-9567678D01*
X7083786Y-9334725D01*
X7699331Y-9334725D01*
X8455000Y-10090395D01*
X9210669Y-9334725D01*
X9148831Y-9098958D01*
X8647878Y-8922581D01*
X8117560Y-8951336D01*
X7761169Y-9098958D01*
X7699331Y-9334725D01*
X7083786Y-9334725D01*
X7064228Y-9315133D01*
X6650158Y-9143196D01*
X6201809Y-9142805D01*
X5787440Y-9314019D01*
X5470133Y-9630772D01*
X5298196Y-10044842D01*
X5297805Y-10493191D01*
X477000Y-10493191D01*
X477000Y-3523873D01*
X747025Y-3927993D01*
X1161313Y-4204812D01*
X1650000Y-4302018D01*
X2138687Y-4204812D01*
X2552975Y-3927993D01*
X2829794Y-3513705D01*
X2920000Y-3060209D01*
X3010206Y-3513705D01*
X3287025Y-3927993D01*
X3701313Y-4204812D01*
X4190000Y-4302018D01*
X4678687Y-4204812D01*
X5092975Y-3927993D01*
X5369794Y-3513705D01*
X5460000Y-3060209D01*
X5550206Y-3513705D01*
X5827025Y-3927993D01*
X6241313Y-4204812D01*
X6730000Y-4302018D01*
X7218687Y-4204812D01*
X7632975Y-3927993D01*
X7905309Y-3520417D01*
X8074817Y-3881358D01*
X8503076Y-4271645D01*
X8913110Y-4441476D01*
X9143000Y-4320155D01*
X9143000Y-3127000D01*
X9123000Y-3127000D01*
X9123000Y-2873000D01*
X9143000Y-2873000D01*
X9143000Y-1679845D01*
X8913110Y-1558524D01*
X8503076Y-1728355D01*
X8074817Y-2118642D01*
X7905309Y-2479583D01*
X7632975Y-2072007D01*
X7218687Y-1795188D01*
X6730000Y-1697982D01*
X6241313Y-1795188D01*
X5827025Y-2072007D01*
X5550206Y-2486295D01*
X5460000Y-2939791D01*
X5369794Y-2486295D01*
X5092975Y-2072007D01*
X4678687Y-1795188D01*
X4190000Y-1697982D01*
X3701313Y-1795188D01*
X3287025Y-2072007D01*
X3010206Y-2486295D01*
X2920000Y-2939791D01*
X2829794Y-2486295D01*
X2552975Y-2072007D01*
X2138687Y-1795188D01*
X1650000Y-1697982D01*
X1161313Y-1795188D01*
X747025Y-2072007D01*
X477000Y-2476127D01*
X477000Y-477000D01*
X15563000Y-477000D01*
X15563000Y-1925575D01*
M02*
