%TF.GenerationSoftware,KiCad,Pcbnew,4.0.7*%
%TF.CreationDate,2017-12-10T14:33:21+08:00*%
%TF.ProjectId,rj12,726A31322E6B696361645F7063620000,rev?*%
%TF.FileFunction,Copper,L2,Bot,Signal*%
%FSLAX46Y46*%
G04 Gerber Fmt 4.6, Leading zero omitted, Abs format (unit mm)*
G04 Created by KiCad (PCBNEW 4.0.7) date 12/10/17 14:33:21*
%MOMM*%
%LPD*%
G01*
G04 APERTURE LIST*
%ADD10C,0.100000*%
%ADD11C,0.300000*%
%ADD12C,0.435000*%
%ADD13C,1.400000*%
%ADD14R,1.700000X1.700000*%
%ADD15O,1.700000X1.700000*%
%ADD16C,0.254000*%
G04 APERTURE END LIST*
D10*
D11*
X14431905Y-9490952D02*
X13131905Y-9057619D01*
X14431905Y-8624286D01*
X13255714Y-8190952D02*
X13193810Y-8129047D01*
X13131905Y-8190952D01*
X13193810Y-8252857D01*
X13255714Y-8190952D01*
X13131905Y-8190952D01*
X14431905Y-7324285D02*
X14431905Y-7200476D01*
X14370000Y-7076666D01*
X14308095Y-7014761D01*
X14184286Y-6952857D01*
X13936667Y-6890952D01*
X13627143Y-6890952D01*
X13379524Y-6952857D01*
X13255714Y-7014761D01*
X13193810Y-7076666D01*
X13131905Y-7200476D01*
X13131905Y-7324285D01*
X13193810Y-7448095D01*
X13255714Y-7509999D01*
X13379524Y-7571904D01*
X13627143Y-7633809D01*
X13936667Y-7633809D01*
X14184286Y-7571904D01*
X14308095Y-7509999D01*
X14370000Y-7448095D01*
X14431905Y-7324285D01*
X13131905Y-5652857D02*
X13131905Y-6395714D01*
X13131905Y-6024285D02*
X14431905Y-6024285D01*
X14246190Y-6148095D01*
X14122381Y-6271904D01*
X14060476Y-6395714D01*
D12*
X13760000Y-19590000D03*
X6580000Y-5350000D03*
X6730000Y-17690000D03*
X2370000Y-17930000D03*
X13020000Y-11430000D03*
X2700000Y-12300000D03*
X11630000Y-16140000D03*
D13*
X5410000Y-12810000D03*
X6425000Y-10270000D03*
X7440000Y-12810000D03*
X8455000Y-10270000D03*
X9470000Y-12810000D03*
X10484995Y-10270000D03*
D14*
X14350000Y-3000000D03*
D15*
X11810000Y-3000000D03*
X9270000Y-3000000D03*
X6730000Y-3000000D03*
X4190000Y-3000000D03*
X1650000Y-3000000D03*
D11*
X10484995Y-10270000D02*
X10484995Y-2549003D01*
X10484995Y-2549003D02*
X11233999Y-1799999D01*
X11233999Y-1799999D02*
X13749999Y-1799999D01*
X13749999Y-1799999D02*
X14350000Y-2400000D01*
X14350000Y-2400000D02*
X14350000Y-3000000D01*
X11810000Y-3000000D02*
X11810000Y-10470000D01*
X11810000Y-10470000D02*
X9470000Y-12810000D01*
X11960000Y-3000000D02*
X11760000Y-3200000D01*
X9420000Y-3000000D02*
X8430005Y-3989995D01*
X8430005Y-3989995D02*
X8430005Y-10245005D01*
X8430005Y-10245005D02*
X8455000Y-10270000D01*
X8430005Y-10220000D02*
X8380005Y-10270000D01*
X6730000Y-3000000D02*
X5450000Y-1720000D01*
X5450000Y-1720000D02*
X3693998Y-1720000D01*
X3693998Y-1720000D02*
X2989999Y-2423999D01*
X2990000Y-8360000D02*
X7440000Y-12810000D01*
X2989999Y-2423999D02*
X2990000Y-8360000D01*
X4090000Y-7520000D02*
X4090000Y-3250000D01*
X4090000Y-7520000D02*
X4090000Y-8009995D01*
X4090000Y-7689995D02*
X4090000Y-7520000D01*
X4090000Y-8009995D02*
X6350005Y-10270000D01*
X4090000Y-3250000D02*
X4340000Y-3000000D01*
X1650000Y-3000000D02*
X1650000Y-8990000D01*
X1650000Y-8990000D02*
X1655000Y-8985000D01*
X5410000Y-12740000D02*
X5410000Y-12810000D01*
X1655000Y-8985000D02*
X5410000Y-12740000D01*
X1800000Y-3000000D02*
X1620000Y-3180000D01*
D16*
G36*
X13064635Y-3850000D02*
X13094409Y-4008237D01*
X13187927Y-4153567D01*
X13330619Y-4251064D01*
X13500000Y-4285365D01*
X15200000Y-4285365D01*
X15358237Y-4255591D01*
X15503567Y-4162073D01*
X15563000Y-4075090D01*
X15563000Y-14753224D01*
X15330108Y-14189582D01*
X14872825Y-13731501D01*
X14275050Y-13483283D01*
X13627789Y-13482718D01*
X13029582Y-13729892D01*
X12571501Y-14187175D01*
X12323283Y-14784950D01*
X12322718Y-15432211D01*
X12569892Y-16030418D01*
X13027175Y-16488499D01*
X13624950Y-16736717D01*
X14272211Y-16737282D01*
X14870418Y-16490108D01*
X15328499Y-16032825D01*
X15563000Y-15468084D01*
X15563000Y-22523000D01*
X477000Y-22523000D01*
X477000Y-15805602D01*
X569892Y-16030418D01*
X1027175Y-16488499D01*
X1624950Y-16736717D01*
X2272211Y-16737282D01*
X2870418Y-16490108D01*
X3328499Y-16032825D01*
X3576717Y-15435050D01*
X3577282Y-14787789D01*
X3330108Y-14189582D01*
X2872825Y-13731501D01*
X2275050Y-13483283D01*
X1627789Y-13482718D01*
X1029582Y-13729892D01*
X571501Y-14187175D01*
X477000Y-14414759D01*
X477000Y-3523873D01*
X747025Y-3927993D01*
X1073000Y-4145803D01*
X1073000Y-8989995D01*
X1072999Y-8990000D01*
X1116922Y-9210808D01*
X1241999Y-9398001D01*
X1272135Y-9418137D01*
X4328863Y-12474865D01*
X4283196Y-12584842D01*
X4282805Y-13033191D01*
X4454019Y-13447560D01*
X4770772Y-13764867D01*
X5184842Y-13936804D01*
X5633191Y-13937195D01*
X6047560Y-13765981D01*
X6364867Y-13449228D01*
X6424935Y-13304567D01*
X6484019Y-13447560D01*
X6800772Y-13764867D01*
X7214842Y-13936804D01*
X7663191Y-13937195D01*
X8077560Y-13765981D01*
X8394867Y-13449228D01*
X8454935Y-13304567D01*
X8514019Y-13447560D01*
X8830772Y-13764867D01*
X9244842Y-13936804D01*
X9693191Y-13937195D01*
X10107560Y-13765981D01*
X10424867Y-13449228D01*
X10596804Y-13035158D01*
X10597195Y-12586809D01*
X10571465Y-12524537D01*
X12217998Y-10878003D01*
X12218001Y-10878001D01*
X12343078Y-10690808D01*
X12345626Y-10678001D01*
X12387001Y-10470000D01*
X12387000Y-10469995D01*
X12387000Y-10041762D01*
X15207000Y-10041762D01*
X15207000Y-4978238D01*
X12387000Y-4978238D01*
X12387000Y-4145803D01*
X12712975Y-3927993D01*
X12989794Y-3513705D01*
X13064635Y-3137454D01*
X13064635Y-3850000D01*
X13064635Y-3850000D01*
G37*
X13064635Y-3850000D02*
X13094409Y-4008237D01*
X13187927Y-4153567D01*
X13330619Y-4251064D01*
X13500000Y-4285365D01*
X15200000Y-4285365D01*
X15358237Y-4255591D01*
X15503567Y-4162073D01*
X15563000Y-4075090D01*
X15563000Y-14753224D01*
X15330108Y-14189582D01*
X14872825Y-13731501D01*
X14275050Y-13483283D01*
X13627789Y-13482718D01*
X13029582Y-13729892D01*
X12571501Y-14187175D01*
X12323283Y-14784950D01*
X12322718Y-15432211D01*
X12569892Y-16030418D01*
X13027175Y-16488499D01*
X13624950Y-16736717D01*
X14272211Y-16737282D01*
X14870418Y-16490108D01*
X15328499Y-16032825D01*
X15563000Y-15468084D01*
X15563000Y-22523000D01*
X477000Y-22523000D01*
X477000Y-15805602D01*
X569892Y-16030418D01*
X1027175Y-16488499D01*
X1624950Y-16736717D01*
X2272211Y-16737282D01*
X2870418Y-16490108D01*
X3328499Y-16032825D01*
X3576717Y-15435050D01*
X3577282Y-14787789D01*
X3330108Y-14189582D01*
X2872825Y-13731501D01*
X2275050Y-13483283D01*
X1627789Y-13482718D01*
X1029582Y-13729892D01*
X571501Y-14187175D01*
X477000Y-14414759D01*
X477000Y-3523873D01*
X747025Y-3927993D01*
X1073000Y-4145803D01*
X1073000Y-8989995D01*
X1072999Y-8990000D01*
X1116922Y-9210808D01*
X1241999Y-9398001D01*
X1272135Y-9418137D01*
X4328863Y-12474865D01*
X4283196Y-12584842D01*
X4282805Y-13033191D01*
X4454019Y-13447560D01*
X4770772Y-13764867D01*
X5184842Y-13936804D01*
X5633191Y-13937195D01*
X6047560Y-13765981D01*
X6364867Y-13449228D01*
X6424935Y-13304567D01*
X6484019Y-13447560D01*
X6800772Y-13764867D01*
X7214842Y-13936804D01*
X7663191Y-13937195D01*
X8077560Y-13765981D01*
X8394867Y-13449228D01*
X8454935Y-13304567D01*
X8514019Y-13447560D01*
X8830772Y-13764867D01*
X9244842Y-13936804D01*
X9693191Y-13937195D01*
X10107560Y-13765981D01*
X10424867Y-13449228D01*
X10596804Y-13035158D01*
X10597195Y-12586809D01*
X10571465Y-12524537D01*
X12217998Y-10878003D01*
X12218001Y-10878001D01*
X12343078Y-10690808D01*
X12345626Y-10678001D01*
X12387001Y-10470000D01*
X12387000Y-10469995D01*
X12387000Y-10041762D01*
X15207000Y-10041762D01*
X15207000Y-4978238D01*
X12387000Y-4978238D01*
X12387000Y-4145803D01*
X12712975Y-3927993D01*
X12989794Y-3513705D01*
X13064635Y-3137454D01*
X13064635Y-3850000D01*
G36*
X15563000Y-1925575D02*
X15512073Y-1846433D01*
X15369381Y-1748936D01*
X15200000Y-1714635D01*
X14480636Y-1714635D01*
X14158000Y-1391998D01*
X13970807Y-1266921D01*
X13749999Y-1222998D01*
X13749994Y-1222999D01*
X11234004Y-1222999D01*
X11233999Y-1222998D01*
X11013191Y-1266921D01*
X10825998Y-1391998D01*
X10825996Y-1392001D01*
X10273783Y-1944213D01*
X10036924Y-1728355D01*
X9626890Y-1558524D01*
X9397000Y-1679845D01*
X9397000Y-2873000D01*
X9417000Y-2873000D01*
X9417000Y-3127000D01*
X9397000Y-3127000D01*
X9397000Y-4320155D01*
X9626890Y-4441476D01*
X9907995Y-4325046D01*
X9907995Y-9288996D01*
X9847435Y-9314019D01*
X9593402Y-9567608D01*
X9390275Y-9514331D01*
X8634605Y-10270000D01*
X9390275Y-11025669D01*
X9593664Y-10972323D01*
X9845767Y-11224867D01*
X10123717Y-11340282D01*
X9755674Y-11708324D01*
X9695158Y-11683196D01*
X9246809Y-11682805D01*
X8832440Y-11854019D01*
X8515133Y-12170772D01*
X8455065Y-12315433D01*
X8395981Y-12172440D01*
X8079228Y-11855133D01*
X7665158Y-11683196D01*
X7216809Y-11682805D01*
X7154537Y-11708535D01*
X6786180Y-11340179D01*
X7062560Y-11225981D01*
X7083302Y-11205275D01*
X7699331Y-11205275D01*
X7761169Y-11441042D01*
X8262122Y-11617419D01*
X8792440Y-11588664D01*
X9148831Y-11441042D01*
X9210669Y-11205275D01*
X8455000Y-10449605D01*
X7699331Y-11205275D01*
X7083302Y-11205275D01*
X7316594Y-10972391D01*
X7519725Y-11025669D01*
X8275395Y-10270000D01*
X7519725Y-9514331D01*
X7316332Y-9567678D01*
X7083786Y-9334725D01*
X7699331Y-9334725D01*
X8455000Y-10090395D01*
X9210669Y-9334725D01*
X9148831Y-9098958D01*
X8647878Y-8922581D01*
X8117560Y-8951336D01*
X7761169Y-9098958D01*
X7699331Y-9334725D01*
X7083786Y-9334725D01*
X7064228Y-9315133D01*
X6650158Y-9143196D01*
X6201809Y-9142805D01*
X6086469Y-9190463D01*
X4667000Y-7770993D01*
X4667000Y-4207137D01*
X4678687Y-4204812D01*
X5092975Y-3927993D01*
X5369794Y-3513705D01*
X5460000Y-3060209D01*
X5550206Y-3513705D01*
X5827025Y-3927993D01*
X6241313Y-4204812D01*
X6730000Y-4302018D01*
X7218687Y-4204812D01*
X7632975Y-3927993D01*
X7905309Y-3520417D01*
X8074817Y-3881358D01*
X8503076Y-4271645D01*
X8913110Y-4441476D01*
X9143000Y-4320155D01*
X9143000Y-3127000D01*
X9123000Y-3127000D01*
X9123000Y-2873000D01*
X9143000Y-2873000D01*
X9143000Y-1679845D01*
X8913110Y-1558524D01*
X8503076Y-1728355D01*
X8074817Y-2118642D01*
X7905309Y-2479583D01*
X7632975Y-2072007D01*
X7218687Y-1795188D01*
X6730000Y-1697982D01*
X6324619Y-1778617D01*
X5858001Y-1311999D01*
X5670808Y-1186922D01*
X5450000Y-1142999D01*
X5449995Y-1143000D01*
X3694003Y-1143000D01*
X3693998Y-1142999D01*
X3473190Y-1186922D01*
X3285997Y-1311999D01*
X2581998Y-2015998D01*
X2547167Y-2068126D01*
X2138687Y-1795188D01*
X1650000Y-1697982D01*
X1161313Y-1795188D01*
X747025Y-2072007D01*
X477000Y-2476127D01*
X477000Y-477000D01*
X15563000Y-477000D01*
X15563000Y-1925575D01*
X15563000Y-1925575D01*
G37*
X15563000Y-1925575D02*
X15512073Y-1846433D01*
X15369381Y-1748936D01*
X15200000Y-1714635D01*
X14480636Y-1714635D01*
X14158000Y-1391998D01*
X13970807Y-1266921D01*
X13749999Y-1222998D01*
X13749994Y-1222999D01*
X11234004Y-1222999D01*
X11233999Y-1222998D01*
X11013191Y-1266921D01*
X10825998Y-1391998D01*
X10825996Y-1392001D01*
X10273783Y-1944213D01*
X10036924Y-1728355D01*
X9626890Y-1558524D01*
X9397000Y-1679845D01*
X9397000Y-2873000D01*
X9417000Y-2873000D01*
X9417000Y-3127000D01*
X9397000Y-3127000D01*
X9397000Y-4320155D01*
X9626890Y-4441476D01*
X9907995Y-4325046D01*
X9907995Y-9288996D01*
X9847435Y-9314019D01*
X9593402Y-9567608D01*
X9390275Y-9514331D01*
X8634605Y-10270000D01*
X9390275Y-11025669D01*
X9593664Y-10972323D01*
X9845767Y-11224867D01*
X10123717Y-11340282D01*
X9755674Y-11708324D01*
X9695158Y-11683196D01*
X9246809Y-11682805D01*
X8832440Y-11854019D01*
X8515133Y-12170772D01*
X8455065Y-12315433D01*
X8395981Y-12172440D01*
X8079228Y-11855133D01*
X7665158Y-11683196D01*
X7216809Y-11682805D01*
X7154537Y-11708535D01*
X6786180Y-11340179D01*
X7062560Y-11225981D01*
X7083302Y-11205275D01*
X7699331Y-11205275D01*
X7761169Y-11441042D01*
X8262122Y-11617419D01*
X8792440Y-11588664D01*
X9148831Y-11441042D01*
X9210669Y-11205275D01*
X8455000Y-10449605D01*
X7699331Y-11205275D01*
X7083302Y-11205275D01*
X7316594Y-10972391D01*
X7519725Y-11025669D01*
X8275395Y-10270000D01*
X7519725Y-9514331D01*
X7316332Y-9567678D01*
X7083786Y-9334725D01*
X7699331Y-9334725D01*
X8455000Y-10090395D01*
X9210669Y-9334725D01*
X9148831Y-9098958D01*
X8647878Y-8922581D01*
X8117560Y-8951336D01*
X7761169Y-9098958D01*
X7699331Y-9334725D01*
X7083786Y-9334725D01*
X7064228Y-9315133D01*
X6650158Y-9143196D01*
X6201809Y-9142805D01*
X6086469Y-9190463D01*
X4667000Y-7770993D01*
X4667000Y-4207137D01*
X4678687Y-4204812D01*
X5092975Y-3927993D01*
X5369794Y-3513705D01*
X5460000Y-3060209D01*
X5550206Y-3513705D01*
X5827025Y-3927993D01*
X6241313Y-4204812D01*
X6730000Y-4302018D01*
X7218687Y-4204812D01*
X7632975Y-3927993D01*
X7905309Y-3520417D01*
X8074817Y-3881358D01*
X8503076Y-4271645D01*
X8913110Y-4441476D01*
X9143000Y-4320155D01*
X9143000Y-3127000D01*
X9123000Y-3127000D01*
X9123000Y-2873000D01*
X9143000Y-2873000D01*
X9143000Y-1679845D01*
X8913110Y-1558524D01*
X8503076Y-1728355D01*
X8074817Y-2118642D01*
X7905309Y-2479583D01*
X7632975Y-2072007D01*
X7218687Y-1795188D01*
X6730000Y-1697982D01*
X6324619Y-1778617D01*
X5858001Y-1311999D01*
X5670808Y-1186922D01*
X5450000Y-1142999D01*
X5449995Y-1143000D01*
X3694003Y-1143000D01*
X3693998Y-1142999D01*
X3473190Y-1186922D01*
X3285997Y-1311999D01*
X2581998Y-2015998D01*
X2547167Y-2068126D01*
X2138687Y-1795188D01*
X1650000Y-1697982D01*
X1161313Y-1795188D01*
X747025Y-2072007D01*
X477000Y-2476127D01*
X477000Y-477000D01*
X15563000Y-477000D01*
X15563000Y-1925575D01*
M02*
