M48
;DRILL file {KiCad 4.0.7} date 12/10/17 14:33:25
;FORMAT={3:3/ absolute / metric / suppress trailing zeros}
FMAT,2
METRIC,LZ
T1C0.300
T2C0.800
T3C1.000
T4C2.400
%
G90
G05
M71
T1
X00237Y-01793
X0027Y-0123
X00658Y-00535
X00673Y-01769
X01163Y-01614
X01302Y-01143
X01376Y-01959
T2
X00541Y-01281
X006425Y-01027
X00744Y-01281
X008455Y-01027
X00947Y-01281
X010485Y-01027
T3
X00165Y-003
X00419Y-003
X00673Y-003
X00927Y-003
X01181Y-003
X01435Y-003
T4
X00195Y-01511
X01395Y-01511
T0
M30
