%TF.GenerationSoftware,KiCad,Pcbnew,4.0.7*%
%TF.CreationDate,2017-11-16T17:55:08+08:00*%
%TF.ProjectId,rj12,726A31322E6B696361645F7063620000,rev?*%
%TF.FileFunction,Legend,Bot*%
%FSLAX46Y46*%
G04 Gerber Fmt 4.6, Leading zero omitted, Abs format (unit mm)*
G04 Created by KiCad (PCBNEW 4.0.7) date 11/16/17 17:55:08*
%MOMM*%
%LPD*%
G01*
G04 APERTURE LIST*
%ADD10C,0.100000*%
%ADD11C,0.200000*%
%ADD12C,0.250000*%
%ADD13C,0.120000*%
G04 APERTURE END LIST*
D10*
D11*
X7050000Y-17310000D02*
X6370000Y-17830000D01*
X6870000Y-17040000D02*
X6110000Y-17140000D01*
X6810000Y-16750000D02*
X6110000Y-16540000D01*
X9030000Y-17260000D02*
X9630000Y-17830000D01*
X9180000Y-17000000D02*
X10070000Y-17080000D01*
X9210000Y-16670000D02*
X10050000Y-16380000D01*
X7740000Y-17460000D02*
X8300000Y-16930000D01*
X7600000Y-16960000D02*
X8390000Y-17470000D01*
X8676619Y-16360000D02*
G75*
G03X8676619Y-16360000I-116619J0D01*
G01*
X7596619Y-16370000D02*
G75*
G03X7596619Y-16370000I-116619J0D01*
G01*
X6630000Y-14800000D02*
X6770000Y-15930000D01*
X7270000Y-15370000D02*
X6630000Y-14800000D01*
X9340000Y-14760000D02*
X9170000Y-15660000D01*
X8640000Y-15250000D02*
X9340000Y-14760000D01*
X9460001Y-16620000D02*
G75*
G03X9460001Y-16620000I-1426114J0D01*
G01*
D12*
X11774286Y-19722381D02*
X11774286Y-18722381D01*
X10726667Y-19627143D02*
X10774286Y-19674762D01*
X10917143Y-19722381D01*
X11012381Y-19722381D01*
X11155239Y-19674762D01*
X11250477Y-19579524D01*
X11298096Y-19484286D01*
X11345715Y-19293810D01*
X11345715Y-19150952D01*
X11298096Y-18960476D01*
X11250477Y-18865238D01*
X11155239Y-18770000D01*
X11012381Y-18722381D01*
X10917143Y-18722381D01*
X10774286Y-18770000D01*
X10726667Y-18817619D01*
X10298096Y-19722381D02*
X10298096Y-18722381D01*
X10060001Y-18722381D01*
X9917143Y-18770000D01*
X9821905Y-18865238D01*
X9774286Y-18960476D01*
X9726667Y-19150952D01*
X9726667Y-19293810D01*
X9774286Y-19484286D01*
X9821905Y-19579524D01*
X9917143Y-19674762D01*
X10060001Y-19722381D01*
X10298096Y-19722381D01*
X9393334Y-18722381D02*
X8774286Y-18722381D01*
X9107620Y-19103333D01*
X8964762Y-19103333D01*
X8869524Y-19150952D01*
X8821905Y-19198571D01*
X8774286Y-19293810D01*
X8774286Y-19531905D01*
X8821905Y-19627143D01*
X8869524Y-19674762D01*
X8964762Y-19722381D01*
X9250477Y-19722381D01*
X9345715Y-19674762D01*
X9393334Y-19627143D01*
X8583810Y-19817619D02*
X7821905Y-19817619D01*
X7012381Y-19627143D02*
X7060000Y-19674762D01*
X7202857Y-19722381D01*
X7298095Y-19722381D01*
X7440953Y-19674762D01*
X7536191Y-19579524D01*
X7583810Y-19484286D01*
X7631429Y-19293810D01*
X7631429Y-19150952D01*
X7583810Y-18960476D01*
X7536191Y-18865238D01*
X7440953Y-18770000D01*
X7298095Y-18722381D01*
X7202857Y-18722381D01*
X7060000Y-18770000D01*
X7012381Y-18817619D01*
X6440953Y-19722381D02*
X6536191Y-19674762D01*
X6583810Y-19627143D01*
X6631429Y-19531905D01*
X6631429Y-19246190D01*
X6583810Y-19150952D01*
X6536191Y-19103333D01*
X6440953Y-19055714D01*
X6298095Y-19055714D01*
X6202857Y-19103333D01*
X6155238Y-19150952D01*
X6107619Y-19246190D01*
X6107619Y-19531905D01*
X6155238Y-19627143D01*
X6202857Y-19674762D01*
X6298095Y-19722381D01*
X6440953Y-19722381D01*
X5679048Y-19055714D02*
X5679048Y-19722381D01*
X5679048Y-19150952D02*
X5631429Y-19103333D01*
X5536191Y-19055714D01*
X5393333Y-19055714D01*
X5298095Y-19103333D01*
X5250476Y-19198571D01*
X5250476Y-19722381D01*
X4774286Y-19055714D02*
X4774286Y-19722381D01*
X4774286Y-19150952D02*
X4726667Y-19103333D01*
X4631429Y-19055714D01*
X4488571Y-19055714D01*
X4393333Y-19103333D01*
X4345714Y-19198571D01*
X4345714Y-19722381D01*
D13*
X320000Y-4330000D02*
X320000Y-1670000D01*
X13080000Y-4330000D02*
X320000Y-4330000D01*
X13080000Y-1670000D02*
X320000Y-1670000D01*
X13080000Y-4330000D02*
X13080000Y-1670000D01*
X14350000Y-4330000D02*
X15680000Y-4330000D01*
X15680000Y-4330000D02*
X15680000Y-3000000D01*
M02*
