%TF.GenerationSoftware,KiCad,Pcbnew,4.0.7*%
%TF.CreationDate,2017-11-16T17:55:08+08:00*%
%TF.ProjectId,rj12,726A31322E6B696361645F7063620000,rev?*%
%TF.FileFunction,Legend,Top*%
%FSLAX46Y46*%
G04 Gerber Fmt 4.6, Leading zero omitted, Abs format (unit mm)*
G04 Created by KiCad (PCBNEW 4.0.7) date 11/16/17 17:55:08*
%MOMM*%
%LPD*%
G01*
G04 APERTURE LIST*
%ADD10C,0.100000*%
%ADD11C,0.200000*%
%ADD12C,0.187500*%
%ADD13C,0.150000*%
G04 APERTURE END LIST*
D10*
D11*
X14600000Y-1010000D02*
X14360000Y-1570000D01*
X14070000Y-1010000D02*
X14600000Y-1010000D01*
X14410000Y-1170000D02*
X14360000Y-1260000D01*
X14070000Y-1010000D02*
X14410000Y-1170000D01*
X14360000Y-1570000D02*
X14070000Y-1010000D01*
X603333Y-1582381D02*
X603333Y-582381D01*
X908095Y-582381D01*
X984286Y-630000D01*
X1022381Y-677619D01*
X1060476Y-772857D01*
X1060476Y-915714D01*
X1022381Y-1010952D01*
X984286Y-1058571D01*
X908095Y-1106190D01*
X603333Y-1106190D01*
X1822381Y-630000D02*
X1746190Y-582381D01*
X1631905Y-582381D01*
X1517619Y-630000D01*
X1441428Y-725238D01*
X1403333Y-820476D01*
X1365238Y-1010952D01*
X1365238Y-1153810D01*
X1403333Y-1344286D01*
X1441428Y-1439524D01*
X1517619Y-1534762D01*
X1631905Y-1582381D01*
X1708095Y-1582381D01*
X1822381Y-1534762D01*
X1860476Y-1487143D01*
X1860476Y-1153810D01*
X1708095Y-1153810D01*
X2203333Y-1582381D02*
X2203333Y-582381D01*
X2470000Y-1296667D01*
X2736667Y-582381D01*
X2736667Y-1582381D01*
X3120476Y-5382381D02*
X3120476Y-4382381D01*
X3425238Y-4382381D01*
X3501429Y-4430000D01*
X3539524Y-4477619D01*
X3577619Y-4572857D01*
X3577619Y-4715714D01*
X3539524Y-4810952D01*
X3501429Y-4858571D01*
X3425238Y-4906190D01*
X3120476Y-4906190D01*
X4339524Y-4430000D02*
X4263333Y-4382381D01*
X4149048Y-4382381D01*
X4034762Y-4430000D01*
X3958571Y-4525238D01*
X3920476Y-4620476D01*
X3882381Y-4810952D01*
X3882381Y-4953810D01*
X3920476Y-5144286D01*
X3958571Y-5239524D01*
X4034762Y-5334762D01*
X4149048Y-5382381D01*
X4225238Y-5382381D01*
X4339524Y-5334762D01*
X4377619Y-5287143D01*
X4377619Y-4953810D01*
X4225238Y-4953810D01*
X5177619Y-5287143D02*
X5139524Y-5334762D01*
X5025238Y-5382381D01*
X4949048Y-5382381D01*
X4834762Y-5334762D01*
X4758571Y-5239524D01*
X4720476Y-5144286D01*
X4682381Y-4953810D01*
X4682381Y-4810952D01*
X4720476Y-4620476D01*
X4758571Y-4525238D01*
X4834762Y-4430000D01*
X4949048Y-4382381D01*
X5025238Y-4382381D01*
X5139524Y-4430000D01*
X5177619Y-4477619D01*
X5810476Y-1592381D02*
X5810476Y-592381D01*
X6115238Y-592381D01*
X6191429Y-640000D01*
X6229524Y-687619D01*
X6267619Y-782857D01*
X6267619Y-925714D01*
X6229524Y-1020952D01*
X6191429Y-1068571D01*
X6115238Y-1116190D01*
X5810476Y-1116190D01*
X7029524Y-640000D02*
X6953333Y-592381D01*
X6839048Y-592381D01*
X6724762Y-640000D01*
X6648571Y-735238D01*
X6610476Y-830476D01*
X6572381Y-1020952D01*
X6572381Y-1163810D01*
X6610476Y-1354286D01*
X6648571Y-1449524D01*
X6724762Y-1544762D01*
X6839048Y-1592381D01*
X6915238Y-1592381D01*
X7029524Y-1544762D01*
X7067619Y-1497143D01*
X7067619Y-1163810D01*
X6915238Y-1163810D01*
X7410476Y-1592381D02*
X7410476Y-592381D01*
X7600952Y-592381D01*
X7715238Y-640000D01*
X7791429Y-735238D01*
X7829524Y-830476D01*
X7867619Y-1020952D01*
X7867619Y-1163810D01*
X7829524Y-1354286D01*
X7791429Y-1449524D01*
X7715238Y-1544762D01*
X7600952Y-1592381D01*
X7410476Y-1592381D01*
X8560477Y-4420000D02*
X8484286Y-4372381D01*
X8370001Y-4372381D01*
X8255715Y-4420000D01*
X8179524Y-4515238D01*
X8141429Y-4610476D01*
X8103334Y-4800952D01*
X8103334Y-4943810D01*
X8141429Y-5134286D01*
X8179524Y-5229524D01*
X8255715Y-5324762D01*
X8370001Y-5372381D01*
X8446191Y-5372381D01*
X8560477Y-5324762D01*
X8598572Y-5277143D01*
X8598572Y-4943810D01*
X8446191Y-4943810D01*
X8941429Y-5372381D02*
X8941429Y-4372381D01*
X9398572Y-5372381D01*
X9398572Y-4372381D01*
X9779524Y-5372381D02*
X9779524Y-4372381D01*
X9970000Y-4372381D01*
X10084286Y-4420000D01*
X10160477Y-4515238D01*
X10198572Y-4610476D01*
X10236667Y-4800952D01*
X10236667Y-4943810D01*
X10198572Y-5134286D01*
X10160477Y-5229524D01*
X10084286Y-5324762D01*
X9970000Y-5372381D01*
X9779524Y-5372381D01*
X10723333Y-572381D02*
X10990000Y-1572381D01*
X11256667Y-572381D01*
X11523333Y-1572381D02*
X11523333Y-572381D01*
X11713809Y-572381D01*
X11828095Y-620000D01*
X11904286Y-715238D01*
X11942381Y-810476D01*
X11980476Y-1000952D01*
X11980476Y-1143810D01*
X11942381Y-1334286D01*
X11904286Y-1429524D01*
X11828095Y-1524762D01*
X11713809Y-1572381D01*
X11523333Y-1572381D01*
X12323333Y-1572381D02*
X12323333Y-572381D01*
X12513809Y-572381D01*
X12628095Y-620000D01*
X12704286Y-715238D01*
X12742381Y-810476D01*
X12780476Y-1000952D01*
X12780476Y-1143810D01*
X12742381Y-1334286D01*
X12704286Y-1429524D01*
X12628095Y-1524762D01*
X12513809Y-1572381D01*
X12323333Y-1572381D01*
D12*
X12766428Y-5362381D02*
X12766428Y-4362381D01*
X13016428Y-5076667D01*
X13266428Y-4362381D01*
X13266428Y-5362381D01*
X14052143Y-5267143D02*
X14016429Y-5314762D01*
X13909286Y-5362381D01*
X13837857Y-5362381D01*
X13730714Y-5314762D01*
X13659286Y-5219524D01*
X13623571Y-5124286D01*
X13587857Y-4933810D01*
X13587857Y-4790952D01*
X13623571Y-4600476D01*
X13659286Y-4505238D01*
X13730714Y-4410000D01*
X13837857Y-4362381D01*
X13909286Y-4362381D01*
X14016429Y-4410000D01*
X14052143Y-4457619D01*
X14730714Y-5362381D02*
X14373571Y-5362381D01*
X14373571Y-4362381D01*
X15409286Y-5362381D02*
X15159286Y-4886190D01*
X14980714Y-5362381D02*
X14980714Y-4362381D01*
X15266429Y-4362381D01*
X15337857Y-4410000D01*
X15373572Y-4457619D01*
X15409286Y-4552857D01*
X15409286Y-4695714D01*
X15373572Y-4790952D01*
X15337857Y-4838571D01*
X15266429Y-4886190D01*
X14980714Y-4886190D01*
D13*
X14950000Y-21110000D02*
X950000Y-21110000D01*
X14950000Y-15110000D02*
X14950000Y-21110000D01*
X14950000Y-6110000D02*
X14950000Y-15110000D01*
X950000Y-6110000D02*
X14950000Y-6110000D01*
X950000Y-6110000D02*
X950000Y-15110000D01*
X950000Y-15110000D02*
X950000Y-21110000D01*
M02*
