%TF.GenerationSoftware,KiCad,Pcbnew,4.0.7*%
%TF.CreationDate,2017-12-01T20:59:20+08:00*%
%TF.ProjectId,rj12,726A31322E6B696361645F7063620000,rev?*%
%TF.FileFunction,Copper,L1,Top,Signal*%
%FSLAX46Y46*%
G04 Gerber Fmt 4.6, Leading zero omitted, Abs format (unit mm)*
G04 Created by KiCad (PCBNEW 4.0.7) date 12/01/17 20:59:20*
%MOMM*%
%LPD*%
G01*
G04 APERTURE LIST*
%ADD10C,0.100000*%
%ADD11C,0.435000*%
%ADD12C,1.400000*%
%ADD13R,1.700000X1.700000*%
%ADD14O,1.700000X1.700000*%
%ADD15C,0.254000*%
G04 APERTURE END LIST*
D10*
D11*
X13760000Y-19590000D03*
X6580000Y-5350000D03*
X6730000Y-17690000D03*
X2370000Y-17930000D03*
X13020000Y-11430000D03*
X2700000Y-12300000D03*
X11630000Y-16140000D03*
D12*
X5410000Y-12810000D03*
X6425000Y-10270000D03*
X7440000Y-12810000D03*
X8455000Y-10270000D03*
X9470000Y-12810000D03*
X10484995Y-10270000D03*
D13*
X14350000Y-3000000D03*
D14*
X11810000Y-3000000D03*
X9270000Y-3000000D03*
X6730000Y-3000000D03*
X4190000Y-3000000D03*
X1650000Y-3000000D03*
D15*
G36*
X15326992Y-1528277D02*
X15200000Y-1502560D01*
X13500000Y-1502560D01*
X13264683Y-1546838D01*
X13048559Y-1685910D01*
X12903569Y-1898110D01*
X12889914Y-1965541D01*
X12860054Y-1920853D01*
X12378285Y-1598946D01*
X11810000Y-1485907D01*
X11241715Y-1598946D01*
X10759946Y-1920853D01*
X10532298Y-2261553D01*
X10465183Y-2118642D01*
X10036924Y-1728355D01*
X9626890Y-1558524D01*
X9397000Y-1679845D01*
X9397000Y-2873000D01*
X9417000Y-2873000D01*
X9417000Y-3127000D01*
X9397000Y-3127000D01*
X9397000Y-4320155D01*
X9626890Y-4441476D01*
X10036924Y-4271645D01*
X10465183Y-3881358D01*
X10532298Y-3738447D01*
X10759946Y-4079147D01*
X11241715Y-4401054D01*
X11810000Y-4514093D01*
X12378285Y-4401054D01*
X12860054Y-4079147D01*
X12887850Y-4037548D01*
X12896838Y-4085317D01*
X13035910Y-4301441D01*
X13248110Y-4446431D01*
X13500000Y-4497440D01*
X15200000Y-4497440D01*
X15330831Y-4472822D01*
X15343133Y-13908217D01*
X14990801Y-13555270D01*
X14316605Y-13275319D01*
X13586597Y-13274682D01*
X12911914Y-13553455D01*
X12395270Y-14069199D01*
X12115319Y-14743395D01*
X12114682Y-15473403D01*
X12393455Y-16148086D01*
X12909199Y-16664730D01*
X13583395Y-16944681D01*
X14313403Y-16945318D01*
X14988086Y-16666545D01*
X15346263Y-16308992D01*
X15354107Y-22325000D01*
X714107Y-22325000D01*
X706463Y-16461640D01*
X909199Y-16664730D01*
X1583395Y-16944681D01*
X2313403Y-16945318D01*
X2988086Y-16666545D01*
X3504730Y-16150801D01*
X3784681Y-15476605D01*
X3785318Y-14746597D01*
X3506545Y-14071914D01*
X2990801Y-13555270D01*
X2316605Y-13275319D01*
X1586597Y-13274682D01*
X911914Y-13553455D01*
X702943Y-13762062D01*
X702047Y-13074383D01*
X4074769Y-13074383D01*
X4277582Y-13565229D01*
X4652796Y-13941098D01*
X5143287Y-14144768D01*
X5674383Y-14145231D01*
X6165229Y-13942418D01*
X6425124Y-13682976D01*
X6682796Y-13941098D01*
X7173287Y-14144768D01*
X7704383Y-14145231D01*
X8195229Y-13942418D01*
X8455124Y-13682976D01*
X8712796Y-13941098D01*
X9203287Y-14144768D01*
X9734383Y-14145231D01*
X10225229Y-13942418D01*
X10601098Y-13567204D01*
X10804768Y-13076713D01*
X10805231Y-12545617D01*
X10602418Y-12054771D01*
X10227204Y-11678902D01*
X9736713Y-11475232D01*
X9205617Y-11474769D01*
X8714771Y-11677582D01*
X8454876Y-11937024D01*
X8197204Y-11678902D01*
X7706713Y-11475232D01*
X7175617Y-11474769D01*
X6684771Y-11677582D01*
X6424876Y-11937024D01*
X6167204Y-11678902D01*
X5676713Y-11475232D01*
X5145617Y-11474769D01*
X4654771Y-11677582D01*
X4278902Y-12052796D01*
X4075232Y-12543287D01*
X4074769Y-13074383D01*
X702047Y-13074383D01*
X698736Y-10534383D01*
X5089769Y-10534383D01*
X5292582Y-11025229D01*
X5667796Y-11401098D01*
X6158287Y-11604768D01*
X6689383Y-11605231D01*
X7180229Y-11402418D01*
X7377716Y-11205275D01*
X7699331Y-11205275D01*
X7761169Y-11441042D01*
X8262122Y-11617419D01*
X8792440Y-11588664D01*
X9148831Y-11441042D01*
X9210669Y-11205275D01*
X8455000Y-10449605D01*
X7699331Y-11205275D01*
X7377716Y-11205275D01*
X7556098Y-11027204D01*
X7583016Y-10962378D01*
X8275395Y-10270000D01*
X8634605Y-10270000D01*
X9326343Y-10961737D01*
X9352577Y-11025229D01*
X9727791Y-11401098D01*
X10218282Y-11604768D01*
X10749378Y-11605231D01*
X11240224Y-11402418D01*
X11616093Y-11027204D01*
X11819763Y-10536713D01*
X11820226Y-10005617D01*
X11617413Y-9514771D01*
X11242199Y-9138902D01*
X10751708Y-8935232D01*
X10220612Y-8934769D01*
X9729766Y-9137582D01*
X9353897Y-9512796D01*
X9326975Y-9577631D01*
X8634605Y-10270000D01*
X8275395Y-10270000D01*
X7583649Y-9578255D01*
X7557418Y-9514771D01*
X7377686Y-9334725D01*
X7699331Y-9334725D01*
X8455000Y-10090395D01*
X9210669Y-9334725D01*
X9148831Y-9098958D01*
X8647878Y-8922581D01*
X8117560Y-8951336D01*
X7761169Y-9098958D01*
X7699331Y-9334725D01*
X7377686Y-9334725D01*
X7182204Y-9138902D01*
X6691713Y-8935232D01*
X6160617Y-8934769D01*
X5669771Y-9137582D01*
X5293902Y-9512796D01*
X5090232Y-10003287D01*
X5089769Y-10534383D01*
X698736Y-10534383D01*
X690397Y-4139584D01*
X1081715Y-4401054D01*
X1650000Y-4514093D01*
X2218285Y-4401054D01*
X2700054Y-4079147D01*
X2920000Y-3749974D01*
X3139946Y-4079147D01*
X3621715Y-4401054D01*
X4190000Y-4514093D01*
X4758285Y-4401054D01*
X5240054Y-4079147D01*
X5460000Y-3749974D01*
X5679946Y-4079147D01*
X6161715Y-4401054D01*
X6730000Y-4514093D01*
X7298285Y-4401054D01*
X7780054Y-4079147D01*
X8007702Y-3738447D01*
X8074817Y-3881358D01*
X8503076Y-4271645D01*
X8913110Y-4441476D01*
X9143000Y-4320155D01*
X9143000Y-3127000D01*
X9123000Y-3127000D01*
X9123000Y-2873000D01*
X9143000Y-2873000D01*
X9143000Y-1679845D01*
X8913110Y-1558524D01*
X8503076Y-1728355D01*
X8074817Y-2118642D01*
X8007702Y-2261553D01*
X7780054Y-1920853D01*
X7298285Y-1598946D01*
X6730000Y-1485907D01*
X6161715Y-1598946D01*
X5679946Y-1920853D01*
X5460000Y-2250026D01*
X5240054Y-1920853D01*
X4758285Y-1598946D01*
X4190000Y-1485907D01*
X3621715Y-1598946D01*
X3139946Y-1920853D01*
X2920000Y-2250026D01*
X2700054Y-1920853D01*
X2218285Y-1598946D01*
X1650000Y-1485907D01*
X1081715Y-1598946D01*
X687428Y-1862399D01*
X685893Y-685000D01*
X15325893Y-685000D01*
X15326992Y-1528277D01*
X15326992Y-1528277D01*
G37*
X15326992Y-1528277D02*
X15200000Y-1502560D01*
X13500000Y-1502560D01*
X13264683Y-1546838D01*
X13048559Y-1685910D01*
X12903569Y-1898110D01*
X12889914Y-1965541D01*
X12860054Y-1920853D01*
X12378285Y-1598946D01*
X11810000Y-1485907D01*
X11241715Y-1598946D01*
X10759946Y-1920853D01*
X10532298Y-2261553D01*
X10465183Y-2118642D01*
X10036924Y-1728355D01*
X9626890Y-1558524D01*
X9397000Y-1679845D01*
X9397000Y-2873000D01*
X9417000Y-2873000D01*
X9417000Y-3127000D01*
X9397000Y-3127000D01*
X9397000Y-4320155D01*
X9626890Y-4441476D01*
X10036924Y-4271645D01*
X10465183Y-3881358D01*
X10532298Y-3738447D01*
X10759946Y-4079147D01*
X11241715Y-4401054D01*
X11810000Y-4514093D01*
X12378285Y-4401054D01*
X12860054Y-4079147D01*
X12887850Y-4037548D01*
X12896838Y-4085317D01*
X13035910Y-4301441D01*
X13248110Y-4446431D01*
X13500000Y-4497440D01*
X15200000Y-4497440D01*
X15330831Y-4472822D01*
X15343133Y-13908217D01*
X14990801Y-13555270D01*
X14316605Y-13275319D01*
X13586597Y-13274682D01*
X12911914Y-13553455D01*
X12395270Y-14069199D01*
X12115319Y-14743395D01*
X12114682Y-15473403D01*
X12393455Y-16148086D01*
X12909199Y-16664730D01*
X13583395Y-16944681D01*
X14313403Y-16945318D01*
X14988086Y-16666545D01*
X15346263Y-16308992D01*
X15354107Y-22325000D01*
X714107Y-22325000D01*
X706463Y-16461640D01*
X909199Y-16664730D01*
X1583395Y-16944681D01*
X2313403Y-16945318D01*
X2988086Y-16666545D01*
X3504730Y-16150801D01*
X3784681Y-15476605D01*
X3785318Y-14746597D01*
X3506545Y-14071914D01*
X2990801Y-13555270D01*
X2316605Y-13275319D01*
X1586597Y-13274682D01*
X911914Y-13553455D01*
X702943Y-13762062D01*
X702047Y-13074383D01*
X4074769Y-13074383D01*
X4277582Y-13565229D01*
X4652796Y-13941098D01*
X5143287Y-14144768D01*
X5674383Y-14145231D01*
X6165229Y-13942418D01*
X6425124Y-13682976D01*
X6682796Y-13941098D01*
X7173287Y-14144768D01*
X7704383Y-14145231D01*
X8195229Y-13942418D01*
X8455124Y-13682976D01*
X8712796Y-13941098D01*
X9203287Y-14144768D01*
X9734383Y-14145231D01*
X10225229Y-13942418D01*
X10601098Y-13567204D01*
X10804768Y-13076713D01*
X10805231Y-12545617D01*
X10602418Y-12054771D01*
X10227204Y-11678902D01*
X9736713Y-11475232D01*
X9205617Y-11474769D01*
X8714771Y-11677582D01*
X8454876Y-11937024D01*
X8197204Y-11678902D01*
X7706713Y-11475232D01*
X7175617Y-11474769D01*
X6684771Y-11677582D01*
X6424876Y-11937024D01*
X6167204Y-11678902D01*
X5676713Y-11475232D01*
X5145617Y-11474769D01*
X4654771Y-11677582D01*
X4278902Y-12052796D01*
X4075232Y-12543287D01*
X4074769Y-13074383D01*
X702047Y-13074383D01*
X698736Y-10534383D01*
X5089769Y-10534383D01*
X5292582Y-11025229D01*
X5667796Y-11401098D01*
X6158287Y-11604768D01*
X6689383Y-11605231D01*
X7180229Y-11402418D01*
X7377716Y-11205275D01*
X7699331Y-11205275D01*
X7761169Y-11441042D01*
X8262122Y-11617419D01*
X8792440Y-11588664D01*
X9148831Y-11441042D01*
X9210669Y-11205275D01*
X8455000Y-10449605D01*
X7699331Y-11205275D01*
X7377716Y-11205275D01*
X7556098Y-11027204D01*
X7583016Y-10962378D01*
X8275395Y-10270000D01*
X8634605Y-10270000D01*
X9326343Y-10961737D01*
X9352577Y-11025229D01*
X9727791Y-11401098D01*
X10218282Y-11604768D01*
X10749378Y-11605231D01*
X11240224Y-11402418D01*
X11616093Y-11027204D01*
X11819763Y-10536713D01*
X11820226Y-10005617D01*
X11617413Y-9514771D01*
X11242199Y-9138902D01*
X10751708Y-8935232D01*
X10220612Y-8934769D01*
X9729766Y-9137582D01*
X9353897Y-9512796D01*
X9326975Y-9577631D01*
X8634605Y-10270000D01*
X8275395Y-10270000D01*
X7583649Y-9578255D01*
X7557418Y-9514771D01*
X7377686Y-9334725D01*
X7699331Y-9334725D01*
X8455000Y-10090395D01*
X9210669Y-9334725D01*
X9148831Y-9098958D01*
X8647878Y-8922581D01*
X8117560Y-8951336D01*
X7761169Y-9098958D01*
X7699331Y-9334725D01*
X7377686Y-9334725D01*
X7182204Y-9138902D01*
X6691713Y-8935232D01*
X6160617Y-8934769D01*
X5669771Y-9137582D01*
X5293902Y-9512796D01*
X5090232Y-10003287D01*
X5089769Y-10534383D01*
X698736Y-10534383D01*
X690397Y-4139584D01*
X1081715Y-4401054D01*
X1650000Y-4514093D01*
X2218285Y-4401054D01*
X2700054Y-4079147D01*
X2920000Y-3749974D01*
X3139946Y-4079147D01*
X3621715Y-4401054D01*
X4190000Y-4514093D01*
X4758285Y-4401054D01*
X5240054Y-4079147D01*
X5460000Y-3749974D01*
X5679946Y-4079147D01*
X6161715Y-4401054D01*
X6730000Y-4514093D01*
X7298285Y-4401054D01*
X7780054Y-4079147D01*
X8007702Y-3738447D01*
X8074817Y-3881358D01*
X8503076Y-4271645D01*
X8913110Y-4441476D01*
X9143000Y-4320155D01*
X9143000Y-3127000D01*
X9123000Y-3127000D01*
X9123000Y-2873000D01*
X9143000Y-2873000D01*
X9143000Y-1679845D01*
X8913110Y-1558524D01*
X8503076Y-1728355D01*
X8074817Y-2118642D01*
X8007702Y-2261553D01*
X7780054Y-1920853D01*
X7298285Y-1598946D01*
X6730000Y-1485907D01*
X6161715Y-1598946D01*
X5679946Y-1920853D01*
X5460000Y-2250026D01*
X5240054Y-1920853D01*
X4758285Y-1598946D01*
X4190000Y-1485907D01*
X3621715Y-1598946D01*
X3139946Y-1920853D01*
X2920000Y-2250026D01*
X2700054Y-1920853D01*
X2218285Y-1598946D01*
X1650000Y-1485907D01*
X1081715Y-1598946D01*
X687428Y-1862399D01*
X685893Y-685000D01*
X15325893Y-685000D01*
X15326992Y-1528277D01*
M02*
