%TF.GenerationSoftware,KiCad,Pcbnew,4.0.7*%
%TF.CreationDate,2017-11-16T17:55:08+08:00*%
%TF.ProjectId,rj12,726A31322E6B696361645F7063620000,rev?*%
%TF.FileFunction,Other,ECO1*%
%FSLAX46Y46*%
G04 Gerber Fmt 4.6, Leading zero omitted, Abs format (unit mm)*
G04 Created by KiCad (PCBNEW 4.0.7) date 11/16/17 17:55:08*
%MOMM*%
%LPD*%
G01*
G04 APERTURE LIST*
%ADD10C,0.100000*%
%ADD11C,0.300000*%
G04 APERTURE END LIST*
D10*
D11*
X-1786432Y-5287283D02*
X-1714941Y-5358650D01*
X-1643388Y-5501445D01*
X-1643077Y-5858588D01*
X-1714382Y-6001507D01*
X-1785749Y-6072998D01*
X-1928544Y-6144550D01*
X-2071401Y-6144674D01*
X-2285749Y-6073433D01*
X-3143636Y-5217035D01*
X-3142828Y-6145606D01*
X-1642394Y-6644302D02*
X-1641586Y-7572872D01*
X-2213450Y-7073369D01*
X-2213264Y-7287655D01*
X-2284568Y-7430574D01*
X-2355934Y-7502065D01*
X-2498729Y-7573618D01*
X-2855872Y-7573928D01*
X-2998791Y-7502624D01*
X-3070282Y-7431257D01*
X-3141834Y-7288463D01*
X-3142207Y-6859891D01*
X-3070903Y-6716972D01*
X-2999536Y-6645482D01*
X-2998170Y-8216909D02*
X-3069537Y-8288399D01*
X-3141027Y-8217033D01*
X-3069661Y-8145542D01*
X-2998170Y-8216909D01*
X-3141027Y-8217033D01*
X-1640158Y-9215729D02*
X-1640034Y-9358586D01*
X-1711338Y-9501505D01*
X-1782705Y-9572996D01*
X-1925500Y-9644549D01*
X-2211152Y-9716225D01*
X-2568295Y-9716536D01*
X-2854071Y-9645356D01*
X-2996990Y-9574052D01*
X-3068481Y-9502685D01*
X-3140033Y-9359890D01*
X-3140157Y-9217033D01*
X-3068854Y-9074114D01*
X-2997487Y-9002623D01*
X-2854692Y-8931071D01*
X-2569040Y-8859393D01*
X-2211897Y-8859083D01*
X-1926121Y-8930263D01*
X-1783202Y-9001567D01*
X-1711711Y-9072934D01*
X-1640158Y-9215729D01*
X-1638916Y-10644299D02*
X-1638791Y-10787156D01*
X-1710096Y-10930075D01*
X-1781463Y-11001566D01*
X-1924258Y-11073119D01*
X-2209910Y-11144796D01*
X-2567053Y-11145106D01*
X-2852829Y-11073927D01*
X-2995748Y-11002622D01*
X-3067239Y-10931255D01*
X-3138791Y-10788460D01*
X-3138915Y-10645603D01*
X-3067611Y-10502684D01*
X-2996244Y-10431193D01*
X-2853450Y-10359641D01*
X-2567798Y-10287964D01*
X-2210655Y-10287653D01*
X-1924879Y-10358834D01*
X-1781960Y-10430137D01*
X-1710469Y-10501504D01*
X-1638916Y-10644299D01*
X-1637673Y-12072869D02*
X-1637549Y-12215726D01*
X-1708854Y-12358646D01*
X-1780221Y-12430137D01*
X-1923016Y-12501690D01*
X-2208667Y-12573366D01*
X-2565810Y-12573677D01*
X-2851586Y-12502497D01*
X-2994505Y-12431192D01*
X-3065996Y-12359826D01*
X-3137549Y-12217031D01*
X-3137673Y-12074174D01*
X-3066369Y-11931255D01*
X-2995002Y-11859764D01*
X-2852207Y-11788212D01*
X-2566556Y-11716534D01*
X-2209413Y-11716224D01*
X-1923637Y-11787404D01*
X-1780718Y-11858708D01*
X-1709227Y-11930075D01*
X-1637673Y-12072869D01*
X-3135685Y-14359887D02*
X-2135686Y-14359017D01*
X-2278544Y-14359142D02*
X-2207053Y-14430508D01*
X-2135499Y-14573303D01*
X-2135313Y-14787588D01*
X-2206618Y-14930507D01*
X-2349413Y-15002061D01*
X-3135126Y-15002744D01*
X-2349413Y-15002061D02*
X-2206494Y-15073365D01*
X-2134940Y-15216160D01*
X-2134754Y-15430445D01*
X-2206059Y-15573365D01*
X-2348854Y-15644917D01*
X-3134567Y-15645600D01*
X-3133946Y-16359886D02*
X-2133947Y-16359017D01*
X-2276804Y-16359141D02*
X-2205313Y-16430507D01*
X-2133760Y-16573303D01*
X-2133574Y-16787587D01*
X-2204879Y-16930507D01*
X-2347673Y-17002060D01*
X-3133387Y-17002743D01*
X-2347673Y-17002060D02*
X-2204754Y-17073365D01*
X-2133201Y-17216159D01*
X-2133015Y-17430444D01*
X-2204320Y-17573364D01*
X-2347114Y-17644917D01*
X-3132828Y-17645600D01*
X-1119599Y-982D02*
X-1099599Y-23000982D01*
X10000Y0D02*
X-3819598Y-3330D01*
X30000Y-23000000D02*
X-3799598Y-23003330D01*
X-1099599Y-23000982D02*
X-1686999Y-21874989D01*
X-1099599Y-23000982D02*
X-514158Y-21873969D01*
X-1119599Y-982D02*
X-1705040Y-1127995D01*
X-1119599Y-982D02*
X-532199Y-1126975D01*
X2654839Y1588172D02*
X1797697Y1589243D01*
X2226268Y1588708D02*
X2228143Y3088706D01*
X2085019Y2874599D01*
X1941982Y2731921D01*
X1799036Y2660671D01*
X3942427Y3086564D02*
X3656713Y3086921D01*
X3513767Y3015670D01*
X3442249Y2944331D01*
X3299124Y2730224D01*
X3227338Y2444599D01*
X3226624Y1873171D01*
X3297874Y1730225D01*
X3369213Y1658707D01*
X3511981Y1587101D01*
X3797695Y1586743D01*
X3940641Y1657993D01*
X4012159Y1729332D01*
X4083766Y1872100D01*
X4084212Y2229243D01*
X4012963Y2372189D01*
X3941623Y2443706D01*
X3798856Y2515314D01*
X3513142Y2515671D01*
X3370195Y2444420D01*
X3298678Y2373082D01*
X3227070Y2230314D01*
X4726444Y1728440D02*
X4797783Y1656921D01*
X4726265Y1585583D01*
X4654926Y1657100D01*
X4726444Y1728440D01*
X4726265Y1585583D01*
X5728140Y3084331D02*
X5870996Y3084153D01*
X6013764Y3012545D01*
X6085104Y2941027D01*
X6156354Y2798081D01*
X6227425Y2512278D01*
X6226978Y2155135D01*
X6155193Y1869511D01*
X6083586Y1726743D01*
X6012068Y1655403D01*
X5869121Y1584154D01*
X5726265Y1584333D01*
X5583497Y1655939D01*
X5512157Y1727457D01*
X5440908Y1870404D01*
X5369836Y2156207D01*
X5370283Y2513349D01*
X5442069Y2798974D01*
X5513675Y2941741D01*
X5585193Y3013081D01*
X5728140Y3084331D01*
X7156709Y3082546D02*
X7299566Y3082367D01*
X7442334Y3010760D01*
X7513674Y2939241D01*
X7584924Y2796295D01*
X7655995Y2510492D01*
X7655548Y2153350D01*
X7583763Y1867725D01*
X7512156Y1724957D01*
X7440638Y1653618D01*
X7297691Y1582368D01*
X7154834Y1582547D01*
X7012067Y1654153D01*
X6940727Y1725672D01*
X6869478Y1868618D01*
X6798406Y2154421D01*
X6798852Y2511564D01*
X6870639Y2797188D01*
X6942245Y2939956D01*
X7013763Y3011295D01*
X7156709Y3082546D01*
X8585279Y3080760D02*
X8728136Y3080582D01*
X8870904Y3008974D01*
X8942243Y2937456D01*
X9013494Y2794510D01*
X9084565Y2508707D01*
X9084118Y2151564D01*
X9012333Y1865939D01*
X8940726Y1723172D01*
X8869207Y1651832D01*
X8726261Y1580583D01*
X8583404Y1580761D01*
X8440637Y1652368D01*
X8369297Y1723886D01*
X8298048Y1866832D01*
X8226976Y2152635D01*
X8227422Y2509778D01*
X8299208Y2795402D01*
X8370815Y2938170D01*
X8442333Y3009510D01*
X8585279Y3080760D01*
X10869117Y1577904D02*
X10870367Y2577903D01*
X10870188Y2435045D02*
X10941705Y2506385D01*
X11084652Y2577635D01*
X11298937Y2577368D01*
X11441705Y2505760D01*
X11512955Y2362814D01*
X11511973Y1577101D01*
X11512955Y2362814D02*
X11584563Y2505582D01*
X11727509Y2576832D01*
X11941794Y2576564D01*
X12084562Y2504957D01*
X12155812Y2362010D01*
X12154830Y1576297D01*
X12869115Y1575404D02*
X12870365Y2575403D01*
X12870186Y2432545D02*
X12941704Y2503885D01*
X13084651Y2575135D01*
X13298936Y2574868D01*
X13441703Y2503260D01*
X13512954Y2360314D01*
X13511971Y1574601D01*
X13512954Y2360314D02*
X13584561Y2503082D01*
X13727507Y2574332D01*
X13941792Y2574064D01*
X14084561Y2502457D01*
X14155810Y2359510D01*
X14154828Y1573797D01*
X11138Y920047D02*
X16011138Y900047D01*
X10000Y10000D02*
X14513Y3620045D01*
X16010000Y-10000D02*
X16014513Y3600045D01*
X16011138Y900047D02*
X14883902Y315035D01*
X16011138Y900047D02*
X14885368Y1487875D01*
X11138Y920047D02*
X1136908Y332219D01*
X11138Y920047D02*
X1138374Y1505059D01*
M02*
