%TF.GenerationSoftware,KiCad,Pcbnew,4.0.7*%
%TF.CreationDate,2017-12-01T20:59:20+08:00*%
%TF.ProjectId,rj12,726A31322E6B696361645F7063620000,rev?*%
%TF.FileFunction,Legend,Bot*%
%FSLAX46Y46*%
G04 Gerber Fmt 4.6, Leading zero omitted, Abs format (unit mm)*
G04 Created by KiCad (PCBNEW 4.0.7) date 12/01/17 20:59:20*
%MOMM*%
%LPD*%
G01*
G04 APERTURE LIST*
%ADD10C,0.100000*%
%ADD11C,0.200000*%
%ADD12C,0.250000*%
%ADD13C,0.120000*%
G04 APERTURE END LIST*
D10*
D11*
X6760000Y-16610000D02*
X6080000Y-17130000D01*
X6580000Y-16340000D02*
X5820000Y-16440000D01*
X6520000Y-16050000D02*
X5820000Y-15840000D01*
X8740000Y-16560000D02*
X9340000Y-17130000D01*
X8890000Y-16300000D02*
X9780000Y-16380000D01*
X8920000Y-15970000D02*
X9760000Y-15680000D01*
X7450000Y-16760000D02*
X8010000Y-16230000D01*
X7310000Y-16260000D02*
X8100000Y-16770000D01*
X8386619Y-15660000D02*
G75*
G03X8386619Y-15660000I-116619J0D01*
G01*
X7306619Y-15670000D02*
G75*
G03X7306619Y-15670000I-116619J0D01*
G01*
X6340000Y-14100000D02*
X6480000Y-15230000D01*
X6980000Y-14670000D02*
X6340000Y-14100000D01*
X9050000Y-14060000D02*
X8880000Y-14960000D01*
X8350000Y-14550000D02*
X9050000Y-14060000D01*
X9170001Y-15920000D02*
G75*
G03X9170001Y-15920000I-1426114J0D01*
G01*
D12*
X12119524Y-19337381D02*
X12119524Y-18337381D01*
X11071905Y-19242143D02*
X11119524Y-19289762D01*
X11262381Y-19337381D01*
X11357619Y-19337381D01*
X11500477Y-19289762D01*
X11595715Y-19194524D01*
X11643334Y-19099286D01*
X11690953Y-18908810D01*
X11690953Y-18765952D01*
X11643334Y-18575476D01*
X11595715Y-18480238D01*
X11500477Y-18385000D01*
X11357619Y-18337381D01*
X11262381Y-18337381D01*
X11119524Y-18385000D01*
X11071905Y-18432619D01*
X10643334Y-19337381D02*
X10643334Y-18337381D01*
X10405239Y-18337381D01*
X10262381Y-18385000D01*
X10167143Y-18480238D01*
X10119524Y-18575476D01*
X10071905Y-18765952D01*
X10071905Y-18908810D01*
X10119524Y-19099286D01*
X10167143Y-19194524D01*
X10262381Y-19289762D01*
X10405239Y-19337381D01*
X10643334Y-19337381D01*
X9738572Y-18337381D02*
X9119524Y-18337381D01*
X9452858Y-18718333D01*
X9310000Y-18718333D01*
X9214762Y-18765952D01*
X9167143Y-18813571D01*
X9119524Y-18908810D01*
X9119524Y-19146905D01*
X9167143Y-19242143D01*
X9214762Y-19289762D01*
X9310000Y-19337381D01*
X9595715Y-19337381D01*
X9690953Y-19289762D01*
X9738572Y-19242143D01*
X7357619Y-19337381D02*
X7690953Y-18861190D01*
X7929048Y-19337381D02*
X7929048Y-18337381D01*
X7548095Y-18337381D01*
X7452857Y-18385000D01*
X7405238Y-18432619D01*
X7357619Y-18527857D01*
X7357619Y-18670714D01*
X7405238Y-18765952D01*
X7452857Y-18813571D01*
X7548095Y-18861190D01*
X7929048Y-18861190D01*
X6643333Y-18337381D02*
X6643333Y-19051667D01*
X6690953Y-19194524D01*
X6786191Y-19289762D01*
X6929048Y-19337381D01*
X7024286Y-19337381D01*
X6167143Y-18956429D02*
X5405238Y-18956429D01*
X4405238Y-19337381D02*
X4976667Y-19337381D01*
X4690953Y-19337381D02*
X4690953Y-18337381D01*
X4786191Y-18480238D01*
X4881429Y-18575476D01*
X4976667Y-18623095D01*
X4024286Y-18432619D02*
X3976667Y-18385000D01*
X3881429Y-18337381D01*
X3643333Y-18337381D01*
X3548095Y-18385000D01*
X3500476Y-18432619D01*
X3452857Y-18527857D01*
X3452857Y-18623095D01*
X3500476Y-18765952D01*
X4071905Y-19337381D01*
X3452857Y-19337381D01*
X10762381Y-20992143D02*
X10810000Y-21039762D01*
X10952857Y-21087381D01*
X11048095Y-21087381D01*
X11190953Y-21039762D01*
X11286191Y-20944524D01*
X11333810Y-20849286D01*
X11381429Y-20658810D01*
X11381429Y-20515952D01*
X11333810Y-20325476D01*
X11286191Y-20230238D01*
X11190953Y-20135000D01*
X11048095Y-20087381D01*
X10952857Y-20087381D01*
X10810000Y-20135000D01*
X10762381Y-20182619D01*
X10190953Y-21087381D02*
X10286191Y-21039762D01*
X10333810Y-20992143D01*
X10381429Y-20896905D01*
X10381429Y-20611190D01*
X10333810Y-20515952D01*
X10286191Y-20468333D01*
X10190953Y-20420714D01*
X10048095Y-20420714D01*
X9952857Y-20468333D01*
X9905238Y-20515952D01*
X9857619Y-20611190D01*
X9857619Y-20896905D01*
X9905238Y-20992143D01*
X9952857Y-21039762D01*
X10048095Y-21087381D01*
X10190953Y-21087381D01*
X9429048Y-20420714D02*
X9429048Y-21087381D01*
X9429048Y-20515952D02*
X9381429Y-20468333D01*
X9286191Y-20420714D01*
X9143333Y-20420714D01*
X9048095Y-20468333D01*
X9000476Y-20563571D01*
X9000476Y-21087381D01*
X8524286Y-20420714D02*
X8524286Y-21087381D01*
X8524286Y-20515952D02*
X8476667Y-20468333D01*
X8381429Y-20420714D01*
X8238571Y-20420714D01*
X8143333Y-20468333D01*
X8095714Y-20563571D01*
X8095714Y-21087381D01*
X7238571Y-21039762D02*
X7333809Y-21087381D01*
X7524286Y-21087381D01*
X7619524Y-21039762D01*
X7667143Y-20944524D01*
X7667143Y-20563571D01*
X7619524Y-20468333D01*
X7524286Y-20420714D01*
X7333809Y-20420714D01*
X7238571Y-20468333D01*
X7190952Y-20563571D01*
X7190952Y-20658810D01*
X7667143Y-20754048D01*
X6333809Y-21039762D02*
X6429047Y-21087381D01*
X6619524Y-21087381D01*
X6714762Y-21039762D01*
X6762381Y-20992143D01*
X6810000Y-20896905D01*
X6810000Y-20611190D01*
X6762381Y-20515952D01*
X6714762Y-20468333D01*
X6619524Y-20420714D01*
X6429047Y-20420714D01*
X6333809Y-20468333D01*
X6048095Y-20420714D02*
X5667143Y-20420714D01*
X5905238Y-20087381D02*
X5905238Y-20944524D01*
X5857619Y-21039762D01*
X5762381Y-21087381D01*
X5667143Y-21087381D01*
X5190952Y-21087381D02*
X5286190Y-21039762D01*
X5333809Y-20992143D01*
X5381428Y-20896905D01*
X5381428Y-20611190D01*
X5333809Y-20515952D01*
X5286190Y-20468333D01*
X5190952Y-20420714D01*
X5048094Y-20420714D01*
X4952856Y-20468333D01*
X4905237Y-20515952D01*
X4857618Y-20611190D01*
X4857618Y-20896905D01*
X4905237Y-20992143D01*
X4952856Y-21039762D01*
X5048094Y-21087381D01*
X5190952Y-21087381D01*
X4429047Y-21087381D02*
X4429047Y-20420714D01*
X4429047Y-20611190D02*
X4381428Y-20515952D01*
X4333809Y-20468333D01*
X4238571Y-20420714D01*
X4143332Y-20420714D01*
D13*
X320000Y-4330000D02*
X320000Y-1670000D01*
X13080000Y-4330000D02*
X320000Y-4330000D01*
X13080000Y-1670000D02*
X320000Y-1670000D01*
X13080000Y-4330000D02*
X13080000Y-1670000D01*
X14350000Y-4330000D02*
X15680000Y-4330000D01*
X15680000Y-4330000D02*
X15680000Y-3000000D01*
M02*
