%MOIN*%
%OFA0B0*%
%FSLAX46Y46*%
%IPPOS*%
%LPD*%
%ADD10C,0.0039370078740157488*%
%ADD11C,0.005905511811023622*%
%ADD22C,0.0039370078740157488*%
%ADD23C,0.0039370078740157488*%
%ADD24C,0.005905511811023622*%
%ADD25C,0.0039370078740157488*%
%ADD26C,0.0039370078740157488*%
%ADD27C,0.005905511811023622*%
%ADD28C,0.0039370078740157488*%
%ADD29C,0.0039370078740157488*%
%ADD30C,0.005905511811023622*%
%ADD31C,0.0039370078740157488*%
%ADD32C,0.0039370078740157488*%
%ADD33C,0.005905511811023622*%
%ADD34C,0.0039370078740157488*%
%ADD35C,0.0039370078740157488*%
%ADD36C,0.005905511811023622*%
%ADD37C,0.0039370078740157488*%
%ADD38C,0.0039370078740157488*%
%ADD39C,0.005905511811023622*%
%ADD40C,0.0039370078740157488*%
%ADD41C,0.0039370078740157488*%
%ADD42C,0.005905511811023622*%
%ADD43C,0.0039370078740157488*%
%ADD44C,0.0039370078740157488*%
%ADD45C,0.005905511811023622*%
%ADD46C,0.0039370078740157488*%
%ADD47C,0.0039370078740157488*%
%ADD48C,0.005905511811023622*%
%ADD49C,0.0039370078740157488*%
%ADD50C,0.0039370078740157488*%
%ADD51C,0.005905511811023622*%
%ADD52C,0.0039370078740157488*%
%ADD53C,0.0039370078740157488*%
%ADD54C,0.005905511811023622*%
%ADD55C,0.0039370078740157488*%
%ADD56C,0.0039370078740157488*%
%ADD57C,0.005905511811023622*%
%ADD58C,0.0039370078740157488*%
%ADD59C,0.0039370078740157488*%
%ADD60C,0.005905511811023622*%
%ADD61C,0.0039370078740157488*%
%ADD62C,0.0039370078740157488*%
%ADD63C,0.005905511811023622*%
%ADD64C,0.0039370078740157488*%
%ADD65C,0.0039370078740157488*%
%ADD66C,0.005905511811023622*%
%ADD67C,0.0039370078740157488*%
%ADD68C,0.0039370078740157488*%
%ADD69C,0.005905511811023622*%
%ADD70C,0.0039370078740157488*%
%ADD71C,0.0039370078740157488*%
%ADD72C,0.005905511811023622*%
%ADD73C,0.0039370078740157488*%
G01G01*
D10*
X0000764881Y0011343543D02*
X0000764881Y0011493543D01*
X0000764881Y0011493543D02*
X0000164881Y0011493543D01*
X0000164881Y0011493543D02*
X0000164881Y0011293543D01*
X0000164881Y0011293543D02*
X0000714881Y0011293543D01*
X0000714881Y0011293543D02*
X0000764881Y0011343543D01*
D11*
X0000478005Y0011415103D02*
X0000478005Y0011386981D01*
X0000479880Y0011381357D01*
X0000483629Y0011377607D01*
X0000489253Y0011375733D01*
X0000493003Y0011375733D01*
X0000438635Y0011375733D02*
X0000461132Y0011375733D01*
X0000449883Y0011375733D02*
X0000449883Y0011415103D01*
X0000453633Y0011409478D01*
X0000457382Y0011405729D01*
X0000461132Y0011403854D01*
G04 next file*
G04 Gerber Fmt 4.6, Leading zero omitted, Abs format (unit mm)*
G04 Created by KiCad (PCBNEW 4.0.7) date 10/04/17 14:34:26*
G01G01*
G04 APERTURE LIST*
G04 APERTURE END LIST*
D22*
G04 next file*
G04 Gerber Fmt 4.6, Leading zero omitted, Abs format (unit mm)*
G04 Created by KiCad (PCBNEW 4.0.7) date 10/04/17 14:34:26*
G01G01*
G04 APERTURE LIST*
G04 APERTURE END LIST*
D23*
X0001631023Y0011343543D02*
X0001631023Y0011493543D01*
X0001631023Y0011493543D02*
X0001031023Y0011493543D01*
X0001031023Y0011493543D02*
X0001031023Y0011293543D01*
X0001031023Y0011293543D02*
X0001581023Y0011293543D01*
X0001581023Y0011293543D02*
X0001631023Y0011343543D01*
D24*
X0001344146Y0011415103D02*
X0001344146Y0011386981D01*
X0001346021Y0011381357D01*
X0001349771Y0011377607D01*
X0001355395Y0011375733D01*
X0001359145Y0011375733D01*
X0001304776Y0011375733D02*
X0001327274Y0011375733D01*
X0001316025Y0011375733D02*
X0001316025Y0011415103D01*
X0001319775Y0011409478D01*
X0001323524Y0011405729D01*
X0001327274Y0011403854D01*
G04 next file*
G04 Gerber Fmt 4.6, Leading zero omitted, Abs format (unit mm)*
G04 Created by KiCad (PCBNEW 4.0.7) date 10/04/17 14:34:26*
G01G01*
G04 APERTURE LIST*
G04 APERTURE END LIST*
D25*
G04 next file*
G04 Gerber Fmt 4.6, Leading zero omitted, Abs format (unit mm)*
G04 Created by KiCad (PCBNEW 4.0.7) date 10/04/17 14:34:26*
G01G01*
G04 APERTURE LIST*
G04 APERTURE END LIST*
D26*
X0002497165Y0011343543D02*
X0002497165Y0011493543D01*
X0002497165Y0011493543D02*
X0001897165Y0011493543D01*
X0001897165Y0011493543D02*
X0001897165Y0011293543D01*
X0001897165Y0011293543D02*
X0002447165Y0011293543D01*
X0002447165Y0011293543D02*
X0002497165Y0011343543D01*
D27*
X0002210288Y0011415103D02*
X0002210288Y0011386981D01*
X0002212163Y0011381357D01*
X0002215913Y0011377607D01*
X0002221537Y0011375733D01*
X0002225286Y0011375733D01*
X0002170918Y0011375733D02*
X0002193415Y0011375733D01*
X0002182167Y0011375733D02*
X0002182167Y0011415103D01*
X0002185916Y0011409478D01*
X0002189666Y0011405729D01*
X0002193415Y0011403854D01*
G04 next file*
G04 Gerber Fmt 4.6, Leading zero omitted, Abs format (unit mm)*
G04 Created by KiCad (PCBNEW 4.0.7) date 10/04/17 14:34:26*
G01G01*
G04 APERTURE LIST*
G04 APERTURE END LIST*
D28*
G04 next file*
G04 Gerber Fmt 4.6, Leading zero omitted, Abs format (unit mm)*
G04 Created by KiCad (PCBNEW 4.0.7) date 10/04/17 14:34:26*
G01G01*
G04 APERTURE LIST*
G04 APERTURE END LIST*
D29*
X0003363307Y0011343543D02*
X0003363307Y0011493543D01*
X0003363307Y0011493543D02*
X0002763307Y0011493543D01*
X0002763307Y0011493543D02*
X0002763307Y0011293543D01*
X0002763307Y0011293543D02*
X0003313307Y0011293543D01*
X0003313307Y0011293543D02*
X0003363307Y0011343543D01*
D30*
X0003076430Y0011415103D02*
X0003076430Y0011386981D01*
X0003078305Y0011381357D01*
X0003082054Y0011377607D01*
X0003087679Y0011375733D01*
X0003091428Y0011375733D01*
X0003037060Y0011375733D02*
X0003059557Y0011375733D01*
X0003048308Y0011375733D02*
X0003048308Y0011415103D01*
X0003052058Y0011409478D01*
X0003055808Y0011405729D01*
X0003059557Y0011403854D01*
G04 next file*
G04 Gerber Fmt 4.6, Leading zero omitted, Abs format (unit mm)*
G04 Created by KiCad (PCBNEW 4.0.7) date 10/04/17 14:34:26*
G01G01*
G04 APERTURE LIST*
G04 APERTURE END LIST*
D31*
G04 next file*
G04 Gerber Fmt 4.6, Leading zero omitted, Abs format (unit mm)*
G04 Created by KiCad (PCBNEW 4.0.7) date 10/04/17 14:34:26*
G01G01*
G04 APERTURE LIST*
G04 APERTURE END LIST*
D32*
X0004190078Y0011343543D02*
X0004190078Y0011493543D01*
X0004190078Y0011493543D02*
X0003590078Y0011493543D01*
X0003590078Y0011493543D02*
X0003590078Y0011293543D01*
X0003590078Y0011293543D02*
X0004140078Y0011293543D01*
X0004140078Y0011293543D02*
X0004190078Y0011343543D01*
D33*
X0003903202Y0011415103D02*
X0003903202Y0011386981D01*
X0003905076Y0011381357D01*
X0003908826Y0011377607D01*
X0003914450Y0011375733D01*
X0003918200Y0011375733D01*
X0003863832Y0011375733D02*
X0003886329Y0011375733D01*
X0003875080Y0011375733D02*
X0003875080Y0011415103D01*
X0003878830Y0011409478D01*
X0003882579Y0011405729D01*
X0003886329Y0011403854D01*
G04 next file*
G04 Gerber Fmt 4.6, Leading zero omitted, Abs format (unit mm)*
G04 Created by KiCad (PCBNEW 4.0.7) date 10/04/17 14:34:26*
G01G01*
G04 APERTURE LIST*
G04 APERTURE END LIST*
D34*
G04 next file*
G04 Gerber Fmt 4.6, Leading zero omitted, Abs format (unit mm)*
G04 Created by KiCad (PCBNEW 4.0.7) date 10/04/17 14:34:26*
G01G01*
G04 APERTURE LIST*
G04 APERTURE END LIST*
D35*
X0005056220Y0011343543D02*
X0005056220Y0011493543D01*
X0005056220Y0011493543D02*
X0004456220Y0011493543D01*
X0004456220Y0011493543D02*
X0004456220Y0011293543D01*
X0004456220Y0011293543D02*
X0005006220Y0011293543D01*
X0005006220Y0011293543D02*
X0005056220Y0011343543D01*
D36*
X0004769343Y0011415103D02*
X0004769343Y0011386981D01*
X0004771218Y0011381357D01*
X0004774968Y0011377607D01*
X0004780592Y0011375733D01*
X0004784341Y0011375733D01*
X0004729973Y0011375733D02*
X0004752470Y0011375733D01*
X0004741222Y0011375733D02*
X0004741222Y0011415103D01*
X0004744971Y0011409478D01*
X0004748721Y0011405729D01*
X0004752470Y0011403854D01*
G04 next file*
G04 Gerber Fmt 4.6, Leading zero omitted, Abs format (unit mm)*
G04 Created by KiCad (PCBNEW 4.0.7) date 10/04/17 14:34:26*
G01G01*
G04 APERTURE LIST*
G04 APERTURE END LIST*
D37*
G04 next file*
G04 Gerber Fmt 4.6, Leading zero omitted, Abs format (unit mm)*
G04 Created by KiCad (PCBNEW 4.0.7) date 10/04/17 14:34:26*
G01G01*
G04 APERTURE LIST*
G04 APERTURE END LIST*
D38*
X0005922362Y0011343543D02*
X0005922362Y0011493543D01*
X0005922362Y0011493543D02*
X0005322362Y0011493543D01*
X0005322362Y0011493543D02*
X0005322362Y0011293543D01*
X0005322362Y0011293543D02*
X0005872362Y0011293543D01*
X0005872362Y0011293543D02*
X0005922362Y0011343543D01*
D39*
X0005635485Y0011415103D02*
X0005635485Y0011386981D01*
X0005637360Y0011381357D01*
X0005641109Y0011377607D01*
X0005646734Y0011375733D01*
X0005650483Y0011375733D01*
X0005596115Y0011375733D02*
X0005618612Y0011375733D01*
X0005607364Y0011375733D02*
X0005607364Y0011415103D01*
X0005611113Y0011409478D01*
X0005614863Y0011405729D01*
X0005618612Y0011403854D01*
G04 next file*
G04 Gerber Fmt 4.6, Leading zero omitted, Abs format (unit mm)*
G04 Created by KiCad (PCBNEW 4.0.7) date 10/04/17 14:34:26*
G01G01*
G04 APERTURE LIST*
G04 APERTURE END LIST*
D40*
G04 next file*
G04 Gerber Fmt 4.6, Leading zero omitted, Abs format (unit mm)*
G04 Created by KiCad (PCBNEW 4.0.7) date 10/04/17 14:34:26*
G01G01*
G04 APERTURE LIST*
G04 APERTURE END LIST*
D41*
X0006788503Y0011343543D02*
X0006788503Y0011493543D01*
X0006788503Y0011493543D02*
X0006188503Y0011493543D01*
X0006188503Y0011493543D02*
X0006188503Y0011293543D01*
X0006188503Y0011293543D02*
X0006738503Y0011293543D01*
X0006738503Y0011293543D02*
X0006788503Y0011343543D01*
D42*
X0006501627Y0011415103D02*
X0006501627Y0011386981D01*
X0006503502Y0011381357D01*
X0006507251Y0011377607D01*
X0006512875Y0011375733D01*
X0006516625Y0011375733D01*
X0006462257Y0011375733D02*
X0006484754Y0011375733D01*
X0006473505Y0011375733D02*
X0006473505Y0011415103D01*
X0006477255Y0011409478D01*
X0006481004Y0011405729D01*
X0006484754Y0011403854D01*
G04 next file*
G04 Gerber Fmt 4.6, Leading zero omitted, Abs format (unit mm)*
G04 Created by KiCad (PCBNEW 4.0.7) date 10/04/17 14:34:26*
G01G01*
G04 APERTURE LIST*
G04 APERTURE END LIST*
D43*
G04 next file*
G04 Gerber Fmt 4.6, Leading zero omitted, Abs format (unit mm)*
G04 Created by KiCad (PCBNEW 4.0.7) date 10/04/17 14:34:26*
G01G01*
G04 APERTURE LIST*
G04 APERTURE END LIST*
D44*
X0007654645Y0011343543D02*
X0007654645Y0011493543D01*
X0007654645Y0011493543D02*
X0007054645Y0011493543D01*
X0007054645Y0011493543D02*
X0007054645Y0011293543D01*
X0007054645Y0011293543D02*
X0007604645Y0011293543D01*
X0007604645Y0011293543D02*
X0007654645Y0011343543D01*
D45*
X0007367769Y0011415103D02*
X0007367769Y0011386981D01*
X0007369643Y0011381357D01*
X0007373393Y0011377607D01*
X0007379017Y0011375733D01*
X0007382767Y0011375733D01*
X0007328398Y0011375733D02*
X0007350896Y0011375733D01*
X0007339647Y0011375733D02*
X0007339647Y0011415103D01*
X0007343397Y0011409478D01*
X0007347146Y0011405729D01*
X0007350896Y0011403854D01*
G04 next file*
G04 Gerber Fmt 4.6, Leading zero omitted, Abs format (unit mm)*
G04 Created by KiCad (PCBNEW 4.0.7) date 10/04/17 14:34:26*
G01G01*
G04 APERTURE LIST*
G04 APERTURE END LIST*
D46*
G04 next file*
G04 Gerber Fmt 4.6, Leading zero omitted, Abs format (unit mm)*
G04 Created by KiCad (PCBNEW 4.0.7) date 10/04/17 14:34:26*
G01G01*
G04 APERTURE LIST*
G04 APERTURE END LIST*
D47*
X0000764881Y0010241181D02*
X0000764881Y0010391181D01*
X0000764881Y0010391181D02*
X0000164881Y0010391181D01*
X0000164881Y0010391181D02*
X0000164881Y0010191181D01*
X0000164881Y0010191181D02*
X0000714881Y0010191181D01*
X0000714881Y0010191181D02*
X0000764881Y0010241181D01*
D48*
X0000478005Y0010312740D02*
X0000478005Y0010284619D01*
X0000479880Y0010278995D01*
X0000483629Y0010275245D01*
X0000489253Y0010273370D01*
X0000493003Y0010273370D01*
X0000438635Y0010273370D02*
X0000461132Y0010273370D01*
X0000449883Y0010273370D02*
X0000449883Y0010312740D01*
X0000453633Y0010307116D01*
X0000457382Y0010303367D01*
X0000461132Y0010301492D01*
G04 next file*
G04 Gerber Fmt 4.6, Leading zero omitted, Abs format (unit mm)*
G04 Created by KiCad (PCBNEW 4.0.7) date 10/04/17 14:34:26*
G01G01*
G04 APERTURE LIST*
G04 APERTURE END LIST*
D49*
G04 next file*
G04 Gerber Fmt 4.6, Leading zero omitted, Abs format (unit mm)*
G04 Created by KiCad (PCBNEW 4.0.7) date 10/04/17 14:34:26*
G01G01*
G04 APERTURE LIST*
G04 APERTURE END LIST*
D50*
X0001631023Y0010241181D02*
X0001631023Y0010391181D01*
X0001631023Y0010391181D02*
X0001031023Y0010391181D01*
X0001031023Y0010391181D02*
X0001031023Y0010191181D01*
X0001031023Y0010191181D02*
X0001581023Y0010191181D01*
X0001581023Y0010191181D02*
X0001631023Y0010241181D01*
D51*
X0001344146Y0010312740D02*
X0001344146Y0010284619D01*
X0001346021Y0010278995D01*
X0001349771Y0010275245D01*
X0001355395Y0010273370D01*
X0001359145Y0010273370D01*
X0001304776Y0010273370D02*
X0001327274Y0010273370D01*
X0001316025Y0010273370D02*
X0001316025Y0010312740D01*
X0001319775Y0010307116D01*
X0001323524Y0010303367D01*
X0001327274Y0010301492D01*
G04 next file*
G04 Gerber Fmt 4.6, Leading zero omitted, Abs format (unit mm)*
G04 Created by KiCad (PCBNEW 4.0.7) date 10/04/17 14:34:26*
G01G01*
G04 APERTURE LIST*
G04 APERTURE END LIST*
D52*
G04 next file*
G04 Gerber Fmt 4.6, Leading zero omitted, Abs format (unit mm)*
G04 Created by KiCad (PCBNEW 4.0.7) date 10/04/17 14:34:26*
G01G01*
G04 APERTURE LIST*
G04 APERTURE END LIST*
D53*
X0002497165Y0010241181D02*
X0002497165Y0010391181D01*
X0002497165Y0010391181D02*
X0001897165Y0010391181D01*
X0001897165Y0010391181D02*
X0001897165Y0010191181D01*
X0001897165Y0010191181D02*
X0002447165Y0010191181D01*
X0002447165Y0010191181D02*
X0002497165Y0010241181D01*
D54*
X0002210288Y0010312740D02*
X0002210288Y0010284619D01*
X0002212163Y0010278995D01*
X0002215913Y0010275245D01*
X0002221537Y0010273370D01*
X0002225286Y0010273370D01*
X0002170918Y0010273370D02*
X0002193415Y0010273370D01*
X0002182167Y0010273370D02*
X0002182167Y0010312740D01*
X0002185916Y0010307116D01*
X0002189666Y0010303367D01*
X0002193415Y0010301492D01*
G04 next file*
G04 Gerber Fmt 4.6, Leading zero omitted, Abs format (unit mm)*
G04 Created by KiCad (PCBNEW 4.0.7) date 10/04/17 14:34:26*
G01G01*
G04 APERTURE LIST*
G04 APERTURE END LIST*
D55*
G04 next file*
G04 Gerber Fmt 4.6, Leading zero omitted, Abs format (unit mm)*
G04 Created by KiCad (PCBNEW 4.0.7) date 10/04/17 14:34:26*
G01G01*
G04 APERTURE LIST*
G04 APERTURE END LIST*
D56*
X0003363307Y0010241181D02*
X0003363307Y0010391181D01*
X0003363307Y0010391181D02*
X0002763307Y0010391181D01*
X0002763307Y0010391181D02*
X0002763307Y0010191181D01*
X0002763307Y0010191181D02*
X0003313307Y0010191181D01*
X0003313307Y0010191181D02*
X0003363307Y0010241181D01*
D57*
X0003076430Y0010312740D02*
X0003076430Y0010284619D01*
X0003078305Y0010278995D01*
X0003082054Y0010275245D01*
X0003087679Y0010273370D01*
X0003091428Y0010273370D01*
X0003037060Y0010273370D02*
X0003059557Y0010273370D01*
X0003048308Y0010273370D02*
X0003048308Y0010312740D01*
X0003052058Y0010307116D01*
X0003055808Y0010303367D01*
X0003059557Y0010301492D01*
G04 next file*
G04 Gerber Fmt 4.6, Leading zero omitted, Abs format (unit mm)*
G04 Created by KiCad (PCBNEW 4.0.7) date 10/04/17 14:34:26*
G01G01*
G04 APERTURE LIST*
G04 APERTURE END LIST*
D58*
G04 next file*
G04 Gerber Fmt 4.6, Leading zero omitted, Abs format (unit mm)*
G04 Created by KiCad (PCBNEW 4.0.7) date 10/04/17 14:34:26*
G01G01*
G04 APERTURE LIST*
G04 APERTURE END LIST*
D59*
X0004190078Y0010241181D02*
X0004190078Y0010391181D01*
X0004190078Y0010391181D02*
X0003590078Y0010391181D01*
X0003590078Y0010391181D02*
X0003590078Y0010191181D01*
X0003590078Y0010191181D02*
X0004140078Y0010191181D01*
X0004140078Y0010191181D02*
X0004190078Y0010241181D01*
D60*
X0003903202Y0010312740D02*
X0003903202Y0010284619D01*
X0003905076Y0010278995D01*
X0003908826Y0010275245D01*
X0003914450Y0010273370D01*
X0003918200Y0010273370D01*
X0003863832Y0010273370D02*
X0003886329Y0010273370D01*
X0003875080Y0010273370D02*
X0003875080Y0010312740D01*
X0003878830Y0010307116D01*
X0003882579Y0010303367D01*
X0003886329Y0010301492D01*
G04 next file*
G04 Gerber Fmt 4.6, Leading zero omitted, Abs format (unit mm)*
G04 Created by KiCad (PCBNEW 4.0.7) date 10/04/17 14:34:26*
G01G01*
G04 APERTURE LIST*
G04 APERTURE END LIST*
D61*
G04 next file*
G04 Gerber Fmt 4.6, Leading zero omitted, Abs format (unit mm)*
G04 Created by KiCad (PCBNEW 4.0.7) date 10/04/17 14:34:26*
G01G01*
G04 APERTURE LIST*
G04 APERTURE END LIST*
D62*
X0005056220Y0010241181D02*
X0005056220Y0010391181D01*
X0005056220Y0010391181D02*
X0004456220Y0010391181D01*
X0004456220Y0010391181D02*
X0004456220Y0010191181D01*
X0004456220Y0010191181D02*
X0005006220Y0010191181D01*
X0005006220Y0010191181D02*
X0005056220Y0010241181D01*
D63*
X0004769343Y0010312740D02*
X0004769343Y0010284619D01*
X0004771218Y0010278995D01*
X0004774968Y0010275245D01*
X0004780592Y0010273370D01*
X0004784341Y0010273370D01*
X0004729973Y0010273370D02*
X0004752470Y0010273370D01*
X0004741222Y0010273370D02*
X0004741222Y0010312740D01*
X0004744971Y0010307116D01*
X0004748721Y0010303367D01*
X0004752470Y0010301492D01*
G04 next file*
G04 Gerber Fmt 4.6, Leading zero omitted, Abs format (unit mm)*
G04 Created by KiCad (PCBNEW 4.0.7) date 10/04/17 14:34:26*
G01G01*
G04 APERTURE LIST*
G04 APERTURE END LIST*
D64*
G04 next file*
G04 Gerber Fmt 4.6, Leading zero omitted, Abs format (unit mm)*
G04 Created by KiCad (PCBNEW 4.0.7) date 10/04/17 14:34:26*
G01G01*
G04 APERTURE LIST*
G04 APERTURE END LIST*
D65*
X0005922362Y0010241181D02*
X0005922362Y0010391181D01*
X0005922362Y0010391181D02*
X0005322362Y0010391181D01*
X0005322362Y0010391181D02*
X0005322362Y0010191181D01*
X0005322362Y0010191181D02*
X0005872362Y0010191181D01*
X0005872362Y0010191181D02*
X0005922362Y0010241181D01*
D66*
X0005635485Y0010312740D02*
X0005635485Y0010284619D01*
X0005637360Y0010278995D01*
X0005641109Y0010275245D01*
X0005646734Y0010273370D01*
X0005650483Y0010273370D01*
X0005596115Y0010273370D02*
X0005618612Y0010273370D01*
X0005607364Y0010273370D02*
X0005607364Y0010312740D01*
X0005611113Y0010307116D01*
X0005614863Y0010303367D01*
X0005618612Y0010301492D01*
G04 next file*
G04 Gerber Fmt 4.6, Leading zero omitted, Abs format (unit mm)*
G04 Created by KiCad (PCBNEW 4.0.7) date 10/04/17 14:34:26*
G01G01*
G04 APERTURE LIST*
G04 APERTURE END LIST*
D67*
G04 next file*
G04 Gerber Fmt 4.6, Leading zero omitted, Abs format (unit mm)*
G04 Created by KiCad (PCBNEW 4.0.7) date 10/04/17 14:34:26*
G01G01*
G04 APERTURE LIST*
G04 APERTURE END LIST*
D68*
X0006788503Y0010241181D02*
X0006788503Y0010391181D01*
X0006788503Y0010391181D02*
X0006188503Y0010391181D01*
X0006188503Y0010391181D02*
X0006188503Y0010191181D01*
X0006188503Y0010191181D02*
X0006738503Y0010191181D01*
X0006738503Y0010191181D02*
X0006788503Y0010241181D01*
D69*
X0006501627Y0010312740D02*
X0006501627Y0010284619D01*
X0006503502Y0010278995D01*
X0006507251Y0010275245D01*
X0006512875Y0010273370D01*
X0006516625Y0010273370D01*
X0006462257Y0010273370D02*
X0006484754Y0010273370D01*
X0006473505Y0010273370D02*
X0006473505Y0010312740D01*
X0006477255Y0010307116D01*
X0006481004Y0010303367D01*
X0006484754Y0010301492D01*
G04 next file*
G04 Gerber Fmt 4.6, Leading zero omitted, Abs format (unit mm)*
G04 Created by KiCad (PCBNEW 4.0.7) date 10/04/17 14:34:26*
G01G01*
G04 APERTURE LIST*
G04 APERTURE END LIST*
D70*
G04 next file*
G04 Gerber Fmt 4.6, Leading zero omitted, Abs format (unit mm)*
G04 Created by KiCad (PCBNEW 4.0.7) date 10/04/17 14:34:26*
G01G01*
G04 APERTURE LIST*
G04 APERTURE END LIST*
D71*
X0007654645Y0010241181D02*
X0007654645Y0010391181D01*
X0007654645Y0010391181D02*
X0007054645Y0010391181D01*
X0007054645Y0010391181D02*
X0007054645Y0010191181D01*
X0007054645Y0010191181D02*
X0007604645Y0010191181D01*
X0007604645Y0010191181D02*
X0007654645Y0010241181D01*
D72*
X0007367769Y0010312740D02*
X0007367769Y0010284619D01*
X0007369643Y0010278995D01*
X0007373393Y0010275245D01*
X0007379017Y0010273370D01*
X0007382767Y0010273370D01*
X0007328398Y0010273370D02*
X0007350896Y0010273370D01*
X0007339647Y0010273370D02*
X0007339647Y0010312740D01*
X0007343397Y0010307116D01*
X0007347146Y0010303367D01*
X0007350896Y0010301492D01*
G04 next file*
G04 Gerber Fmt 4.6, Leading zero omitted, Abs format (unit mm)*
G04 Created by KiCad (PCBNEW 4.0.7) date 10/04/17 14:34:26*
G01G01*
G04 APERTURE LIST*
G04 APERTURE END LIST*
D73*
M02*