%MOIN*%
%OFA0B0*%
%FSLAX46Y46*%
%IPPOS*%
%LPD*%
%ADD10C,0.0039370078740157488*%
%ADD11C,0.11023622047244094*%
%ADD12C,0.070866141732283464*%
%ADD13R,0.082677165354330714X0.082677165354330714*%
%ADD14O,0.082677165354330714X0.082677165354330714*%
%ADD25C,0.0039370078740157488*%
%ADD26C,0.11023622047244094*%
%ADD27C,0.070866141732283464*%
%ADD28R,0.082677165354330714X0.082677165354330714*%
%ADD29O,0.082677165354330714X0.082677165354330714*%
%ADD30C,0.0039370078740157488*%
%ADD31C,0.11023622047244094*%
%ADD32C,0.070866141732283464*%
%ADD33R,0.082677165354330714X0.082677165354330714*%
%ADD34O,0.082677165354330714X0.082677165354330714*%
%ADD35C,0.0039370078740157488*%
%ADD36C,0.11023622047244094*%
%ADD37C,0.070866141732283464*%
%ADD38R,0.082677165354330714X0.082677165354330714*%
%ADD39O,0.082677165354330714X0.082677165354330714*%
%ADD40C,0.0039370078740157488*%
%ADD41C,0.11023622047244094*%
%ADD42C,0.070866141732283464*%
%ADD43R,0.082677165354330714X0.082677165354330714*%
%ADD44O,0.082677165354330714X0.082677165354330714*%
%ADD45C,0.0039370078740157488*%
%ADD46C,0.11023622047244094*%
%ADD47C,0.070866141732283464*%
%ADD48R,0.082677165354330714X0.082677165354330714*%
%ADD49O,0.082677165354330714X0.082677165354330714*%
%ADD50C,0.0039370078740157488*%
%ADD51C,0.11023622047244094*%
%ADD52C,0.070866141732283464*%
%ADD53R,0.082677165354330714X0.082677165354330714*%
%ADD54O,0.082677165354330714X0.082677165354330714*%
%ADD55C,0.0039370078740157488*%
%ADD56C,0.11023622047244094*%
%ADD57C,0.070866141732283464*%
%ADD58R,0.082677165354330714X0.082677165354330714*%
%ADD59O,0.082677165354330714X0.082677165354330714*%
%ADD60C,0.0039370078740157488*%
%ADD61C,0.11023622047244094*%
%ADD62C,0.070866141732283464*%
%ADD63R,0.082677165354330714X0.082677165354330714*%
%ADD64O,0.082677165354330714X0.082677165354330714*%
%ADD65C,0.0039370078740157488*%
%ADD66C,0.11023622047244094*%
%ADD67C,0.070866141732283464*%
%ADD68R,0.082677165354330714X0.082677165354330714*%
%ADD69O,0.082677165354330714X0.082677165354330714*%
%ADD70C,0.0039370078740157488*%
%ADD71C,0.11023622047244094*%
%ADD72C,0.070866141732283464*%
%ADD73R,0.082677165354330714X0.082677165354330714*%
%ADD74O,0.082677165354330714X0.082677165354330714*%
%ADD75C,0.0039370078740157488*%
%ADD76C,0.11023622047244094*%
%ADD77C,0.070866141732283464*%
%ADD78R,0.082677165354330714X0.082677165354330714*%
%ADD79O,0.082677165354330714X0.082677165354330714*%
%ADD80C,0.0039370078740157488*%
%ADD81C,0.11023622047244094*%
%ADD82C,0.070866141732283464*%
%ADD83R,0.082677165354330714X0.082677165354330714*%
%ADD84O,0.082677165354330714X0.082677165354330714*%
%ADD85C,0.0039370078740157488*%
%ADD86C,0.11023622047244094*%
%ADD87C,0.070866141732283464*%
%ADD88R,0.082677165354330714X0.082677165354330714*%
%ADD89O,0.082677165354330714X0.082677165354330714*%
%ADD90C,0.0039370078740157488*%
%ADD91C,0.11023622047244094*%
%ADD92C,0.070866141732283464*%
%ADD93R,0.082677165354330714X0.082677165354330714*%
%ADD94O,0.082677165354330714X0.082677165354330714*%
%ADD95C,0.0039370078740157488*%
%ADD96C,0.11023622047244094*%
%ADD97C,0.070866141732283464*%
%ADD98R,0.082677165354330714X0.082677165354330714*%
%ADD99O,0.082677165354330714X0.082677165354330714*%
%ADD100C,0.0039370078740157488*%
%ADD101C,0.11023622047244094*%
%ADD102C,0.070866141732283464*%
%ADD103R,0.082677165354330714X0.082677165354330714*%
%ADD104O,0.082677165354330714X0.082677165354330714*%
%ADD105C,0.0039370078740157488*%
%ADD106C,0.11023622047244094*%
%ADD107C,0.070866141732283464*%
%ADD108R,0.082677165354330714X0.082677165354330714*%
%ADD109O,0.082677165354330714X0.082677165354330714*%
G01G01*
D10*
D11*
X0000944881Y0011653543D02*
X0000700496Y0010840192D03*
X0000228055Y0010840192D03*
D12*
X0000564669Y0011030743D03*
X0000484354Y0011030743D03*
X0000404039Y0011030743D03*
X0000524511Y0010930743D03*
X0000444196Y0010930743D03*
X0000363881Y0010930743D03*
D13*
X0000714881Y0011343543D03*
D14*
X0000714881Y0011443543D03*
X0000614881Y0011343543D03*
X0000614881Y0011443543D03*
X0000514881Y0011343543D03*
X0000514881Y0011443543D03*
X0000414881Y0011343543D03*
X0000414881Y0011443543D03*
X0000314881Y0011343543D03*
X0000314881Y0011443543D03*
X0000214881Y0011343543D03*
X0000214881Y0011443543D03*
G04 next file*
G04 Gerber Fmt 4.6, Leading zero omitted, Abs format (unit mm)*
G04 Created by KiCad (PCBNEW 4.0.7) date 10/04/17 14:34:26*
G01G01*
G04 APERTURE LIST*
G04 APERTURE END LIST*
D25*
D26*
X0001811023Y0011653543D02*
X0001566637Y0010840192D03*
X0001094196Y0010840192D03*
D27*
X0001430811Y0011030743D03*
X0001350496Y0011030743D03*
X0001270181Y0011030743D03*
X0001390653Y0010930743D03*
X0001310338Y0010930743D03*
X0001230023Y0010930743D03*
D28*
X0001581023Y0011343543D03*
D29*
X0001581023Y0011443543D03*
X0001481023Y0011343543D03*
X0001481023Y0011443543D03*
X0001381023Y0011343543D03*
X0001381023Y0011443543D03*
X0001281023Y0011343543D03*
X0001281023Y0011443543D03*
X0001181023Y0011343543D03*
X0001181023Y0011443543D03*
X0001081023Y0011343543D03*
X0001081023Y0011443543D03*
G04 next file*
G04 Gerber Fmt 4.6, Leading zero omitted, Abs format (unit mm)*
G04 Created by KiCad (PCBNEW 4.0.7) date 10/04/17 14:34:26*
G01G01*
G04 APERTURE LIST*
G04 APERTURE END LIST*
D30*
D31*
X0002677165Y0011653543D02*
X0002432779Y0010840192D03*
X0001960338Y0010840192D03*
D32*
X0002296952Y0011030743D03*
X0002216637Y0011030743D03*
X0002136322Y0011030743D03*
X0002256795Y0010930743D03*
X0002176480Y0010930743D03*
X0002096165Y0010930743D03*
D33*
X0002447165Y0011343543D03*
D34*
X0002447165Y0011443543D03*
X0002347165Y0011343543D03*
X0002347165Y0011443543D03*
X0002247165Y0011343543D03*
X0002247165Y0011443543D03*
X0002147165Y0011343543D03*
X0002147165Y0011443543D03*
X0002047165Y0011343543D03*
X0002047165Y0011443543D03*
X0001947165Y0011343543D03*
X0001947165Y0011443543D03*
G04 next file*
G04 Gerber Fmt 4.6, Leading zero omitted, Abs format (unit mm)*
G04 Created by KiCad (PCBNEW 4.0.7) date 10/04/17 14:34:26*
G01G01*
G04 APERTURE LIST*
G04 APERTURE END LIST*
D35*
D36*
X0003543307Y0011653543D02*
X0003298921Y0010840192D03*
X0002826480Y0010840192D03*
D37*
X0003163094Y0011030743D03*
X0003082779Y0011030743D03*
X0003002464Y0011030743D03*
X0003122937Y0010930743D03*
X0003042622Y0010930743D03*
X0002962307Y0010930743D03*
D38*
X0003313307Y0011343543D03*
D39*
X0003313307Y0011443543D03*
X0003213307Y0011343543D03*
X0003213307Y0011443543D03*
X0003113307Y0011343543D03*
X0003113307Y0011443543D03*
X0003013307Y0011343543D03*
X0003013307Y0011443543D03*
X0002913307Y0011343543D03*
X0002913307Y0011443543D03*
X0002813307Y0011343543D03*
X0002813307Y0011443543D03*
G04 next file*
G04 Gerber Fmt 4.6, Leading zero omitted, Abs format (unit mm)*
G04 Created by KiCad (PCBNEW 4.0.7) date 10/04/17 14:34:26*
G01G01*
G04 APERTURE LIST*
G04 APERTURE END LIST*
D40*
D41*
X0004370078Y0011653543D02*
X0004125692Y0010840192D03*
X0003653251Y0010840192D03*
D42*
X0003989866Y0011030743D03*
X0003909551Y0011030743D03*
X0003829236Y0011030743D03*
X0003949708Y0010930743D03*
X0003869393Y0010930743D03*
X0003789078Y0010930743D03*
D43*
X0004140078Y0011343543D03*
D44*
X0004140078Y0011443543D03*
X0004040078Y0011343543D03*
X0004040078Y0011443543D03*
X0003940078Y0011343543D03*
X0003940078Y0011443543D03*
X0003840078Y0011343543D03*
X0003840078Y0011443543D03*
X0003740078Y0011343543D03*
X0003740078Y0011443543D03*
X0003640078Y0011343543D03*
X0003640078Y0011443543D03*
G04 next file*
G04 Gerber Fmt 4.6, Leading zero omitted, Abs format (unit mm)*
G04 Created by KiCad (PCBNEW 4.0.7) date 10/04/17 14:34:26*
G01G01*
G04 APERTURE LIST*
G04 APERTURE END LIST*
D45*
D46*
X0005236220Y0011653543D02*
X0004991834Y0010840192D03*
X0004519393Y0010840192D03*
D47*
X0004856007Y0011030743D03*
X0004775692Y0011030743D03*
X0004695377Y0011030743D03*
X0004815850Y0010930743D03*
X0004735535Y0010930743D03*
X0004655220Y0010930743D03*
D48*
X0005006220Y0011343543D03*
D49*
X0005006220Y0011443543D03*
X0004906220Y0011343543D03*
X0004906220Y0011443543D03*
X0004806220Y0011343543D03*
X0004806220Y0011443543D03*
X0004706220Y0011343543D03*
X0004706220Y0011443543D03*
X0004606220Y0011343543D03*
X0004606220Y0011443543D03*
X0004506220Y0011343543D03*
X0004506220Y0011443543D03*
G04 next file*
G04 Gerber Fmt 4.6, Leading zero omitted, Abs format (unit mm)*
G04 Created by KiCad (PCBNEW 4.0.7) date 10/04/17 14:34:26*
G01G01*
G04 APERTURE LIST*
G04 APERTURE END LIST*
D50*
D51*
X0006102362Y0011653543D02*
X0005857976Y0010840192D03*
X0005385535Y0010840192D03*
D52*
X0005722149Y0011030743D03*
X0005641834Y0011030743D03*
X0005561519Y0011030743D03*
X0005681992Y0010930743D03*
X0005601677Y0010930743D03*
X0005521362Y0010930743D03*
D53*
X0005872362Y0011343543D03*
D54*
X0005872362Y0011443543D03*
X0005772362Y0011343543D03*
X0005772362Y0011443543D03*
X0005672362Y0011343543D03*
X0005672362Y0011443543D03*
X0005572362Y0011343543D03*
X0005572362Y0011443543D03*
X0005472362Y0011343543D03*
X0005472362Y0011443543D03*
X0005372362Y0011343543D03*
X0005372362Y0011443543D03*
G04 next file*
G04 Gerber Fmt 4.6, Leading zero omitted, Abs format (unit mm)*
G04 Created by KiCad (PCBNEW 4.0.7) date 10/04/17 14:34:26*
G01G01*
G04 APERTURE LIST*
G04 APERTURE END LIST*
D55*
D56*
X0006968503Y0011653543D02*
X0006724118Y0010840192D03*
X0006251677Y0010840192D03*
D57*
X0006588291Y0011030743D03*
X0006507976Y0011030743D03*
X0006427661Y0011030743D03*
X0006548133Y0010930743D03*
X0006467818Y0010930743D03*
X0006387503Y0010930743D03*
D58*
X0006738503Y0011343543D03*
D59*
X0006738503Y0011443543D03*
X0006638503Y0011343543D03*
X0006638503Y0011443543D03*
X0006538503Y0011343543D03*
X0006538503Y0011443543D03*
X0006438503Y0011343543D03*
X0006438503Y0011443543D03*
X0006338503Y0011343543D03*
X0006338503Y0011443543D03*
X0006238503Y0011343543D03*
X0006238503Y0011443543D03*
G04 next file*
G04 Gerber Fmt 4.6, Leading zero omitted, Abs format (unit mm)*
G04 Created by KiCad (PCBNEW 4.0.7) date 10/04/17 14:34:26*
G01G01*
G04 APERTURE LIST*
G04 APERTURE END LIST*
D60*
D61*
X0007834645Y0011653543D02*
X0007590259Y0010840192D03*
X0007117818Y0010840192D03*
D62*
X0007454433Y0011030743D03*
X0007374118Y0011030743D03*
X0007293803Y0011030743D03*
X0007414275Y0010930743D03*
X0007333960Y0010930743D03*
X0007253645Y0010930743D03*
D63*
X0007604645Y0011343543D03*
D64*
X0007604645Y0011443543D03*
X0007504645Y0011343543D03*
X0007504645Y0011443543D03*
X0007404645Y0011343543D03*
X0007404645Y0011443543D03*
X0007304645Y0011343543D03*
X0007304645Y0011443543D03*
X0007204645Y0011343543D03*
X0007204645Y0011443543D03*
X0007104645Y0011343543D03*
X0007104645Y0011443543D03*
G04 next file*
G04 Gerber Fmt 4.6, Leading zero omitted, Abs format (unit mm)*
G04 Created by KiCad (PCBNEW 4.0.7) date 10/04/17 14:34:26*
G01G01*
G04 APERTURE LIST*
G04 APERTURE END LIST*
D65*
D66*
X0000944881Y0010551181D02*
X0000700496Y0009737829D03*
X0000228055Y0009737829D03*
D67*
X0000564669Y0009928381D03*
X0000484354Y0009928381D03*
X0000404039Y0009928381D03*
X0000524511Y0009828381D03*
X0000444196Y0009828381D03*
X0000363881Y0009828381D03*
D68*
X0000714881Y0010241181D03*
D69*
X0000714881Y0010341181D03*
X0000614881Y0010241181D03*
X0000614881Y0010341181D03*
X0000514881Y0010241181D03*
X0000514881Y0010341181D03*
X0000414881Y0010241181D03*
X0000414881Y0010341181D03*
X0000314881Y0010241181D03*
X0000314881Y0010341181D03*
X0000214881Y0010241181D03*
X0000214881Y0010341181D03*
G04 next file*
G04 Gerber Fmt 4.6, Leading zero omitted, Abs format (unit mm)*
G04 Created by KiCad (PCBNEW 4.0.7) date 10/04/17 14:34:26*
G01G01*
G04 APERTURE LIST*
G04 APERTURE END LIST*
D70*
D71*
X0001811023Y0010551181D02*
X0001566637Y0009737829D03*
X0001094196Y0009737829D03*
D72*
X0001430811Y0009928381D03*
X0001350496Y0009928381D03*
X0001270181Y0009928381D03*
X0001390653Y0009828381D03*
X0001310338Y0009828381D03*
X0001230023Y0009828381D03*
D73*
X0001581023Y0010241181D03*
D74*
X0001581023Y0010341181D03*
X0001481023Y0010241181D03*
X0001481023Y0010341181D03*
X0001381023Y0010241181D03*
X0001381023Y0010341181D03*
X0001281023Y0010241181D03*
X0001281023Y0010341181D03*
X0001181023Y0010241181D03*
X0001181023Y0010341181D03*
X0001081023Y0010241181D03*
X0001081023Y0010341181D03*
G04 next file*
G04 Gerber Fmt 4.6, Leading zero omitted, Abs format (unit mm)*
G04 Created by KiCad (PCBNEW 4.0.7) date 10/04/17 14:34:26*
G01G01*
G04 APERTURE LIST*
G04 APERTURE END LIST*
D75*
D76*
X0002677165Y0010551181D02*
X0002432779Y0009737829D03*
X0001960338Y0009737829D03*
D77*
X0002296952Y0009928381D03*
X0002216637Y0009928381D03*
X0002136322Y0009928381D03*
X0002256795Y0009828381D03*
X0002176480Y0009828381D03*
X0002096165Y0009828381D03*
D78*
X0002447165Y0010241181D03*
D79*
X0002447165Y0010341181D03*
X0002347165Y0010241181D03*
X0002347165Y0010341181D03*
X0002247165Y0010241181D03*
X0002247165Y0010341181D03*
X0002147165Y0010241181D03*
X0002147165Y0010341181D03*
X0002047165Y0010241181D03*
X0002047165Y0010341181D03*
X0001947165Y0010241181D03*
X0001947165Y0010341181D03*
G04 next file*
G04 Gerber Fmt 4.6, Leading zero omitted, Abs format (unit mm)*
G04 Created by KiCad (PCBNEW 4.0.7) date 10/04/17 14:34:26*
G01G01*
G04 APERTURE LIST*
G04 APERTURE END LIST*
D80*
D81*
X0003543307Y0010551181D02*
X0003298921Y0009737829D03*
X0002826480Y0009737829D03*
D82*
X0003163094Y0009928381D03*
X0003082779Y0009928381D03*
X0003002464Y0009928381D03*
X0003122937Y0009828381D03*
X0003042622Y0009828381D03*
X0002962307Y0009828381D03*
D83*
X0003313307Y0010241181D03*
D84*
X0003313307Y0010341181D03*
X0003213307Y0010241181D03*
X0003213307Y0010341181D03*
X0003113307Y0010241181D03*
X0003113307Y0010341181D03*
X0003013307Y0010241181D03*
X0003013307Y0010341181D03*
X0002913307Y0010241181D03*
X0002913307Y0010341181D03*
X0002813307Y0010241181D03*
X0002813307Y0010341181D03*
G04 next file*
G04 Gerber Fmt 4.6, Leading zero omitted, Abs format (unit mm)*
G04 Created by KiCad (PCBNEW 4.0.7) date 10/04/17 14:34:26*
G01G01*
G04 APERTURE LIST*
G04 APERTURE END LIST*
D85*
D86*
X0004370078Y0010551181D02*
X0004125692Y0009737829D03*
X0003653251Y0009737829D03*
D87*
X0003989866Y0009928381D03*
X0003909551Y0009928381D03*
X0003829236Y0009928381D03*
X0003949708Y0009828381D03*
X0003869393Y0009828381D03*
X0003789078Y0009828381D03*
D88*
X0004140078Y0010241181D03*
D89*
X0004140078Y0010341181D03*
X0004040078Y0010241181D03*
X0004040078Y0010341181D03*
X0003940078Y0010241181D03*
X0003940078Y0010341181D03*
X0003840078Y0010241181D03*
X0003840078Y0010341181D03*
X0003740078Y0010241181D03*
X0003740078Y0010341181D03*
X0003640078Y0010241181D03*
X0003640078Y0010341181D03*
G04 next file*
G04 Gerber Fmt 4.6, Leading zero omitted, Abs format (unit mm)*
G04 Created by KiCad (PCBNEW 4.0.7) date 10/04/17 14:34:26*
G01G01*
G04 APERTURE LIST*
G04 APERTURE END LIST*
D90*
D91*
X0005236220Y0010551181D02*
X0004991834Y0009737829D03*
X0004519393Y0009737829D03*
D92*
X0004856007Y0009928381D03*
X0004775692Y0009928381D03*
X0004695377Y0009928381D03*
X0004815850Y0009828381D03*
X0004735535Y0009828381D03*
X0004655220Y0009828381D03*
D93*
X0005006220Y0010241181D03*
D94*
X0005006220Y0010341181D03*
X0004906220Y0010241181D03*
X0004906220Y0010341181D03*
X0004806220Y0010241181D03*
X0004806220Y0010341181D03*
X0004706220Y0010241181D03*
X0004706220Y0010341181D03*
X0004606220Y0010241181D03*
X0004606220Y0010341181D03*
X0004506220Y0010241181D03*
X0004506220Y0010341181D03*
G04 next file*
G04 Gerber Fmt 4.6, Leading zero omitted, Abs format (unit mm)*
G04 Created by KiCad (PCBNEW 4.0.7) date 10/04/17 14:34:26*
G01G01*
G04 APERTURE LIST*
G04 APERTURE END LIST*
D95*
D96*
X0006102362Y0010551181D02*
X0005857976Y0009737829D03*
X0005385535Y0009737829D03*
D97*
X0005722149Y0009928381D03*
X0005641834Y0009928381D03*
X0005561519Y0009928381D03*
X0005681992Y0009828381D03*
X0005601677Y0009828381D03*
X0005521362Y0009828381D03*
D98*
X0005872362Y0010241181D03*
D99*
X0005872362Y0010341181D03*
X0005772362Y0010241181D03*
X0005772362Y0010341181D03*
X0005672362Y0010241181D03*
X0005672362Y0010341181D03*
X0005572362Y0010241181D03*
X0005572362Y0010341181D03*
X0005472362Y0010241181D03*
X0005472362Y0010341181D03*
X0005372362Y0010241181D03*
X0005372362Y0010341181D03*
G04 next file*
G04 Gerber Fmt 4.6, Leading zero omitted, Abs format (unit mm)*
G04 Created by KiCad (PCBNEW 4.0.7) date 10/04/17 14:34:26*
G01G01*
G04 APERTURE LIST*
G04 APERTURE END LIST*
D100*
D101*
X0006968503Y0010551181D02*
X0006724118Y0009737829D03*
X0006251677Y0009737829D03*
D102*
X0006588291Y0009928381D03*
X0006507976Y0009928381D03*
X0006427661Y0009928381D03*
X0006548133Y0009828381D03*
X0006467818Y0009828381D03*
X0006387503Y0009828381D03*
D103*
X0006738503Y0010241181D03*
D104*
X0006738503Y0010341181D03*
X0006638503Y0010241181D03*
X0006638503Y0010341181D03*
X0006538503Y0010241181D03*
X0006538503Y0010341181D03*
X0006438503Y0010241181D03*
X0006438503Y0010341181D03*
X0006338503Y0010241181D03*
X0006338503Y0010341181D03*
X0006238503Y0010241181D03*
X0006238503Y0010341181D03*
G04 next file*
G04 Gerber Fmt 4.6, Leading zero omitted, Abs format (unit mm)*
G04 Created by KiCad (PCBNEW 4.0.7) date 10/04/17 14:34:26*
G01G01*
G04 APERTURE LIST*
G04 APERTURE END LIST*
D105*
D106*
X0007834645Y0010551181D02*
X0007590259Y0009737829D03*
X0007117818Y0009737829D03*
D107*
X0007454433Y0009928381D03*
X0007374118Y0009928381D03*
X0007293803Y0009928381D03*
X0007414275Y0009828381D03*
X0007333960Y0009828381D03*
X0007253645Y0009828381D03*
D108*
X0007604645Y0010241181D03*
D109*
X0007604645Y0010341181D03*
X0007504645Y0010241181D03*
X0007504645Y0010341181D03*
X0007404645Y0010241181D03*
X0007404645Y0010341181D03*
X0007304645Y0010241181D03*
X0007304645Y0010341181D03*
X0007204645Y0010241181D03*
X0007204645Y0010341181D03*
X0007104645Y0010241181D03*
X0007104645Y0010341181D03*
M02*