%MOIN*%
%OFA0B0*%
%FSLAX44Y44*%
%IPPOS*%
%LPD*%
%ADD10C,0*%
D10*
X00077346Y00094511D02*
X00077346Y00094511D01*
X00077424Y00094517D01*
X00077500Y00094536D01*
X00077573Y00094566D01*
X00077640Y00094607D01*
X00077700Y00094658D01*
X00077750Y00094717D01*
X00077791Y00094784D01*
X00077821Y00094857D01*
X00077840Y00094933D01*
X00077846Y00095011D01*
X00077846Y00105011D01*
X00077840Y00105090D01*
X00077821Y00105166D01*
X00077791Y00105238D01*
X00077750Y00105305D01*
X00077700Y00105365D01*
X00077640Y00105416D01*
X00077573Y00105457D01*
X00077500Y00105487D01*
X00077424Y00105505D01*
X00077346Y00105511D01*
X00069846Y00105511D01*
X00069768Y00105505D01*
X00069691Y00105487D01*
X00069619Y00105457D01*
X00069552Y00105416D01*
X00069492Y00105365D01*
X00069441Y00105305D01*
X00069400Y00105238D01*
X00069370Y00105166D01*
X00069352Y00105090D01*
X00069346Y00105011D01*
X00069346Y00095011D01*
X00069352Y00094933D01*
X00069370Y00094857D01*
X00069400Y00094784D01*
X00069441Y00094717D01*
X00069492Y00094658D01*
X00069552Y00094607D01*
X00069619Y00094566D01*
X00069691Y00094536D01*
X00069768Y00094517D01*
X00069846Y00094511D01*
X00077346Y00094511D01*
X00068685Y00094511D02*
X00068685Y00094511D01*
X00068763Y00094517D01*
X00068839Y00094536D01*
X00068912Y00094566D01*
X00068978Y00094607D01*
X00069038Y00094658D01*
X00069089Y00094717D01*
X00069130Y00094784D01*
X00069160Y00094857D01*
X00069178Y00094933D01*
X00069185Y00095011D01*
X00069185Y00105011D01*
X00069178Y00105090D01*
X00069160Y00105166D01*
X00069130Y00105238D01*
X00069089Y00105305D01*
X00069038Y00105365D01*
X00068978Y00105416D01*
X00068912Y00105457D01*
X00068839Y00105487D01*
X00068763Y00105505D01*
X00068685Y00105511D01*
X00061185Y00105511D01*
X00061106Y00105505D01*
X00061030Y00105487D01*
X00060958Y00105457D01*
X00060891Y00105416D01*
X00060831Y00105365D01*
X00060780Y00105305D01*
X00060739Y00105238D01*
X00060709Y00105166D01*
X00060691Y00105090D01*
X00060685Y00105011D01*
X00060685Y00095011D01*
X00060691Y00094933D01*
X00060709Y00094857D01*
X00060739Y00094784D01*
X00060780Y00094717D01*
X00060831Y00094658D01*
X00060891Y00094607D01*
X00060958Y00094566D01*
X00061030Y00094536D01*
X00061106Y00094517D01*
X00061185Y00094511D01*
X00068685Y00094511D01*
X00060023Y00094511D02*
X00060023Y00094511D01*
X00060101Y00094517D01*
X00060178Y00094536D01*
X00060250Y00094566D01*
X00060317Y00094607D01*
X00060377Y00094658D01*
X00060428Y00094717D01*
X00060469Y00094784D01*
X00060499Y00094857D01*
X00060517Y00094933D01*
X00060523Y00095011D01*
X00060523Y00105011D01*
X00060517Y00105090D01*
X00060499Y00105166D01*
X00060469Y00105238D01*
X00060428Y00105305D01*
X00060377Y00105365D01*
X00060317Y00105416D01*
X00060250Y00105457D01*
X00060178Y00105487D01*
X00060101Y00105505D01*
X00060023Y00105511D01*
X00052523Y00105511D01*
X00052445Y00105505D01*
X00052369Y00105487D01*
X00052296Y00105457D01*
X00052229Y00105416D01*
X00052170Y00105365D01*
X00052119Y00105305D01*
X00052078Y00105238D01*
X00052048Y00105166D01*
X00052029Y00105090D01*
X00052023Y00105011D01*
X00052023Y00095011D01*
X00052029Y00094933D01*
X00052048Y00094857D01*
X00052078Y00094784D01*
X00052119Y00094717D01*
X00052170Y00094658D01*
X00052229Y00094607D01*
X00052296Y00094566D01*
X00052369Y00094536D01*
X00052445Y00094517D01*
X00052523Y00094511D01*
X00060023Y00094511D01*
X00051362Y00094511D02*
X00051362Y00094511D01*
X00051440Y00094517D01*
X00051516Y00094536D01*
X00051589Y00094566D01*
X00051656Y00094607D01*
X00051715Y00094658D01*
X00051766Y00094717D01*
X00051807Y00094784D01*
X00051837Y00094857D01*
X00051856Y00094933D01*
X00051862Y00095011D01*
X00051862Y00105011D01*
X00051856Y00105090D01*
X00051837Y00105166D01*
X00051807Y00105238D01*
X00051766Y00105305D01*
X00051715Y00105365D01*
X00051656Y00105416D01*
X00051589Y00105457D01*
X00051516Y00105487D01*
X00051440Y00105505D01*
X00051362Y00105511D01*
X00043862Y00105511D01*
X00043783Y00105505D01*
X00043707Y00105487D01*
X00043635Y00105457D01*
X00043568Y00105416D01*
X00043508Y00105365D01*
X00043457Y00105305D01*
X00043416Y00105238D01*
X00043386Y00105166D01*
X00043368Y00105090D01*
X00043362Y00105011D01*
X00043362Y00095011D01*
X00043368Y00094933D01*
X00043386Y00094857D01*
X00043416Y00094784D01*
X00043457Y00094717D01*
X00043508Y00094658D01*
X00043568Y00094607D01*
X00043635Y00094566D01*
X00043707Y00094536D01*
X00043783Y00094517D01*
X00043862Y00094511D01*
X00051362Y00094511D01*
X00042700Y00094511D02*
X00042700Y00094511D01*
X00042779Y00094517D01*
X00042855Y00094536D01*
X00042927Y00094566D01*
X00042994Y00094607D01*
X00043054Y00094658D01*
X00043105Y00094717D01*
X00043146Y00094784D01*
X00043176Y00094857D01*
X00043194Y00094933D01*
X00043200Y00095011D01*
X00043200Y00105011D01*
X00043194Y00105090D01*
X00043176Y00105166D01*
X00043146Y00105238D01*
X00043105Y00105305D01*
X00043054Y00105365D01*
X00042994Y00105416D01*
X00042927Y00105457D01*
X00042855Y00105487D01*
X00042779Y00105505D01*
X00042700Y00105511D01*
X00035200Y00105511D01*
X00035122Y00105505D01*
X00035046Y00105487D01*
X00034973Y00105457D01*
X00034906Y00105416D01*
X00034847Y00105365D01*
X00034796Y00105305D01*
X00034755Y00105238D01*
X00034725Y00105166D01*
X00034706Y00105090D01*
X00034700Y00105011D01*
X00034700Y00095011D01*
X00034706Y00094933D01*
X00034725Y00094857D01*
X00034755Y00094784D01*
X00034796Y00094717D01*
X00034847Y00094658D01*
X00034906Y00094607D01*
X00034973Y00094566D01*
X00035046Y00094536D01*
X00035122Y00094517D01*
X00035200Y00094511D01*
X00042700Y00094511D01*
X00034433Y00094511D02*
X00034433Y00094511D01*
X00034511Y00094517D01*
X00034587Y00094536D01*
X00034660Y00094566D01*
X00034726Y00094607D01*
X00034786Y00094658D01*
X00034837Y00094717D01*
X00034878Y00094784D01*
X00034908Y00094857D01*
X00034926Y00094933D01*
X00034933Y00095011D01*
X00034933Y00105011D01*
X00034926Y00105090D01*
X00034908Y00105166D01*
X00034878Y00105238D01*
X00034837Y00105305D01*
X00034786Y00105365D01*
X00034726Y00105416D01*
X00034660Y00105457D01*
X00034587Y00105487D01*
X00034511Y00105505D01*
X00034433Y00105511D01*
X00026933Y00105511D01*
X00026854Y00105505D01*
X00026778Y00105487D01*
X00026706Y00105457D01*
X00026639Y00105416D01*
X00026579Y00105365D01*
X00026528Y00105305D01*
X00026487Y00105238D01*
X00026457Y00105166D01*
X00026439Y00105090D01*
X00026433Y00105011D01*
X00026433Y00095011D01*
X00026439Y00094933D01*
X00026457Y00094857D01*
X00026487Y00094784D01*
X00026528Y00094717D01*
X00026579Y00094658D01*
X00026639Y00094607D01*
X00026706Y00094566D01*
X00026778Y00094536D01*
X00026854Y00094517D01*
X00026933Y00094511D01*
X00034433Y00094511D01*
X00025771Y00094511D02*
X00025771Y00094511D01*
X00025849Y00094517D01*
X00025926Y00094536D01*
X00025998Y00094566D01*
X00026065Y00094607D01*
X00026125Y00094658D01*
X00026176Y00094717D01*
X00026217Y00094784D01*
X00026247Y00094857D01*
X00026265Y00094933D01*
X00026271Y00095011D01*
X00026271Y00105011D01*
X00026265Y00105090D01*
X00026247Y00105166D01*
X00026217Y00105238D01*
X00026176Y00105305D01*
X00026125Y00105365D01*
X00026065Y00105416D01*
X00025998Y00105457D01*
X00025926Y00105487D01*
X00025849Y00105505D01*
X00025771Y00105511D01*
X00018271Y00105511D01*
X00018193Y00105505D01*
X00018117Y00105487D01*
X00018044Y00105457D01*
X00017977Y00105416D01*
X00017918Y00105365D01*
X00017867Y00105305D01*
X00017826Y00105238D01*
X00017796Y00105166D01*
X00017777Y00105090D01*
X00017771Y00105011D01*
X00017771Y00095011D01*
X00017777Y00094933D01*
X00017796Y00094857D01*
X00017826Y00094784D01*
X00017867Y00094717D01*
X00017918Y00094658D01*
X00017977Y00094607D01*
X00018044Y00094566D01*
X00018117Y00094536D01*
X00018193Y00094517D01*
X00018271Y00094511D01*
X00025771Y00094511D01*
X00017110Y00094511D02*
X00017110Y00094511D01*
X00017188Y00094517D01*
X00017264Y00094536D01*
X00017337Y00094566D01*
X00017404Y00094607D01*
X00017463Y00094658D01*
X00017514Y00094717D01*
X00017555Y00094784D01*
X00017585Y00094857D01*
X00017604Y00094933D01*
X00017610Y00095011D01*
X00017610Y00105011D01*
X00017604Y00105090D01*
X00017585Y00105166D01*
X00017555Y00105238D01*
X00017514Y00105305D01*
X00017463Y00105365D01*
X00017404Y00105416D01*
X00017337Y00105457D01*
X00017264Y00105487D01*
X00017188Y00105505D01*
X00017110Y00105511D01*
X00009610Y00105511D01*
X00009532Y00105505D01*
X00009455Y00105487D01*
X00009383Y00105457D01*
X00009316Y00105416D01*
X00009256Y00105365D01*
X00009205Y00105305D01*
X00009164Y00105238D01*
X00009134Y00105166D01*
X00009116Y00105090D01*
X00009110Y00105011D01*
X00009110Y00095011D01*
X00009116Y00094933D01*
X00009134Y00094857D01*
X00009164Y00094784D01*
X00009205Y00094717D01*
X00009256Y00094658D01*
X00009316Y00094607D01*
X00009383Y00094566D01*
X00009455Y00094536D01*
X00009532Y00094517D01*
X00009610Y00094511D01*
X00017110Y00094511D01*
X00008448Y00094511D02*
X00008448Y00094511D01*
X00008527Y00094517D01*
X00008603Y00094536D01*
X00008675Y00094566D01*
X00008742Y00094607D01*
X00008802Y00094658D01*
X00008853Y00094717D01*
X00008894Y00094784D01*
X00008924Y00094857D01*
X00008942Y00094933D01*
X00008948Y00095011D01*
X00008948Y00105011D01*
X00008942Y00105090D01*
X00008924Y00105166D01*
X00008894Y00105238D01*
X00008853Y00105305D01*
X00008802Y00105365D01*
X00008742Y00105416D01*
X00008675Y00105457D01*
X00008603Y00105487D01*
X00008527Y00105505D01*
X00008448Y00105511D01*
X00000948Y00105511D01*
X00000870Y00105505D01*
X00000794Y00105487D01*
X00000721Y00105457D01*
X00000654Y00105416D01*
X00000595Y00105365D01*
X00000544Y00105305D01*
X00000503Y00105238D01*
X00000473Y00105166D01*
X00000454Y00105090D01*
X00000448Y00105011D01*
X00000448Y00095011D01*
X00000454Y00094933D01*
X00000473Y00094857D01*
X00000503Y00094784D01*
X00000544Y00094717D01*
X00000595Y00094658D01*
X00000654Y00094607D01*
X00000721Y00094566D01*
X00000794Y00094536D01*
X00000870Y00094517D01*
X00000948Y00094511D01*
X00008448Y00094511D01*
X00077346Y00105535D02*
X00077346Y00105535D01*
X00077424Y00105541D01*
X00077500Y00105559D01*
X00077573Y00105589D01*
X00077640Y00105630D01*
X00077700Y00105681D01*
X00077750Y00105741D01*
X00077791Y00105808D01*
X00077821Y00105880D01*
X00077840Y00105957D01*
X00077846Y00106035D01*
X00077846Y00116035D01*
X00077840Y00116113D01*
X00077821Y00116189D01*
X00077791Y00116262D01*
X00077750Y00116329D01*
X00077700Y00116388D01*
X00077640Y00116439D01*
X00077573Y00116480D01*
X00077500Y00116510D01*
X00077424Y00116529D01*
X00077346Y00116535D01*
X00069846Y00116535D01*
X00069768Y00116529D01*
X00069691Y00116510D01*
X00069619Y00116480D01*
X00069552Y00116439D01*
X00069492Y00116388D01*
X00069441Y00116329D01*
X00069400Y00116262D01*
X00069370Y00116189D01*
X00069352Y00116113D01*
X00069346Y00116035D01*
X00069346Y00106035D01*
X00069352Y00105957D01*
X00069370Y00105880D01*
X00069400Y00105808D01*
X00069441Y00105741D01*
X00069492Y00105681D01*
X00069552Y00105630D01*
X00069619Y00105589D01*
X00069691Y00105559D01*
X00069768Y00105541D01*
X00069846Y00105535D01*
X00077346Y00105535D01*
X00068685Y00105535D02*
X00068685Y00105535D01*
X00068763Y00105541D01*
X00068839Y00105559D01*
X00068912Y00105589D01*
X00068978Y00105630D01*
X00069038Y00105681D01*
X00069089Y00105741D01*
X00069130Y00105808D01*
X00069160Y00105880D01*
X00069178Y00105957D01*
X00069185Y00106035D01*
X00069185Y00116035D01*
X00069178Y00116113D01*
X00069160Y00116189D01*
X00069130Y00116262D01*
X00069089Y00116329D01*
X00069038Y00116388D01*
X00068978Y00116439D01*
X00068912Y00116480D01*
X00068839Y00116510D01*
X00068763Y00116529D01*
X00068685Y00116535D01*
X00061185Y00116535D01*
X00061106Y00116529D01*
X00061030Y00116510D01*
X00060958Y00116480D01*
X00060891Y00116439D01*
X00060831Y00116388D01*
X00060780Y00116329D01*
X00060739Y00116262D01*
X00060709Y00116189D01*
X00060691Y00116113D01*
X00060685Y00116035D01*
X00060685Y00106035D01*
X00060691Y00105957D01*
X00060709Y00105880D01*
X00060739Y00105808D01*
X00060780Y00105741D01*
X00060831Y00105681D01*
X00060891Y00105630D01*
X00060958Y00105589D01*
X00061030Y00105559D01*
X00061106Y00105541D01*
X00061185Y00105535D01*
X00068685Y00105535D01*
X00060023Y00105535D02*
X00060023Y00105535D01*
X00060101Y00105541D01*
X00060178Y00105559D01*
X00060250Y00105589D01*
X00060317Y00105630D01*
X00060377Y00105681D01*
X00060428Y00105741D01*
X00060469Y00105808D01*
X00060499Y00105880D01*
X00060517Y00105957D01*
X00060523Y00106035D01*
X00060523Y00116035D01*
X00060517Y00116113D01*
X00060499Y00116189D01*
X00060469Y00116262D01*
X00060428Y00116329D01*
X00060377Y00116388D01*
X00060317Y00116439D01*
X00060250Y00116480D01*
X00060178Y00116510D01*
X00060101Y00116529D01*
X00060023Y00116535D01*
X00052523Y00116535D01*
X00052445Y00116529D01*
X00052369Y00116510D01*
X00052296Y00116480D01*
X00052229Y00116439D01*
X00052170Y00116388D01*
X00052119Y00116329D01*
X00052078Y00116262D01*
X00052048Y00116189D01*
X00052029Y00116113D01*
X00052023Y00116035D01*
X00052023Y00106035D01*
X00052029Y00105957D01*
X00052048Y00105880D01*
X00052078Y00105808D01*
X00052119Y00105741D01*
X00052170Y00105681D01*
X00052229Y00105630D01*
X00052296Y00105589D01*
X00052369Y00105559D01*
X00052445Y00105541D01*
X00052523Y00105535D01*
X00060023Y00105535D01*
X00051362Y00105535D02*
X00051362Y00105535D01*
X00051440Y00105541D01*
X00051516Y00105559D01*
X00051589Y00105589D01*
X00051656Y00105630D01*
X00051715Y00105681D01*
X00051766Y00105741D01*
X00051807Y00105808D01*
X00051837Y00105880D01*
X00051856Y00105957D01*
X00051862Y00106035D01*
X00051862Y00116035D01*
X00051856Y00116113D01*
X00051837Y00116189D01*
X00051807Y00116262D01*
X00051766Y00116329D01*
X00051715Y00116388D01*
X00051656Y00116439D01*
X00051589Y00116480D01*
X00051516Y00116510D01*
X00051440Y00116529D01*
X00051362Y00116535D01*
X00043862Y00116535D01*
X00043783Y00116529D01*
X00043707Y00116510D01*
X00043635Y00116480D01*
X00043568Y00116439D01*
X00043508Y00116388D01*
X00043457Y00116329D01*
X00043416Y00116262D01*
X00043386Y00116189D01*
X00043368Y00116113D01*
X00043362Y00116035D01*
X00043362Y00106035D01*
X00043368Y00105957D01*
X00043386Y00105880D01*
X00043416Y00105808D01*
X00043457Y00105741D01*
X00043508Y00105681D01*
X00043568Y00105630D01*
X00043635Y00105589D01*
X00043707Y00105559D01*
X00043783Y00105541D01*
X00043862Y00105535D01*
X00051362Y00105535D01*
X00042700Y00105535D02*
X00042700Y00105535D01*
X00042779Y00105541D01*
X00042855Y00105559D01*
X00042927Y00105589D01*
X00042994Y00105630D01*
X00043054Y00105681D01*
X00043105Y00105741D01*
X00043146Y00105808D01*
X00043176Y00105880D01*
X00043194Y00105957D01*
X00043200Y00106035D01*
X00043200Y00116035D01*
X00043194Y00116113D01*
X00043176Y00116189D01*
X00043146Y00116262D01*
X00043105Y00116329D01*
X00043054Y00116388D01*
X00042994Y00116439D01*
X00042927Y00116480D01*
X00042855Y00116510D01*
X00042779Y00116529D01*
X00042700Y00116535D01*
X00035200Y00116535D01*
X00035122Y00116529D01*
X00035046Y00116510D01*
X00034973Y00116480D01*
X00034906Y00116439D01*
X00034847Y00116388D01*
X00034796Y00116329D01*
X00034755Y00116262D01*
X00034725Y00116189D01*
X00034706Y00116113D01*
X00034700Y00116035D01*
X00034700Y00106035D01*
X00034706Y00105957D01*
X00034725Y00105880D01*
X00034755Y00105808D01*
X00034796Y00105741D01*
X00034847Y00105681D01*
X00034906Y00105630D01*
X00034973Y00105589D01*
X00035046Y00105559D01*
X00035122Y00105541D01*
X00035200Y00105535D01*
X00042700Y00105535D01*
X00034433Y00105535D02*
X00034433Y00105535D01*
X00034511Y00105541D01*
X00034587Y00105559D01*
X00034660Y00105589D01*
X00034726Y00105630D01*
X00034786Y00105681D01*
X00034837Y00105741D01*
X00034878Y00105808D01*
X00034908Y00105880D01*
X00034926Y00105957D01*
X00034933Y00106035D01*
X00034933Y00116035D01*
X00034926Y00116113D01*
X00034908Y00116189D01*
X00034878Y00116262D01*
X00034837Y00116329D01*
X00034786Y00116388D01*
X00034726Y00116439D01*
X00034660Y00116480D01*
X00034587Y00116510D01*
X00034511Y00116529D01*
X00034433Y00116535D01*
X00026933Y00116535D01*
X00026854Y00116529D01*
X00026778Y00116510D01*
X00026706Y00116480D01*
X00026639Y00116439D01*
X00026579Y00116388D01*
X00026528Y00116329D01*
X00026487Y00116262D01*
X00026457Y00116189D01*
X00026439Y00116113D01*
X00026433Y00116035D01*
X00026433Y00106035D01*
X00026439Y00105957D01*
X00026457Y00105880D01*
X00026487Y00105808D01*
X00026528Y00105741D01*
X00026579Y00105681D01*
X00026639Y00105630D01*
X00026706Y00105589D01*
X00026778Y00105559D01*
X00026854Y00105541D01*
X00026933Y00105535D01*
X00034433Y00105535D01*
X00025771Y00105535D02*
X00025771Y00105535D01*
X00025849Y00105541D01*
X00025926Y00105559D01*
X00025998Y00105589D01*
X00026065Y00105630D01*
X00026125Y00105681D01*
X00026176Y00105741D01*
X00026217Y00105808D01*
X00026247Y00105880D01*
X00026265Y00105957D01*
X00026271Y00106035D01*
X00026271Y00116035D01*
X00026265Y00116113D01*
X00026247Y00116189D01*
X00026217Y00116262D01*
X00026176Y00116329D01*
X00026125Y00116388D01*
X00026065Y00116439D01*
X00025998Y00116480D01*
X00025926Y00116510D01*
X00025849Y00116529D01*
X00025771Y00116535D01*
X00018271Y00116535D01*
X00018193Y00116529D01*
X00018117Y00116510D01*
X00018044Y00116480D01*
X00017977Y00116439D01*
X00017918Y00116388D01*
X00017867Y00116329D01*
X00017826Y00116262D01*
X00017796Y00116189D01*
X00017777Y00116113D01*
X00017771Y00116035D01*
X00017771Y00106035D01*
X00017777Y00105957D01*
X00017796Y00105880D01*
X00017826Y00105808D01*
X00017867Y00105741D01*
X00017918Y00105681D01*
X00017977Y00105630D01*
X00018044Y00105589D01*
X00018117Y00105559D01*
X00018193Y00105541D01*
X00018271Y00105535D01*
X00025771Y00105535D01*
X00017110Y00105535D02*
X00017110Y00105535D01*
X00017188Y00105541D01*
X00017264Y00105559D01*
X00017337Y00105589D01*
X00017404Y00105630D01*
X00017463Y00105681D01*
X00017514Y00105741D01*
X00017555Y00105808D01*
X00017585Y00105880D01*
X00017604Y00105957D01*
X00017610Y00106035D01*
X00017610Y00116035D01*
X00017604Y00116113D01*
X00017585Y00116189D01*
X00017555Y00116262D01*
X00017514Y00116329D01*
X00017463Y00116388D01*
X00017404Y00116439D01*
X00017337Y00116480D01*
X00017264Y00116510D01*
X00017188Y00116529D01*
X00017110Y00116535D01*
X00009610Y00116535D01*
X00009532Y00116529D01*
X00009455Y00116510D01*
X00009383Y00116480D01*
X00009316Y00116439D01*
X00009256Y00116388D01*
X00009205Y00116329D01*
X00009164Y00116262D01*
X00009134Y00116189D01*
X00009116Y00116113D01*
X00009110Y00116035D01*
X00009110Y00106035D01*
X00009116Y00105957D01*
X00009134Y00105880D01*
X00009164Y00105808D01*
X00009205Y00105741D01*
X00009256Y00105681D01*
X00009316Y00105630D01*
X00009383Y00105589D01*
X00009455Y00105559D01*
X00009532Y00105541D01*
X00009610Y00105535D01*
X00017110Y00105535D01*
X00008448Y00105535D02*
X00008448Y00105535D01*
X00008527Y00105541D01*
X00008603Y00105559D01*
X00008675Y00105589D01*
X00008742Y00105630D01*
X00008802Y00105681D01*
X00008853Y00105741D01*
X00008894Y00105808D01*
X00008924Y00105880D01*
X00008942Y00105957D01*
X00008948Y00106035D01*
X00008948Y00116035D01*
X00008942Y00116113D01*
X00008924Y00116189D01*
X00008894Y00116262D01*
X00008853Y00116329D01*
X00008802Y00116388D01*
X00008742Y00116439D01*
X00008675Y00116480D01*
X00008603Y00116510D01*
X00008527Y00116529D01*
X00008448Y00116535D01*
X00000948Y00116535D01*
X00000870Y00116529D01*
X00000794Y00116510D01*
X00000721Y00116480D01*
X00000654Y00116439D01*
X00000595Y00116388D01*
X00000544Y00116329D01*
X00000503Y00116262D01*
X00000473Y00116189D01*
X00000454Y00116113D01*
X00000448Y00116035D01*
X00000448Y00106035D01*
X00000454Y00105957D01*
X00000473Y00105880D01*
X00000503Y00105808D01*
X00000544Y00105741D01*
X00000595Y00105681D01*
X00000654Y00105630D01*
X00000721Y00105589D01*
X00000794Y00105559D01*
X00000870Y00105541D01*
X00000948Y00105535D01*
X00008448Y00105535D01*
M02*