%
M48
METRIC,000.000
T01C0.50
T02C1.00
T03C0.50
%
T01
X009243Y277641
X010263Y280181
X011283Y277641
X012303Y280181
X013323Y277641
X014343Y280181
X031243Y277641
X032262Y280181
X033283Y277641
X034303Y280181
X035323Y277641
X036343Y280181
X027793Y275341
X039793Y275341
X053243Y277641
X054263Y280181
X055283Y277641
X056303Y280181
X057323Y277641
X058343Y280181
X049793Y275341
X061793Y275341
X075243Y277641
X076263Y280181
X077283Y277641
X078303Y280181
X079323Y277641
X080343Y280181
X071793Y275341
X083793Y275341
X096243Y277641
X097263Y280181
X098283Y277641
X099303Y280181
X100323Y277641
X101343Y280181
X092793Y275341
X104793Y275341
X118243Y277641
X119263Y280181
X120283Y277641
X121303Y280181
X122323Y277641
X123343Y280181
X114793Y275341
X126793Y275341
X140243Y277641
X141263Y280181
X142283Y277641
X143303Y280181
X144323Y277641
X145343Y280181
X136793Y275341
X148793Y275341
X162243Y277641
X163263Y280181
X164283Y277641
X165303Y280181
X166323Y277641
X167343Y280181
X158793Y275341
X170793Y275341
X184243Y277641
X185263Y280181
X186283Y277641
X187303Y280181
X188323Y277641
X189343Y280181
X180793Y275341
X192793Y275341
X009243Y249641
X010263Y252181
X011283Y249641
X012303Y252181
X013323Y249641
X014343Y252181
X005792Y247341
X017793Y247341
X031243Y249641
X032262Y252181
X033283Y249641
X034303Y252181
X035323Y249641
X036343Y252181
X027793Y247341
X039793Y247341
X053243Y249641
X054263Y252181
X055283Y249641
X056303Y252181
X057323Y249641
X058343Y252181
X049793Y247341
X061793Y247341
X075243Y249641
X076263Y252181
X077283Y249641
X078303Y252181
X079323Y249641
X080343Y252181
X071793Y247341
X083793Y247341
X096243Y249641
X097263Y252181
X098283Y249641
X099303Y252181
X100323Y249641
X101343Y252181
X092793Y247341
X104793Y247341
X118243Y249641
X119263Y252181
X120283Y249641
X121303Y252181
X122323Y249641
X123343Y252181
X114793Y247341
X126793Y247341
X140243Y249641
X141263Y252181
X142283Y249641
X143303Y252181
X144323Y249641
X145343Y252181
X136793Y247341
X148793Y247341
X162243Y249641
X163263Y252181
X164283Y249641
X165303Y252181
X166323Y249641
X167343Y252181
X158793Y247341
X170793Y247341
X184243Y249641
X185263Y252181
X186283Y249641
X187303Y252181
X188323Y249641
X189343Y252181
X180793Y247341
X192793Y247341
T02
X005457Y290666
X005457Y288126
X007998Y290666
X007998Y288126
X010538Y290666
X010538Y288126
X013078Y290666
X013078Y288126
X015618Y290666
X015618Y288126
X018158Y290666
X018158Y288126
X027458Y290666
X027458Y288126
X029998Y290666
X029998Y288126
X032537Y290666
X032537Y288126
X035078Y290666
X035078Y288126
X037618Y290666
X037618Y288126
X040158Y290666
X040158Y288126
X049458Y290666
X049458Y288126
X051998Y290666
X051998Y288126
X054538Y290666
X054538Y288126
X057078Y290666
X057078Y288126
X059618Y290666
X059618Y288126
X062158Y290666
X062158Y288126
X071458Y290666
X071458Y288126
X073998Y290666
X073998Y288126
X076538Y290666
X076538Y288126
X079078Y290666
X079078Y288126
X081618Y290666
X081618Y288126
X084158Y290666
X084158Y288126
X092458Y290666
X092458Y288126
X094998Y290666
X094998Y288126
X097538Y290666
X097538Y288126
X100078Y290666
X100078Y288126
X102618Y290666
X102618Y288126
X105158Y290666
X105158Y288126
X114458Y290666
X114458Y288126
X116998Y290666
X116998Y288126
X119538Y290666
X119538Y288126
X122078Y290666
X122078Y288126
X124618Y290666
X124618Y288126
X127158Y290666
X127158Y288126
X136458Y290666
X136458Y288126
X138998Y290666
X138998Y288126
X141538Y290666
X141538Y288126
X144078Y290666
X144078Y288126
X146618Y290666
X146618Y288126
X149158Y290666
X149158Y288126
X158458Y290666
X158458Y288126
X160998Y290666
X160998Y288126
X163538Y290666
X163538Y288126
X166078Y290666
X166078Y288126
X168618Y290666
X168618Y288126
X171158Y290666
X171158Y288126
X180458Y290666
X180458Y288126
X182998Y290666
X182998Y288126
X185538Y290666
X185538Y288126
X188078Y290666
X188078Y288126
X190618Y290666
X190618Y288126
X193158Y290666
X193158Y288126
X005457Y262666
X005457Y260125
X007998Y262666
X007998Y260125
X010538Y262666
X010538Y260125
X013078Y262666
X013078Y260125
X015618Y262666
X015618Y260125
X018158Y262666
X018158Y260125
X027458Y262666
X027458Y260125
X029998Y262666
X029998Y260125
X032537Y262666
X032537Y260125
X035078Y262666
X035078Y260125
X037618Y262666
X037618Y260125
X040158Y262666
X040158Y260125
X049458Y262666
X049458Y260125
X051998Y262666
X051998Y260125
X054538Y262666
X054538Y260125
X057078Y262666
X057078Y260125
X059618Y262666
X059618Y260125
X062158Y262666
X062158Y260125
X071458Y262666
X071458Y260125
X073998Y262666
X073998Y260125
X076538Y262666
X076538Y260125
X079078Y262666
X079078Y260125
X081618Y262666
X081618Y260125
X084158Y262666
X084158Y260125
X092458Y262666
X092458Y260125
X094998Y262666
X094998Y260125
X097538Y262666
X097538Y260125
X100078Y262666
X100078Y260125
X102618Y262666
X102618Y260125
X105158Y262666
X105158Y260125
X114458Y262666
X114458Y260125
X116998Y262666
X116998Y260125
X119538Y262666
X119538Y260125
X122078Y262666
X122078Y260125
X124618Y262666
X124618Y260125
X127158Y262666
X127158Y260125
X136458Y262666
X136458Y260125
X138998Y262666
X138998Y260125
X141538Y262666
X141538Y260125
X144078Y262666
X144078Y260125
X146618Y262666
X146618Y260125
X149158Y262666
X149158Y260125
X158458Y262666
X158458Y260125
X160998Y262666
X160998Y260125
X163538Y262666
X163538Y260125
X166078Y262666
X166078Y260125
X168618Y262666
X168618Y260125
X171158Y262666
X171158Y260125
X180458Y262666
X180458Y260125
X182998Y262666
X182998Y260125
X185538Y262666
X185538Y260125
X188078Y262666
X188078Y260125
X190618Y262666
X190618Y260125
X193158Y262666
X193158Y260125
T03
X005792Y275341
X017793Y275341
M30