M48
;DRILL file {KiCad 4.0.7} date 09/30/17 17:15:13
;FORMAT={-:-/ absolute / metric / decimal}
FMAT,2
METRIC,TZ
T1C0.500
T2C1.000
T3C0.500
%
G90
G05
M71
T1
X8.103Y-19.629
X9.123Y-17.089
X10.143Y-19.629
X11.163Y-17.089
X12.183Y-19.629
X13.203Y-17.089
T2
X4.318Y-6.604
X4.318Y-9.144
X6.858Y-6.604
X6.858Y-9.144
X9.398Y-6.604
X9.398Y-9.144
X11.938Y-6.604
X11.938Y-9.144
X14.478Y-6.604
X14.478Y-9.144
X17.018Y-6.604
X17.018Y-9.144
T3
X4.653Y-21.929
X16.653Y-21.929
T0
M30
