%TF.GenerationSoftware,KiCad,Pcbnew,4.0.7*%
%TF.CreationDate,2017-10-02T13:41:12+08:00*%
%TF.ProjectId,RJ12(PCB-maker),524A3132285043422D6D616B6572292E,rev?*%
%TF.FileFunction,Legend,Top*%
%FSLAX46Y46*%
G04 Gerber Fmt 4.6, Leading zero omitted, Abs format (unit mm)*
G04 Created by KiCad (PCBNEW 4.0.7) date 10/02/17 13:41:12*
%MOMM*%
%LPD*%
G01*
G04 APERTURE LIST*
%ADD10C,0.100000*%
%ADD11C,0.125000*%
%ADD12C,0.250000*%
%ADD13C,0.150000*%
G04 APERTURE END LIST*
D10*
D11*
X-18263810Y-11109047D02*
X-18763810Y-11109047D01*
X-18406667Y-10942381D01*
X-18763810Y-10775714D01*
X-18263810Y-10775714D01*
X-18311429Y-10251904D02*
X-18287619Y-10275714D01*
X-18263810Y-10347142D01*
X-18263810Y-10394761D01*
X-18287619Y-10466190D01*
X-18335238Y-10513809D01*
X-18382857Y-10537618D01*
X-18478095Y-10561428D01*
X-18549524Y-10561428D01*
X-18644762Y-10537618D01*
X-18692381Y-10513809D01*
X-18740000Y-10466190D01*
X-18763810Y-10394761D01*
X-18763810Y-10347142D01*
X-18740000Y-10275714D01*
X-18716190Y-10251904D01*
X-18263810Y-9799523D02*
X-18263810Y-10037618D01*
X-18763810Y-10037618D01*
X-18263810Y-9347142D02*
X-18501905Y-9513809D01*
X-18263810Y-9632856D02*
X-18763810Y-9632856D01*
X-18763810Y-9442380D01*
X-18740000Y-9394761D01*
X-18716190Y-9370952D01*
X-18668571Y-9347142D01*
X-18597143Y-9347142D01*
X-18549524Y-9370952D01*
X-18525714Y-9394761D01*
X-18501905Y-9442380D01*
X-18501905Y-9632856D01*
X-16233810Y-10606666D02*
X-15733810Y-10439999D01*
X-16233810Y-10273333D01*
X-15733810Y-10106666D02*
X-16233810Y-10106666D01*
X-16233810Y-9987619D01*
X-16210000Y-9916190D01*
X-16162381Y-9868571D01*
X-16114762Y-9844762D01*
X-16019524Y-9820952D01*
X-15948095Y-9820952D01*
X-15852857Y-9844762D01*
X-15805238Y-9868571D01*
X-15757619Y-9916190D01*
X-15733810Y-9987619D01*
X-15733810Y-10106666D01*
X-15733810Y-9606666D02*
X-16233810Y-9606666D01*
X-16233810Y-9487619D01*
X-16210000Y-9416190D01*
X-16162381Y-9368571D01*
X-16114762Y-9344762D01*
X-16019524Y-9320952D01*
X-15948095Y-9320952D01*
X-15852857Y-9344762D01*
X-15805238Y-9368571D01*
X-15757619Y-9416190D01*
X-15733810Y-9487619D01*
X-15733810Y-9606666D01*
X-13660000Y-10410953D02*
X-13683810Y-10458572D01*
X-13683810Y-10530000D01*
X-13660000Y-10601429D01*
X-13612381Y-10649048D01*
X-13564762Y-10672857D01*
X-13469524Y-10696667D01*
X-13398095Y-10696667D01*
X-13302857Y-10672857D01*
X-13255238Y-10649048D01*
X-13207619Y-10601429D01*
X-13183810Y-10530000D01*
X-13183810Y-10482381D01*
X-13207619Y-10410953D01*
X-13231429Y-10387143D01*
X-13398095Y-10387143D01*
X-13398095Y-10482381D01*
X-13183810Y-10172857D02*
X-13683810Y-10172857D01*
X-13183810Y-9887143D01*
X-13683810Y-9887143D01*
X-13183810Y-9649047D02*
X-13683810Y-9649047D01*
X-13683810Y-9530000D01*
X-13660000Y-9458571D01*
X-13612381Y-9410952D01*
X-13564762Y-9387143D01*
X-13469524Y-9363333D01*
X-13398095Y-9363333D01*
X-13302857Y-9387143D01*
X-13255238Y-9410952D01*
X-13207619Y-9458571D01*
X-13183810Y-9530000D01*
X-13183810Y-9649047D01*
X-10623810Y-10660952D02*
X-11123810Y-10660952D01*
X-11123810Y-10470476D01*
X-11100000Y-10422857D01*
X-11076190Y-10399048D01*
X-11028571Y-10375238D01*
X-10957143Y-10375238D01*
X-10909524Y-10399048D01*
X-10885714Y-10422857D01*
X-10861905Y-10470476D01*
X-10861905Y-10660952D01*
X-11100000Y-9899048D02*
X-11123810Y-9946667D01*
X-11123810Y-10018095D01*
X-11100000Y-10089524D01*
X-11052381Y-10137143D01*
X-11004762Y-10160952D01*
X-10909524Y-10184762D01*
X-10838095Y-10184762D01*
X-10742857Y-10160952D01*
X-10695238Y-10137143D01*
X-10647619Y-10089524D01*
X-10623810Y-10018095D01*
X-10623810Y-9970476D01*
X-10647619Y-9899048D01*
X-10671429Y-9875238D01*
X-10838095Y-9875238D01*
X-10838095Y-9970476D01*
X-10623810Y-9660952D02*
X-11123810Y-9660952D01*
X-11123810Y-9541905D01*
X-11100000Y-9470476D01*
X-11052381Y-9422857D01*
X-11004762Y-9399048D01*
X-10909524Y-9375238D01*
X-10838095Y-9375238D01*
X-10742857Y-9399048D01*
X-10695238Y-9422857D01*
X-10647619Y-9470476D01*
X-10623810Y-9541905D01*
X-10623810Y-9660952D01*
X-8003810Y-10750952D02*
X-8503810Y-10750952D01*
X-8503810Y-10560476D01*
X-8480000Y-10512857D01*
X-8456190Y-10489048D01*
X-8408571Y-10465238D01*
X-8337143Y-10465238D01*
X-8289524Y-10489048D01*
X-8265714Y-10512857D01*
X-8241905Y-10560476D01*
X-8241905Y-10750952D01*
X-8480000Y-9989048D02*
X-8503810Y-10036667D01*
X-8503810Y-10108095D01*
X-8480000Y-10179524D01*
X-8432381Y-10227143D01*
X-8384762Y-10250952D01*
X-8289524Y-10274762D01*
X-8218095Y-10274762D01*
X-8122857Y-10250952D01*
X-8075238Y-10227143D01*
X-8027619Y-10179524D01*
X-8003810Y-10108095D01*
X-8003810Y-10060476D01*
X-8027619Y-9989048D01*
X-8051429Y-9965238D01*
X-8218095Y-9965238D01*
X-8218095Y-10060476D01*
X-8051429Y-9465238D02*
X-8027619Y-9489048D01*
X-8003810Y-9560476D01*
X-8003810Y-9608095D01*
X-8027619Y-9679524D01*
X-8075238Y-9727143D01*
X-8122857Y-9750952D01*
X-8218095Y-9774762D01*
X-8289524Y-9774762D01*
X-8384762Y-9750952D01*
X-8432381Y-9727143D01*
X-8480000Y-9679524D01*
X-8503810Y-9608095D01*
X-8503810Y-9560476D01*
X-8480000Y-9489048D01*
X-8456190Y-9465238D01*
X-5603810Y-10786666D02*
X-6103810Y-10786666D01*
X-6103810Y-10596190D01*
X-6080000Y-10548571D01*
X-6056190Y-10524762D01*
X-6008571Y-10500952D01*
X-5937143Y-10500952D01*
X-5889524Y-10524762D01*
X-5865714Y-10548571D01*
X-5841905Y-10596190D01*
X-5841905Y-10786666D01*
X-6080000Y-10024762D02*
X-6103810Y-10072381D01*
X-6103810Y-10143809D01*
X-6080000Y-10215238D01*
X-6032381Y-10262857D01*
X-5984762Y-10286666D01*
X-5889524Y-10310476D01*
X-5818095Y-10310476D01*
X-5722857Y-10286666D01*
X-5675238Y-10262857D01*
X-5627619Y-10215238D01*
X-5603810Y-10143809D01*
X-5603810Y-10096190D01*
X-5627619Y-10024762D01*
X-5651429Y-10000952D01*
X-5818095Y-10000952D01*
X-5818095Y-10096190D01*
X-5603810Y-9786666D02*
X-6103810Y-9786666D01*
X-5746667Y-9620000D01*
X-6103810Y-9453333D01*
X-5603810Y-9453333D01*
D12*
X-17453810Y-27122381D02*
X-17453810Y-26122381D01*
X-16406191Y-27027143D02*
X-16453810Y-27074762D01*
X-16596667Y-27122381D01*
X-16691905Y-27122381D01*
X-16834763Y-27074762D01*
X-16930001Y-26979524D01*
X-16977620Y-26884286D01*
X-17025239Y-26693810D01*
X-17025239Y-26550952D01*
X-16977620Y-26360476D01*
X-16930001Y-26265238D01*
X-16834763Y-26170000D01*
X-16691905Y-26122381D01*
X-16596667Y-26122381D01*
X-16453810Y-26170000D01*
X-16406191Y-26217619D01*
X-15977620Y-27122381D02*
X-15977620Y-26122381D01*
X-15739525Y-26122381D01*
X-15596667Y-26170000D01*
X-15501429Y-26265238D01*
X-15453810Y-26360476D01*
X-15406191Y-26550952D01*
X-15406191Y-26693810D01*
X-15453810Y-26884286D01*
X-15501429Y-26979524D01*
X-15596667Y-27074762D01*
X-15739525Y-27122381D01*
X-15977620Y-27122381D01*
X-15072858Y-26122381D02*
X-14453810Y-26122381D01*
X-14787144Y-26503333D01*
X-14644286Y-26503333D01*
X-14549048Y-26550952D01*
X-14501429Y-26598571D01*
X-14453810Y-26693810D01*
X-14453810Y-26931905D01*
X-14501429Y-27027143D01*
X-14549048Y-27074762D01*
X-14644286Y-27122381D01*
X-14930001Y-27122381D01*
X-15025239Y-27074762D01*
X-15072858Y-27027143D01*
X-13263334Y-27122381D02*
X-13263334Y-26122381D01*
X-12882381Y-26122381D01*
X-12787143Y-26170000D01*
X-12739524Y-26217619D01*
X-12691905Y-26312857D01*
X-12691905Y-26455714D01*
X-12739524Y-26550952D01*
X-12787143Y-26598571D01*
X-12882381Y-26646190D01*
X-13263334Y-26646190D01*
X-12263334Y-27122381D02*
X-12263334Y-26455714D01*
X-12263334Y-26122381D02*
X-12310953Y-26170000D01*
X-12263334Y-26217619D01*
X-12215715Y-26170000D01*
X-12263334Y-26122381D01*
X-12263334Y-26217619D01*
X-11787144Y-26455714D02*
X-11787144Y-27122381D01*
X-11787144Y-26550952D02*
X-11739525Y-26503333D01*
X-11644287Y-26455714D01*
X-11501429Y-26455714D01*
X-11406191Y-26503333D01*
X-11358572Y-26598571D01*
X-11358572Y-27122381D01*
X-10120477Y-27122381D02*
X-10120477Y-26122381D01*
X-10120477Y-26598571D02*
X-9549048Y-26598571D01*
X-9549048Y-27122381D02*
X-9549048Y-26122381D01*
X-8691905Y-27074762D02*
X-8787143Y-27122381D01*
X-8977620Y-27122381D01*
X-9072858Y-27074762D01*
X-9120477Y-26979524D01*
X-9120477Y-26598571D01*
X-9072858Y-26503333D01*
X-8977620Y-26455714D01*
X-8787143Y-26455714D01*
X-8691905Y-26503333D01*
X-8644286Y-26598571D01*
X-8644286Y-26693810D01*
X-9120477Y-26789048D01*
X-7787143Y-27122381D02*
X-7787143Y-26598571D01*
X-7834762Y-26503333D01*
X-7930000Y-26455714D01*
X-8120477Y-26455714D01*
X-8215715Y-26503333D01*
X-7787143Y-27074762D02*
X-7882381Y-27122381D01*
X-8120477Y-27122381D01*
X-8215715Y-27074762D01*
X-8263334Y-26979524D01*
X-8263334Y-26884286D01*
X-8215715Y-26789048D01*
X-8120477Y-26741429D01*
X-7882381Y-26741429D01*
X-7787143Y-26693810D01*
X-6882381Y-27122381D02*
X-6882381Y-26122381D01*
X-6882381Y-27074762D02*
X-6977619Y-27122381D01*
X-7168096Y-27122381D01*
X-7263334Y-27074762D01*
X-7310953Y-27027143D01*
X-7358572Y-26931905D01*
X-7358572Y-26646190D01*
X-7310953Y-26550952D01*
X-7263334Y-26503333D01*
X-7168096Y-26455714D01*
X-6977619Y-26455714D01*
X-6882381Y-26503333D01*
X-6025238Y-27074762D02*
X-6120476Y-27122381D01*
X-6310953Y-27122381D01*
X-6406191Y-27074762D01*
X-6453810Y-26979524D01*
X-6453810Y-26598571D01*
X-6406191Y-26503333D01*
X-6310953Y-26455714D01*
X-6120476Y-26455714D01*
X-6025238Y-26503333D01*
X-5977619Y-26598571D01*
X-5977619Y-26693810D01*
X-6453810Y-26789048D01*
X-5549048Y-27122381D02*
X-5549048Y-26455714D01*
X-5549048Y-26646190D02*
X-5501429Y-26550952D01*
X-5453810Y-26503333D01*
X-5358572Y-26455714D01*
X-5263333Y-26455714D01*
D13*
X-20747400Y-13039120D02*
X-20747400Y-25739120D01*
X-20747400Y-25739120D02*
X-4237400Y-25739120D01*
X-4237400Y-25739120D02*
X-4237400Y-13039120D01*
X-4237400Y-13039120D02*
X-20747400Y-13039120D01*
X-8697322Y-16784120D02*
G75*
G03X-8697322Y-16784120I-160078J0D01*
G01*
M02*
