M48
;DRILL file {KiCad 4.0.7} date 10/02/17 13:41:20
;FORMAT={-:-/ absolute / metric / decimal}
FMAT,2
METRIC,TZ
T1C0.500
T2C1.000
T3C0.500
%
G90
G05
M71
T1
X-14.757Y-18.359
X-13.737Y-15.819
X-12.717Y-18.359
X-11.697Y-15.819
X-10.677Y-18.359
X-9.657Y-15.819
T2
X-18.542Y-5.334
X-18.542Y-7.874
X-16.002Y-5.334
X-16.002Y-7.874
X-13.462Y-5.334
X-13.462Y-7.874
X-10.922Y-5.334
X-10.922Y-7.874
X-8.382Y-5.334
X-8.382Y-7.874
X-5.842Y-5.334
X-5.842Y-7.874
T3
X-18.207Y-20.659
X-6.207Y-20.659
T0
M30
