%TF.GenerationSoftware,KiCad,Pcbnew,4.0.7*%
%TF.CreationDate,2017-10-02T13:41:12+08:00*%
%TF.ProjectId,RJ12(PCB-maker),524A3132285043422D6D616B6572292E,rev?*%
%TF.FileFunction,Copper,L1,Top,Signal*%
%FSLAX46Y46*%
G04 Gerber Fmt 4.6, Leading zero omitted, Abs format (unit mm)*
G04 Created by KiCad (PCBNEW 4.0.7) date 10/02/17 13:41:12*
%MOMM*%
%LPD*%
G01*
G04 APERTURE LIST*
%ADD10C,0.100000*%
%ADD11C,2.400000*%
%ADD12C,1.400000*%
%ADD13R,1.700000X1.700000*%
%ADD14O,1.700000X1.700000*%
%ADD15C,0.900000*%
%ADD16C,0.254000*%
G04 APERTURE END LIST*
D10*
D11*
X-6207400Y-20659120D03*
X-18207400Y-20659120D03*
D12*
X-9657400Y-15819120D03*
X-11697400Y-15819120D03*
X-13737400Y-15819120D03*
X-10677400Y-18359120D03*
X-12717400Y-18359120D03*
X-14757400Y-18359120D03*
D13*
X-5842000Y-7874000D03*
D14*
X-5842000Y-5334000D03*
X-8382000Y-7874000D03*
X-8382000Y-5334000D03*
X-10922000Y-7874000D03*
X-10922000Y-5334000D03*
X-13462000Y-7874000D03*
X-13462000Y-5334000D03*
X-16002000Y-7874000D03*
X-16002000Y-5334000D03*
X-18542000Y-7874000D03*
X-18542000Y-5334000D03*
D15*
X-13737400Y-15819120D02*
X-13759180Y-15819120D01*
X-9657400Y-15819120D02*
X-9639300Y-15819120D01*
D16*
G36*
X-1980000Y-26035000D02*
X-4533095Y-26035000D01*
X-4533095Y-25718000D01*
X-18326905Y-25718000D01*
X-18326905Y-26035000D01*
X-21971000Y-26035000D01*
X-21971000Y-20346854D01*
X-20052107Y-20346854D01*
X-20042423Y-20684620D01*
X-20042718Y-21022523D01*
X-20031991Y-21048484D01*
X-20031186Y-21076563D01*
X-19792188Y-21653555D01*
X-19779788Y-21658864D01*
X-19763945Y-21697206D01*
X-19248201Y-22213850D01*
X-19207461Y-22230767D01*
X-19201835Y-22243908D01*
X-18886065Y-22364222D01*
X-18574005Y-22493801D01*
X-18545915Y-22493826D01*
X-18519666Y-22503827D01*
X-18181900Y-22494143D01*
X-17843997Y-22494438D01*
X-17818036Y-22483711D01*
X-17789957Y-22482906D01*
X-17212965Y-22243908D01*
X-17207656Y-22231508D01*
X-17169314Y-22215665D01*
X-16652670Y-21699921D01*
X-16635753Y-21659181D01*
X-16622612Y-21653555D01*
X-16502298Y-21337785D01*
X-16372719Y-21025725D01*
X-16372694Y-20997635D01*
X-16362693Y-20971386D01*
X-16372377Y-20633620D01*
X-16372127Y-20346854D01*
X-8052107Y-20346854D01*
X-8042423Y-20684620D01*
X-8042718Y-21022523D01*
X-8031991Y-21048484D01*
X-8031186Y-21076563D01*
X-7792188Y-21653555D01*
X-7779788Y-21658864D01*
X-7763945Y-21697206D01*
X-7248201Y-22213850D01*
X-7207461Y-22230767D01*
X-7201835Y-22243908D01*
X-6886065Y-22364222D01*
X-6574005Y-22493801D01*
X-6545915Y-22493826D01*
X-6519666Y-22503827D01*
X-6181900Y-22494143D01*
X-5843997Y-22494438D01*
X-5818036Y-22483711D01*
X-5789957Y-22482906D01*
X-5212965Y-22243908D01*
X-5207656Y-22231508D01*
X-5169314Y-22215665D01*
X-4652670Y-21699921D01*
X-4635753Y-21659181D01*
X-4622612Y-21653555D01*
X-4502298Y-21337785D01*
X-4372719Y-21025725D01*
X-4372694Y-20997635D01*
X-4362693Y-20971386D01*
X-4372377Y-20633620D01*
X-4372082Y-20295717D01*
X-4382809Y-20269756D01*
X-4383614Y-20241677D01*
X-4622612Y-19664685D01*
X-4635012Y-19659376D01*
X-4650855Y-19621034D01*
X-5166599Y-19104390D01*
X-5207339Y-19087473D01*
X-5212965Y-19074332D01*
X-5528735Y-18954018D01*
X-5840795Y-18824439D01*
X-5868885Y-18824414D01*
X-5895134Y-18814413D01*
X-6232900Y-18824097D01*
X-6570803Y-18823802D01*
X-6596764Y-18834529D01*
X-6624843Y-18835334D01*
X-7201835Y-19074332D01*
X-7207144Y-19086732D01*
X-7245486Y-19102575D01*
X-7762130Y-19618319D01*
X-7779047Y-19659059D01*
X-7792188Y-19664685D01*
X-7912502Y-19980455D01*
X-8042081Y-20292515D01*
X-8042106Y-20320605D01*
X-8052107Y-20346854D01*
X-16372127Y-20346854D01*
X-16372082Y-20295717D01*
X-16382809Y-20269756D01*
X-16383614Y-20241677D01*
X-16622612Y-19664685D01*
X-16635012Y-19659376D01*
X-16650855Y-19621034D01*
X-17166599Y-19104390D01*
X-17207339Y-19087473D01*
X-17212965Y-19074332D01*
X-17528735Y-18954018D01*
X-17840795Y-18824439D01*
X-17868885Y-18824414D01*
X-17895134Y-18814413D01*
X-18232900Y-18824097D01*
X-18570803Y-18823802D01*
X-18596764Y-18834529D01*
X-18624843Y-18835334D01*
X-19201835Y-19074332D01*
X-19207144Y-19086732D01*
X-19245486Y-19102575D01*
X-19762130Y-19618319D01*
X-19779047Y-19659059D01*
X-19792188Y-19664685D01*
X-19912502Y-19980455D01*
X-20042081Y-20292515D01*
X-20042106Y-20320605D01*
X-20052107Y-20346854D01*
X-21971000Y-20346854D01*
X-21971000Y-18623503D01*
X-16092631Y-18623503D01*
X-15889818Y-19114349D01*
X-15514604Y-19490218D01*
X-15024113Y-19693888D01*
X-14493017Y-19694351D01*
X-14002171Y-19491538D01*
X-13737267Y-19227096D01*
X-13474604Y-19490218D01*
X-12984113Y-19693888D01*
X-12453017Y-19694351D01*
X-11962171Y-19491538D01*
X-11697267Y-19227096D01*
X-11434604Y-19490218D01*
X-10944113Y-19693888D01*
X-10413017Y-19694351D01*
X-9922171Y-19491538D01*
X-9546302Y-19116324D01*
X-9342632Y-18625833D01*
X-9342169Y-18094737D01*
X-9544982Y-17603891D01*
X-9920196Y-17228022D01*
X-10410687Y-17024352D01*
X-10941783Y-17023889D01*
X-11432629Y-17226702D01*
X-11697533Y-17491144D01*
X-11960196Y-17228022D01*
X-12450687Y-17024352D01*
X-12981783Y-17023889D01*
X-13472629Y-17226702D01*
X-13737533Y-17491144D01*
X-14000196Y-17228022D01*
X-14490687Y-17024352D01*
X-15021783Y-17023889D01*
X-15512629Y-17226702D01*
X-15888498Y-17601916D01*
X-16092168Y-18092407D01*
X-16092631Y-18623503D01*
X-21971000Y-18623503D01*
X-21971000Y-16083503D01*
X-15072631Y-16083503D01*
X-14869818Y-16574349D01*
X-14494604Y-16950218D01*
X-14004113Y-17153888D01*
X-13473017Y-17154351D01*
X-12982171Y-16951538D01*
X-12717267Y-16687096D01*
X-12454604Y-16950218D01*
X-11964113Y-17153888D01*
X-11433017Y-17154351D01*
X-10942171Y-16951538D01*
X-10677267Y-16687096D01*
X-10414604Y-16950218D01*
X-9924113Y-17153888D01*
X-9393017Y-17154351D01*
X-8902171Y-16951538D01*
X-8526302Y-16576324D01*
X-8322632Y-16085833D01*
X-8322169Y-15554737D01*
X-8524982Y-15063891D01*
X-8900196Y-14688022D01*
X-9390687Y-14484352D01*
X-9921783Y-14483889D01*
X-10412629Y-14686702D01*
X-10677533Y-14951144D01*
X-10940196Y-14688022D01*
X-11430687Y-14484352D01*
X-11961783Y-14483889D01*
X-12452629Y-14686702D01*
X-12717533Y-14951144D01*
X-12980196Y-14688022D01*
X-13470687Y-14484352D01*
X-14001783Y-14483889D01*
X-14492629Y-14686702D01*
X-14868498Y-15061916D01*
X-15072168Y-15552407D01*
X-15072631Y-16083503D01*
X-21971000Y-16083503D01*
X-21971000Y-5304907D01*
X-20027000Y-5304907D01*
X-20027000Y-5363093D01*
X-19913961Y-5931378D01*
X-19592054Y-6413147D01*
X-19306422Y-6604000D01*
X-19592054Y-6794853D01*
X-19913961Y-7276622D01*
X-20027000Y-7844907D01*
X-20027000Y-7903093D01*
X-19913961Y-8471378D01*
X-19592054Y-8953147D01*
X-19110285Y-9275054D01*
X-18542000Y-9388093D01*
X-17973715Y-9275054D01*
X-17491946Y-8953147D01*
X-17272000Y-8623974D01*
X-17052054Y-8953147D01*
X-16570285Y-9275054D01*
X-16002000Y-9388093D01*
X-15433715Y-9275054D01*
X-14951946Y-8953147D01*
X-14732000Y-8623974D01*
X-14512054Y-8953147D01*
X-14030285Y-9275054D01*
X-13462000Y-9388093D01*
X-12893715Y-9275054D01*
X-12411946Y-8953147D01*
X-12192000Y-8623974D01*
X-11972054Y-8953147D01*
X-11490285Y-9275054D01*
X-10922000Y-9388093D01*
X-10353715Y-9275054D01*
X-9871946Y-8953147D01*
X-9652000Y-8623974D01*
X-9432054Y-8953147D01*
X-8950285Y-9275054D01*
X-8382000Y-9388093D01*
X-7813715Y-9275054D01*
X-7331946Y-8953147D01*
X-7304150Y-8911548D01*
X-7295162Y-8959317D01*
X-7156090Y-9175441D01*
X-6943890Y-9320431D01*
X-6692000Y-9371440D01*
X-4992000Y-9371440D01*
X-4756683Y-9327162D01*
X-4540559Y-9188090D01*
X-4395569Y-8975890D01*
X-4344560Y-8724000D01*
X-4344560Y-7024000D01*
X-4388838Y-6788683D01*
X-4527910Y-6572559D01*
X-4740110Y-6427569D01*
X-4796454Y-6416159D01*
X-4791946Y-6413147D01*
X-4470039Y-5931378D01*
X-4357000Y-5363093D01*
X-4357000Y-5304907D01*
X-4470039Y-4736622D01*
X-4791946Y-4254853D01*
X-5273715Y-3932946D01*
X-5842000Y-3819907D01*
X-6410285Y-3932946D01*
X-6892054Y-4254853D01*
X-7112000Y-4584026D01*
X-7331946Y-4254853D01*
X-7813715Y-3932946D01*
X-8382000Y-3819907D01*
X-8950285Y-3932946D01*
X-9432054Y-4254853D01*
X-9652000Y-4584026D01*
X-9871946Y-4254853D01*
X-10353715Y-3932946D01*
X-10922000Y-3819907D01*
X-11490285Y-3932946D01*
X-11972054Y-4254853D01*
X-12192000Y-4584026D01*
X-12411946Y-4254853D01*
X-12893715Y-3932946D01*
X-13462000Y-3819907D01*
X-14030285Y-3932946D01*
X-14512054Y-4254853D01*
X-14732000Y-4584026D01*
X-14951946Y-4254853D01*
X-15433715Y-3932946D01*
X-16002000Y-3819907D01*
X-16570285Y-3932946D01*
X-17052054Y-4254853D01*
X-17272000Y-4584026D01*
X-17491946Y-4254853D01*
X-17973715Y-3932946D01*
X-18542000Y-3819907D01*
X-19110285Y-3932946D01*
X-19592054Y-4254853D01*
X-19913961Y-4736622D01*
X-20027000Y-5304907D01*
X-21971000Y-5304907D01*
X-21971000Y-2413000D01*
X-1980000Y-2413000D01*
X-1980000Y-26035000D01*
X-1980000Y-26035000D01*
G37*
X-1980000Y-26035000D02*
X-4533095Y-26035000D01*
X-4533095Y-25718000D01*
X-18326905Y-25718000D01*
X-18326905Y-26035000D01*
X-21971000Y-26035000D01*
X-21971000Y-20346854D01*
X-20052107Y-20346854D01*
X-20042423Y-20684620D01*
X-20042718Y-21022523D01*
X-20031991Y-21048484D01*
X-20031186Y-21076563D01*
X-19792188Y-21653555D01*
X-19779788Y-21658864D01*
X-19763945Y-21697206D01*
X-19248201Y-22213850D01*
X-19207461Y-22230767D01*
X-19201835Y-22243908D01*
X-18886065Y-22364222D01*
X-18574005Y-22493801D01*
X-18545915Y-22493826D01*
X-18519666Y-22503827D01*
X-18181900Y-22494143D01*
X-17843997Y-22494438D01*
X-17818036Y-22483711D01*
X-17789957Y-22482906D01*
X-17212965Y-22243908D01*
X-17207656Y-22231508D01*
X-17169314Y-22215665D01*
X-16652670Y-21699921D01*
X-16635753Y-21659181D01*
X-16622612Y-21653555D01*
X-16502298Y-21337785D01*
X-16372719Y-21025725D01*
X-16372694Y-20997635D01*
X-16362693Y-20971386D01*
X-16372377Y-20633620D01*
X-16372127Y-20346854D01*
X-8052107Y-20346854D01*
X-8042423Y-20684620D01*
X-8042718Y-21022523D01*
X-8031991Y-21048484D01*
X-8031186Y-21076563D01*
X-7792188Y-21653555D01*
X-7779788Y-21658864D01*
X-7763945Y-21697206D01*
X-7248201Y-22213850D01*
X-7207461Y-22230767D01*
X-7201835Y-22243908D01*
X-6886065Y-22364222D01*
X-6574005Y-22493801D01*
X-6545915Y-22493826D01*
X-6519666Y-22503827D01*
X-6181900Y-22494143D01*
X-5843997Y-22494438D01*
X-5818036Y-22483711D01*
X-5789957Y-22482906D01*
X-5212965Y-22243908D01*
X-5207656Y-22231508D01*
X-5169314Y-22215665D01*
X-4652670Y-21699921D01*
X-4635753Y-21659181D01*
X-4622612Y-21653555D01*
X-4502298Y-21337785D01*
X-4372719Y-21025725D01*
X-4372694Y-20997635D01*
X-4362693Y-20971386D01*
X-4372377Y-20633620D01*
X-4372082Y-20295717D01*
X-4382809Y-20269756D01*
X-4383614Y-20241677D01*
X-4622612Y-19664685D01*
X-4635012Y-19659376D01*
X-4650855Y-19621034D01*
X-5166599Y-19104390D01*
X-5207339Y-19087473D01*
X-5212965Y-19074332D01*
X-5528735Y-18954018D01*
X-5840795Y-18824439D01*
X-5868885Y-18824414D01*
X-5895134Y-18814413D01*
X-6232900Y-18824097D01*
X-6570803Y-18823802D01*
X-6596764Y-18834529D01*
X-6624843Y-18835334D01*
X-7201835Y-19074332D01*
X-7207144Y-19086732D01*
X-7245486Y-19102575D01*
X-7762130Y-19618319D01*
X-7779047Y-19659059D01*
X-7792188Y-19664685D01*
X-7912502Y-19980455D01*
X-8042081Y-20292515D01*
X-8042106Y-20320605D01*
X-8052107Y-20346854D01*
X-16372127Y-20346854D01*
X-16372082Y-20295717D01*
X-16382809Y-20269756D01*
X-16383614Y-20241677D01*
X-16622612Y-19664685D01*
X-16635012Y-19659376D01*
X-16650855Y-19621034D01*
X-17166599Y-19104390D01*
X-17207339Y-19087473D01*
X-17212965Y-19074332D01*
X-17528735Y-18954018D01*
X-17840795Y-18824439D01*
X-17868885Y-18824414D01*
X-17895134Y-18814413D01*
X-18232900Y-18824097D01*
X-18570803Y-18823802D01*
X-18596764Y-18834529D01*
X-18624843Y-18835334D01*
X-19201835Y-19074332D01*
X-19207144Y-19086732D01*
X-19245486Y-19102575D01*
X-19762130Y-19618319D01*
X-19779047Y-19659059D01*
X-19792188Y-19664685D01*
X-19912502Y-19980455D01*
X-20042081Y-20292515D01*
X-20042106Y-20320605D01*
X-20052107Y-20346854D01*
X-21971000Y-20346854D01*
X-21971000Y-18623503D01*
X-16092631Y-18623503D01*
X-15889818Y-19114349D01*
X-15514604Y-19490218D01*
X-15024113Y-19693888D01*
X-14493017Y-19694351D01*
X-14002171Y-19491538D01*
X-13737267Y-19227096D01*
X-13474604Y-19490218D01*
X-12984113Y-19693888D01*
X-12453017Y-19694351D01*
X-11962171Y-19491538D01*
X-11697267Y-19227096D01*
X-11434604Y-19490218D01*
X-10944113Y-19693888D01*
X-10413017Y-19694351D01*
X-9922171Y-19491538D01*
X-9546302Y-19116324D01*
X-9342632Y-18625833D01*
X-9342169Y-18094737D01*
X-9544982Y-17603891D01*
X-9920196Y-17228022D01*
X-10410687Y-17024352D01*
X-10941783Y-17023889D01*
X-11432629Y-17226702D01*
X-11697533Y-17491144D01*
X-11960196Y-17228022D01*
X-12450687Y-17024352D01*
X-12981783Y-17023889D01*
X-13472629Y-17226702D01*
X-13737533Y-17491144D01*
X-14000196Y-17228022D01*
X-14490687Y-17024352D01*
X-15021783Y-17023889D01*
X-15512629Y-17226702D01*
X-15888498Y-17601916D01*
X-16092168Y-18092407D01*
X-16092631Y-18623503D01*
X-21971000Y-18623503D01*
X-21971000Y-16083503D01*
X-15072631Y-16083503D01*
X-14869818Y-16574349D01*
X-14494604Y-16950218D01*
X-14004113Y-17153888D01*
X-13473017Y-17154351D01*
X-12982171Y-16951538D01*
X-12717267Y-16687096D01*
X-12454604Y-16950218D01*
X-11964113Y-17153888D01*
X-11433017Y-17154351D01*
X-10942171Y-16951538D01*
X-10677267Y-16687096D01*
X-10414604Y-16950218D01*
X-9924113Y-17153888D01*
X-9393017Y-17154351D01*
X-8902171Y-16951538D01*
X-8526302Y-16576324D01*
X-8322632Y-16085833D01*
X-8322169Y-15554737D01*
X-8524982Y-15063891D01*
X-8900196Y-14688022D01*
X-9390687Y-14484352D01*
X-9921783Y-14483889D01*
X-10412629Y-14686702D01*
X-10677533Y-14951144D01*
X-10940196Y-14688022D01*
X-11430687Y-14484352D01*
X-11961783Y-14483889D01*
X-12452629Y-14686702D01*
X-12717533Y-14951144D01*
X-12980196Y-14688022D01*
X-13470687Y-14484352D01*
X-14001783Y-14483889D01*
X-14492629Y-14686702D01*
X-14868498Y-15061916D01*
X-15072168Y-15552407D01*
X-15072631Y-16083503D01*
X-21971000Y-16083503D01*
X-21971000Y-5304907D01*
X-20027000Y-5304907D01*
X-20027000Y-5363093D01*
X-19913961Y-5931378D01*
X-19592054Y-6413147D01*
X-19306422Y-6604000D01*
X-19592054Y-6794853D01*
X-19913961Y-7276622D01*
X-20027000Y-7844907D01*
X-20027000Y-7903093D01*
X-19913961Y-8471378D01*
X-19592054Y-8953147D01*
X-19110285Y-9275054D01*
X-18542000Y-9388093D01*
X-17973715Y-9275054D01*
X-17491946Y-8953147D01*
X-17272000Y-8623974D01*
X-17052054Y-8953147D01*
X-16570285Y-9275054D01*
X-16002000Y-9388093D01*
X-15433715Y-9275054D01*
X-14951946Y-8953147D01*
X-14732000Y-8623974D01*
X-14512054Y-8953147D01*
X-14030285Y-9275054D01*
X-13462000Y-9388093D01*
X-12893715Y-9275054D01*
X-12411946Y-8953147D01*
X-12192000Y-8623974D01*
X-11972054Y-8953147D01*
X-11490285Y-9275054D01*
X-10922000Y-9388093D01*
X-10353715Y-9275054D01*
X-9871946Y-8953147D01*
X-9652000Y-8623974D01*
X-9432054Y-8953147D01*
X-8950285Y-9275054D01*
X-8382000Y-9388093D01*
X-7813715Y-9275054D01*
X-7331946Y-8953147D01*
X-7304150Y-8911548D01*
X-7295162Y-8959317D01*
X-7156090Y-9175441D01*
X-6943890Y-9320431D01*
X-6692000Y-9371440D01*
X-4992000Y-9371440D01*
X-4756683Y-9327162D01*
X-4540559Y-9188090D01*
X-4395569Y-8975890D01*
X-4344560Y-8724000D01*
X-4344560Y-7024000D01*
X-4388838Y-6788683D01*
X-4527910Y-6572559D01*
X-4740110Y-6427569D01*
X-4796454Y-6416159D01*
X-4791946Y-6413147D01*
X-4470039Y-5931378D01*
X-4357000Y-5363093D01*
X-4357000Y-5304907D01*
X-4470039Y-4736622D01*
X-4791946Y-4254853D01*
X-5273715Y-3932946D01*
X-5842000Y-3819907D01*
X-6410285Y-3932946D01*
X-6892054Y-4254853D01*
X-7112000Y-4584026D01*
X-7331946Y-4254853D01*
X-7813715Y-3932946D01*
X-8382000Y-3819907D01*
X-8950285Y-3932946D01*
X-9432054Y-4254853D01*
X-9652000Y-4584026D01*
X-9871946Y-4254853D01*
X-10353715Y-3932946D01*
X-10922000Y-3819907D01*
X-11490285Y-3932946D01*
X-11972054Y-4254853D01*
X-12192000Y-4584026D01*
X-12411946Y-4254853D01*
X-12893715Y-3932946D01*
X-13462000Y-3819907D01*
X-14030285Y-3932946D01*
X-14512054Y-4254853D01*
X-14732000Y-4584026D01*
X-14951946Y-4254853D01*
X-15433715Y-3932946D01*
X-16002000Y-3819907D01*
X-16570285Y-3932946D01*
X-17052054Y-4254853D01*
X-17272000Y-4584026D01*
X-17491946Y-4254853D01*
X-17973715Y-3932946D01*
X-18542000Y-3819907D01*
X-19110285Y-3932946D01*
X-19592054Y-4254853D01*
X-19913961Y-4736622D01*
X-20027000Y-5304907D01*
X-21971000Y-5304907D01*
X-21971000Y-2413000D01*
X-1980000Y-2413000D01*
X-1980000Y-26035000D01*
G36*
X-9432054Y-6413147D02*
X-9146422Y-6604000D01*
X-9432054Y-6794853D01*
X-9652000Y-7124026D01*
X-9871946Y-6794853D01*
X-10157578Y-6604000D01*
X-9871946Y-6413147D01*
X-9652000Y-6083974D01*
X-9432054Y-6413147D01*
X-9432054Y-6413147D01*
G37*
X-9432054Y-6413147D02*
X-9146422Y-6604000D01*
X-9432054Y-6794853D01*
X-9652000Y-7124026D01*
X-9871946Y-6794853D01*
X-10157578Y-6604000D01*
X-9871946Y-6413147D01*
X-9652000Y-6083974D01*
X-9432054Y-6413147D01*
G36*
X-11972054Y-6413147D02*
X-11686422Y-6604000D01*
X-11972054Y-6794853D01*
X-12192000Y-7124026D01*
X-12411946Y-6794853D01*
X-12697578Y-6604000D01*
X-12411946Y-6413147D01*
X-12192000Y-6083974D01*
X-11972054Y-6413147D01*
X-11972054Y-6413147D01*
G37*
X-11972054Y-6413147D02*
X-11686422Y-6604000D01*
X-11972054Y-6794853D01*
X-12192000Y-7124026D01*
X-12411946Y-6794853D01*
X-12697578Y-6604000D01*
X-12411946Y-6413147D01*
X-12192000Y-6083974D01*
X-11972054Y-6413147D01*
G36*
X-14512054Y-6413147D02*
X-14226422Y-6604000D01*
X-14512054Y-6794853D01*
X-14732000Y-7124026D01*
X-14951946Y-6794853D01*
X-15237578Y-6604000D01*
X-14951946Y-6413147D01*
X-14732000Y-6083974D01*
X-14512054Y-6413147D01*
X-14512054Y-6413147D01*
G37*
X-14512054Y-6413147D02*
X-14226422Y-6604000D01*
X-14512054Y-6794853D01*
X-14732000Y-7124026D01*
X-14951946Y-6794853D01*
X-15237578Y-6604000D01*
X-14951946Y-6413147D01*
X-14732000Y-6083974D01*
X-14512054Y-6413147D01*
G36*
X-17052054Y-6413147D02*
X-16766422Y-6604000D01*
X-17052054Y-6794853D01*
X-17272000Y-7124026D01*
X-17491946Y-6794853D01*
X-17777578Y-6604000D01*
X-17491946Y-6413147D01*
X-17272000Y-6083974D01*
X-17052054Y-6413147D01*
X-17052054Y-6413147D01*
G37*
X-17052054Y-6413147D02*
X-16766422Y-6604000D01*
X-17052054Y-6794853D01*
X-17272000Y-7124026D01*
X-17491946Y-6794853D01*
X-17777578Y-6604000D01*
X-17491946Y-6413147D01*
X-17272000Y-6083974D01*
X-17052054Y-6413147D01*
G36*
X-6892054Y-6413147D02*
X-6890821Y-6413971D01*
X-6927317Y-6420838D01*
X-7143441Y-6559910D01*
X-7288431Y-6772110D01*
X-7302086Y-6839541D01*
X-7331946Y-6794853D01*
X-7617578Y-6604000D01*
X-7331946Y-6413147D01*
X-7112000Y-6083974D01*
X-6892054Y-6413147D01*
X-6892054Y-6413147D01*
G37*
X-6892054Y-6413147D02*
X-6890821Y-6413971D01*
X-6927317Y-6420838D01*
X-7143441Y-6559910D01*
X-7288431Y-6772110D01*
X-7302086Y-6839541D01*
X-7331946Y-6794853D01*
X-7617578Y-6604000D01*
X-7331946Y-6413147D01*
X-7112000Y-6083974D01*
X-6892054Y-6413147D01*
M02*
