%MOIN*%
%OFA0B0*%
%FSLAX46Y46*%
%IPPOS*%
%LPD*%
%ADD10C,0.0039370078740157488*%
%ADD11C,0.11023622047244094*%
%ADD12C,0.070866141732283464*%
%ADD13R,0.082677165354330714X0.082677165354330714*%
%ADD14O,0.082677165354330714X0.082677165354330714*%
%ADD25C,0.0039370078740157488*%
%ADD26C,0.11023622047244094*%
%ADD27C,0.070866141732283464*%
%ADD28R,0.082677165354330714X0.082677165354330714*%
%ADD29O,0.082677165354330714X0.082677165354330714*%
%LPD*%
G01*
D10*
D11*
X0000944881Y0001141732D02*
X0000700496Y0000328381D03*
X0000228055Y0000328381D03*
D12*
X0000564669Y0000518932D03*
X0000484354Y0000518932D03*
X0000404039Y0000518932D03*
X0000524511Y0000418932D03*
X0000444196Y0000418932D03*
X0000363881Y0000418932D03*
D13*
X0000714881Y0000831732D03*
D14*
X0000714881Y0000931732D03*
X0000614881Y0000831732D03*
X0000614881Y0000931732D03*
X0000514881Y0000831732D03*
X0000514881Y0000931732D03*
X0000414881Y0000831732D03*
X0000414881Y0000931732D03*
X0000314881Y0000831732D03*
X0000314881Y0000931732D03*
X0000214881Y0000831732D03*
X0000214881Y0000931732D03*
G04 next file*
%LPD*%
G04 Gerber Fmt 4.6, Leading zero omitted, Abs format (unit mm)*
G04 Created by KiCad (PCBNEW 4.0.7) date 10/04/17 14:57:39*
G01*
G04 APERTURE LIST*
G04 APERTURE END LIST*
D25*
D26*
X0001811023Y0001141732D02*
X0001566637Y0000328381D03*
X0001094196Y0000328381D03*
D27*
X0001430811Y0000518932D03*
X0001350496Y0000518932D03*
X0001270181Y0000518932D03*
X0001390653Y0000418932D03*
X0001310338Y0000418932D03*
X0001230023Y0000418932D03*
D28*
X0001581023Y0000831732D03*
D29*
X0001581023Y0000931732D03*
X0001481023Y0000831732D03*
X0001481023Y0000931732D03*
X0001381023Y0000831732D03*
X0001381023Y0000931732D03*
X0001281023Y0000831732D03*
X0001281023Y0000931732D03*
X0001181023Y0000831732D03*
X0001181023Y0000931732D03*
X0001081023Y0000831732D03*
X0001081023Y0000931732D03*
M02*