%
M48
METRIC,000.000
T01C0.50
T02C1.00
T03C0.50
%
T01
X009243Y010640
X010263Y013181
X011283Y010640
X012303Y013181
X013323Y010640
X014343Y013181
X031243Y010640
X032262Y013181
X033283Y010640
X034303Y013181
X035323Y010640
X036343Y013181
X027793Y008341
X039793Y008341
T02
X005457Y023666
X005457Y021126
X007998Y023666
X007998Y021126
X010538Y023666
X010538Y021126
X013078Y023666
X013078Y021126
X015618Y023666
X015618Y021126
X018158Y023666
X018158Y021126
X027458Y023666
X027458Y021126
X029998Y023666
X029998Y021126
X032537Y023666
X032537Y021126
X035078Y023666
X035078Y021126
X037618Y023666
X037618Y021126
X040158Y023666
X040158Y021126
T03
X005792Y008341
X017793Y008341
M30