%MOIN*%
%OFA0B0*%
%FSLAX44Y44*%
%IPPOS*%
%LPD*%
%ADD10C,0*%
D10*
X00017110Y00000417D02*
X00017110Y00000417D01*
X00017188Y00000423D01*
X00017264Y00000441D01*
X00017337Y00000471D01*
X00017404Y00000512D01*
X00017463Y00000563D01*
X00017514Y00000623D01*
X00017555Y00000690D01*
X00017585Y00000762D01*
X00017604Y00000839D01*
X00017610Y00000917D01*
X00017610Y00010917D01*
X00017604Y00010995D01*
X00017585Y00011071D01*
X00017555Y00011144D01*
X00017514Y00011211D01*
X00017463Y00011270D01*
X00017404Y00011321D01*
X00017337Y00011362D01*
X00017264Y00011392D01*
X00017188Y00011411D01*
X00017110Y00011417D01*
X00009610Y00011417D01*
X00009532Y00011411D01*
X00009455Y00011392D01*
X00009383Y00011362D01*
X00009316Y00011321D01*
X00009256Y00011270D01*
X00009205Y00011211D01*
X00009164Y00011144D01*
X00009134Y00011071D01*
X00009116Y00010995D01*
X00009110Y00010917D01*
X00009110Y00000917D01*
X00009116Y00000839D01*
X00009134Y00000762D01*
X00009164Y00000690D01*
X00009205Y00000623D01*
X00009256Y00000563D01*
X00009316Y00000512D01*
X00009383Y00000471D01*
X00009455Y00000441D01*
X00009532Y00000423D01*
X00009610Y00000417D01*
X00017110Y00000417D01*
X00008448Y00000417D02*
X00008448Y00000417D01*
X00008527Y00000423D01*
X00008603Y00000441D01*
X00008675Y00000471D01*
X00008742Y00000512D01*
X00008802Y00000563D01*
X00008853Y00000623D01*
X00008894Y00000690D01*
X00008924Y00000762D01*
X00008942Y00000839D01*
X00008948Y00000917D01*
X00008948Y00010917D01*
X00008942Y00010995D01*
X00008924Y00011071D01*
X00008894Y00011144D01*
X00008853Y00011211D01*
X00008802Y00011270D01*
X00008742Y00011321D01*
X00008675Y00011362D01*
X00008603Y00011392D01*
X00008527Y00011411D01*
X00008448Y00011417D01*
X00000948Y00011417D01*
X00000870Y00011411D01*
X00000794Y00011392D01*
X00000721Y00011362D01*
X00000654Y00011321D01*
X00000595Y00011270D01*
X00000544Y00011211D01*
X00000503Y00011144D01*
X00000473Y00011071D01*
X00000454Y00010995D01*
X00000448Y00010917D01*
X00000448Y00000917D01*
X00000454Y00000839D01*
X00000473Y00000762D01*
X00000503Y00000690D01*
X00000544Y00000623D01*
X00000595Y00000563D01*
X00000654Y00000512D01*
X00000721Y00000471D01*
X00000794Y00000441D01*
X00000870Y00000423D01*
X00000948Y00000417D01*
X00008448Y00000417D01*
M02*