%MOIN*%
%OFA0B0*%
%FSLAX46Y46*%
%IPPOS*%
%LPD*%
%ADD10C,0.0039370078740157488*%
%ADD11C,0.004921259842519685*%
%ADD12C,0.00984251968503937*%
%ADD13C,0.005905511811023622*%
%ADD24C,0.0039370078740157488*%
%ADD25C,0.004921259842519685*%
%ADD26C,0.00984251968503937*%
%ADD27C,0.005905511811023622*%
%LPD*%
G01*
D10*
D11*
X0000225834Y0000704368D02*
X0000206149Y0000704368D01*
X0000220209Y0000710929D01*
X0000206149Y0000717491D01*
X0000225834Y0000717491D01*
X0000223959Y0000738114D02*
X0000224896Y0000737176D01*
X0000225834Y0000734364D01*
X0000225834Y0000732489D01*
X0000224896Y0000729677D01*
X0000223022Y0000727802D01*
X0000221147Y0000726865D01*
X0000217397Y0000725928D01*
X0000214585Y0000725928D01*
X0000210836Y0000726865D01*
X0000208961Y0000727802D01*
X0000207086Y0000729677D01*
X0000206149Y0000732489D01*
X0000206149Y0000734364D01*
X0000207086Y0000737176D01*
X0000208023Y0000738114D01*
X0000225834Y0000755924D02*
X0000225834Y0000746550D01*
X0000206149Y0000746550D01*
X0000225834Y0000773734D02*
X0000216460Y0000767172D01*
X0000225834Y0000762485D02*
X0000206149Y0000762485D01*
X0000206149Y0000769985D01*
X0000207086Y0000771859D01*
X0000208023Y0000772797D01*
X0000209898Y0000773734D01*
X0000212710Y0000773734D01*
X0000214585Y0000772797D01*
X0000215523Y0000771859D01*
X0000216460Y0000769985D01*
X0000216460Y0000762485D01*
X0000305755Y0000724147D02*
X0000325440Y0000730708D01*
X0000305755Y0000737270D01*
X0000325440Y0000743832D02*
X0000305755Y0000743832D01*
X0000305755Y0000748518D01*
X0000306692Y0000751331D01*
X0000308567Y0000753205D01*
X0000310442Y0000754143D01*
X0000314191Y0000755080D01*
X0000317004Y0000755080D01*
X0000320753Y0000754143D01*
X0000322628Y0000753205D01*
X0000324503Y0000751331D01*
X0000325440Y0000748518D01*
X0000325440Y0000743832D01*
X0000325440Y0000763517D02*
X0000305755Y0000763517D01*
X0000305755Y0000768203D01*
X0000306692Y0000771016D01*
X0000308567Y0000772890D01*
X0000310442Y0000773828D01*
X0000314191Y0000774765D01*
X0000317004Y0000774765D01*
X0000320753Y0000773828D01*
X0000322628Y0000772890D01*
X0000324503Y0000771016D01*
X0000325440Y0000768203D01*
X0000325440Y0000763517D01*
X0000407086Y0000731852D02*
X0000406149Y0000729977D01*
X0000406149Y0000727165D01*
X0000407086Y0000724353D01*
X0000408961Y0000722478D01*
X0000410836Y0000721541D01*
X0000414585Y0000720603D01*
X0000417397Y0000720603D01*
X0000421147Y0000721541D01*
X0000423022Y0000722478D01*
X0000424896Y0000724353D01*
X0000425834Y0000727165D01*
X0000425834Y0000729040D01*
X0000424896Y0000731852D01*
X0000423959Y0000732789D01*
X0000417397Y0000732789D01*
X0000417397Y0000729040D01*
X0000425834Y0000741226D02*
X0000406149Y0000741226D01*
X0000425834Y0000752474D01*
X0000406149Y0000752474D01*
X0000425834Y0000761848D02*
X0000406149Y0000761848D01*
X0000406149Y0000766535D01*
X0000407086Y0000769347D01*
X0000408961Y0000771222D01*
X0000410836Y0000772159D01*
X0000414585Y0000773097D01*
X0000417397Y0000773097D01*
X0000421147Y0000772159D01*
X0000423022Y0000771222D01*
X0000424896Y0000769347D01*
X0000425834Y0000766535D01*
X0000425834Y0000761848D01*
X0000526621Y0000722009D02*
X0000506936Y0000722009D01*
X0000506936Y0000729508D01*
X0000507874Y0000731383D01*
X0000508811Y0000732320D01*
X0000510686Y0000733258D01*
X0000513498Y0000733258D01*
X0000515373Y0000732320D01*
X0000516310Y0000731383D01*
X0000517247Y0000729508D01*
X0000517247Y0000722009D01*
X0000507874Y0000752005D02*
X0000506936Y0000750131D01*
X0000506936Y0000747319D01*
X0000507874Y0000744506D01*
X0000509748Y0000742632D01*
X0000511623Y0000741694D01*
X0000515373Y0000740757D01*
X0000518185Y0000740757D01*
X0000521934Y0000741694D01*
X0000523809Y0000742632D01*
X0000525684Y0000744506D01*
X0000526621Y0000747319D01*
X0000526621Y0000749193D01*
X0000525684Y0000752005D01*
X0000524746Y0000752943D01*
X0000518185Y0000752943D01*
X0000518185Y0000749193D01*
X0000526621Y0000761379D02*
X0000506936Y0000761379D01*
X0000506936Y0000766066D01*
X0000507874Y0000768878D01*
X0000509748Y0000770753D01*
X0000511623Y0000771691D01*
X0000515373Y0000772628D01*
X0000518185Y0000772628D01*
X0000521934Y0000771691D01*
X0000523809Y0000770753D01*
X0000525684Y0000768878D01*
X0000526621Y0000766066D01*
X0000526621Y0000761379D01*
X0000629771Y0000718466D02*
X0000610086Y0000718466D01*
X0000610086Y0000725965D01*
X0000611023Y0000727840D01*
X0000611961Y0000728777D01*
X0000613835Y0000729715D01*
X0000616647Y0000729715D01*
X0000618522Y0000728777D01*
X0000619460Y0000727840D01*
X0000620397Y0000725965D01*
X0000620397Y0000718466D01*
X0000611023Y0000748462D02*
X0000610086Y0000746587D01*
X0000610086Y0000743775D01*
X0000611023Y0000740963D01*
X0000612898Y0000739088D01*
X0000614773Y0000738151D01*
X0000618522Y0000737214D01*
X0000621334Y0000737214D01*
X0000625084Y0000738151D01*
X0000626959Y0000739088D01*
X0000628833Y0000740963D01*
X0000629771Y0000743775D01*
X0000629771Y0000745650D01*
X0000628833Y0000748462D01*
X0000627896Y0000749400D01*
X0000621334Y0000749400D01*
X0000621334Y0000745650D01*
X0000627896Y0000769085D02*
X0000628833Y0000768147D01*
X0000629771Y0000765335D01*
X0000629771Y0000763460D01*
X0000628833Y0000760648D01*
X0000626959Y0000758773D01*
X0000625084Y0000757836D01*
X0000621334Y0000756899D01*
X0000618522Y0000756899D01*
X0000614773Y0000757836D01*
X0000612898Y0000758773D01*
X0000611023Y0000760648D01*
X0000610086Y0000763460D01*
X0000610086Y0000765335D01*
X0000611023Y0000768147D01*
X0000611961Y0000769085D01*
X0000724259Y0000717060D02*
X0000704574Y0000717060D01*
X0000704574Y0000724559D01*
X0000705511Y0000726434D01*
X0000706449Y0000727371D01*
X0000708323Y0000728308D01*
X0000711136Y0000728308D01*
X0000713010Y0000727371D01*
X0000713948Y0000726434D01*
X0000714885Y0000724559D01*
X0000714885Y0000717060D01*
X0000705511Y0000747056D02*
X0000704574Y0000745181D01*
X0000704574Y0000742369D01*
X0000705511Y0000739557D01*
X0000707386Y0000737682D01*
X0000709261Y0000736745D01*
X0000713010Y0000735808D01*
X0000715823Y0000735808D01*
X0000719572Y0000736745D01*
X0000721447Y0000737682D01*
X0000723322Y0000739557D01*
X0000724259Y0000742369D01*
X0000724259Y0000744244D01*
X0000723322Y0000747056D01*
X0000722384Y0000747994D01*
X0000715823Y0000747994D01*
X0000715823Y0000744244D01*
X0000724259Y0000756430D02*
X0000704574Y0000756430D01*
X0000718635Y0000762992D01*
X0000704574Y0000769553D01*
X0000724259Y0000769553D01*
D12*
X0000257723Y0000073921D02*
X0000257723Y0000113292D01*
X0000298968Y0000077671D02*
X0000297094Y0000075796D01*
X0000291469Y0000073921D01*
X0000287720Y0000073921D01*
X0000282095Y0000075796D01*
X0000278346Y0000079546D01*
X0000276471Y0000083295D01*
X0000274596Y0000090794D01*
X0000274596Y0000096419D01*
X0000276471Y0000103918D01*
X0000278346Y0000107667D01*
X0000282095Y0000111417D01*
X0000287720Y0000113292D01*
X0000291469Y0000113292D01*
X0000297094Y0000111417D01*
X0000298968Y0000109542D01*
X0000315841Y0000073921D02*
X0000315841Y0000113292D01*
X0000325215Y0000113292D01*
X0000330839Y0000111417D01*
X0000334589Y0000107667D01*
X0000336464Y0000103918D01*
X0000338338Y0000096419D01*
X0000338338Y0000090794D01*
X0000336464Y0000083295D01*
X0000334589Y0000079546D01*
X0000330839Y0000075796D01*
X0000325215Y0000073921D01*
X0000315841Y0000073921D01*
X0000351462Y0000113292D02*
X0000375834Y0000113292D01*
X0000362710Y0000098293D01*
X0000368335Y0000098293D01*
X0000372084Y0000096419D01*
X0000373959Y0000094544D01*
X0000375834Y0000090794D01*
X0000375834Y0000081421D01*
X0000373959Y0000077671D01*
X0000372084Y0000075796D01*
X0000368335Y0000073921D01*
X0000357086Y0000073921D01*
X0000353337Y0000075796D01*
X0000351462Y0000077671D01*
X0000422703Y0000073921D02*
X0000422703Y0000113292D01*
X0000437701Y0000113292D01*
X0000441451Y0000111417D01*
X0000443325Y0000109542D01*
X0000445200Y0000105792D01*
X0000445200Y0000100168D01*
X0000443325Y0000096419D01*
X0000441451Y0000094544D01*
X0000437701Y0000092669D01*
X0000422703Y0000092669D01*
X0000462073Y0000073921D02*
X0000462073Y0000100168D01*
X0000462073Y0000113292D02*
X0000460198Y0000111417D01*
X0000462073Y0000109542D01*
X0000463948Y0000111417D01*
X0000462073Y0000113292D01*
X0000462073Y0000109542D01*
X0000480821Y0000100168D02*
X0000480821Y0000073921D01*
X0000480821Y0000096419D02*
X0000482695Y0000098293D01*
X0000486445Y0000100168D01*
X0000492069Y0000100168D01*
X0000495819Y0000098293D01*
X0000497694Y0000094544D01*
X0000497694Y0000073921D01*
X0000546437Y0000073921D02*
X0000546437Y0000113292D01*
X0000546437Y0000094544D02*
X0000568935Y0000094544D01*
X0000568935Y0000073921D02*
X0000568935Y0000113292D01*
X0000602680Y0000075796D02*
X0000598931Y0000073921D01*
X0000591432Y0000073921D01*
X0000587682Y0000075796D01*
X0000585807Y0000079546D01*
X0000585807Y0000094544D01*
X0000587682Y0000098293D01*
X0000591432Y0000100168D01*
X0000598931Y0000100168D01*
X0000602680Y0000098293D01*
X0000604555Y0000094544D01*
X0000604555Y0000090794D01*
X0000585807Y0000087045D01*
X0000638301Y0000073921D02*
X0000638301Y0000094544D01*
X0000636426Y0000098293D01*
X0000632677Y0000100168D01*
X0000625178Y0000100168D01*
X0000621428Y0000098293D01*
X0000638301Y0000075796D02*
X0000634551Y0000073921D01*
X0000625178Y0000073921D01*
X0000621428Y0000075796D01*
X0000619553Y0000079546D01*
X0000619553Y0000083295D01*
X0000621428Y0000087045D01*
X0000625178Y0000088920D01*
X0000634551Y0000088920D01*
X0000638301Y0000090794D01*
X0000673922Y0000073921D02*
X0000673922Y0000113292D01*
X0000673922Y0000075796D02*
X0000670172Y0000073921D01*
X0000662673Y0000073921D01*
X0000658923Y0000075796D01*
X0000657049Y0000077671D01*
X0000655174Y0000081421D01*
X0000655174Y0000092669D01*
X0000657049Y0000096419D01*
X0000658923Y0000098293D01*
X0000662673Y0000100168D01*
X0000670172Y0000100168D01*
X0000673922Y0000098293D01*
X0000707667Y0000075796D02*
X0000703918Y0000073921D01*
X0000696419Y0000073921D01*
X0000692669Y0000075796D01*
X0000690794Y0000079546D01*
X0000690794Y0000094544D01*
X0000692669Y0000098293D01*
X0000696419Y0000100168D01*
X0000703918Y0000100168D01*
X0000707667Y0000098293D01*
X0000709542Y0000094544D01*
X0000709542Y0000090794D01*
X0000690794Y0000087045D01*
X0000726415Y0000073921D02*
X0000726415Y0000100168D01*
X0000726415Y0000092669D02*
X0000728290Y0000096419D01*
X0000730164Y0000098293D01*
X0000733914Y0000100168D01*
X0000737664Y0000100168D01*
D13*
X0000128055Y0000628381D02*
X0000128055Y0000128381D01*
X0000128055Y0000128381D02*
X0000778055Y0000128381D01*
X0000778055Y0000128381D02*
X0000778055Y0000628381D01*
X0000778055Y0000628381D02*
X0000128055Y0000628381D01*
X0000602467Y0000480940D02*
G75*
G03X0000602467Y0000480940I-0000006302D01*
G01*
G04 next file*
%LPD*%
G04 Gerber Fmt 4.6, Leading zero omitted, Abs format (unit mm)*
G04 Created by KiCad (PCBNEW 4.0.7) date 10/04/17 14:57:39*
G01*
G04 APERTURE LIST*
G04 APERTURE END LIST*
D24*
D25*
X0001091975Y0000704368D02*
X0001072290Y0000704368D01*
X0001086351Y0000710929D01*
X0001072290Y0000717491D01*
X0001091975Y0000717491D01*
X0001090101Y0000738114D02*
X0001091038Y0000737176D01*
X0001091975Y0000734364D01*
X0001091975Y0000732489D01*
X0001091038Y0000729677D01*
X0001089163Y0000727802D01*
X0001087289Y0000726865D01*
X0001083539Y0000725928D01*
X0001080727Y0000725928D01*
X0001076977Y0000726865D01*
X0001075103Y0000727802D01*
X0001073228Y0000729677D01*
X0001072290Y0000732489D01*
X0001072290Y0000734364D01*
X0001073228Y0000737176D01*
X0001074165Y0000738114D01*
X0001091975Y0000755924D02*
X0001091975Y0000746550D01*
X0001072290Y0000746550D01*
X0001091975Y0000773734D02*
X0001082602Y0000767172D01*
X0001091975Y0000762485D02*
X0001072290Y0000762485D01*
X0001072290Y0000769985D01*
X0001073228Y0000771859D01*
X0001074165Y0000772797D01*
X0001076040Y0000773734D01*
X0001078852Y0000773734D01*
X0001080727Y0000772797D01*
X0001081664Y0000771859D01*
X0001082602Y0000769985D01*
X0001082602Y0000762485D01*
X0001171897Y0000724147D02*
X0001191582Y0000730708D01*
X0001171897Y0000737270D01*
X0001191582Y0000743832D02*
X0001171897Y0000743832D01*
X0001171897Y0000748518D01*
X0001172834Y0000751331D01*
X0001174709Y0000753205D01*
X0001176584Y0000754143D01*
X0001180333Y0000755080D01*
X0001183145Y0000755080D01*
X0001186895Y0000754143D01*
X0001188770Y0000753205D01*
X0001190644Y0000751331D01*
X0001191582Y0000748518D01*
X0001191582Y0000743832D01*
X0001191582Y0000763517D02*
X0001171897Y0000763517D01*
X0001171897Y0000768203D01*
X0001172834Y0000771016D01*
X0001174709Y0000772890D01*
X0001176584Y0000773828D01*
X0001180333Y0000774765D01*
X0001183145Y0000774765D01*
X0001186895Y0000773828D01*
X0001188770Y0000772890D01*
X0001190644Y0000771016D01*
X0001191582Y0000768203D01*
X0001191582Y0000763517D01*
X0001273228Y0000731852D02*
X0001272290Y0000729977D01*
X0001272290Y0000727165D01*
X0001273228Y0000724353D01*
X0001275103Y0000722478D01*
X0001276977Y0000721541D01*
X0001280727Y0000720603D01*
X0001283539Y0000720603D01*
X0001287289Y0000721541D01*
X0001289163Y0000722478D01*
X0001291038Y0000724353D01*
X0001291975Y0000727165D01*
X0001291975Y0000729040D01*
X0001291038Y0000731852D01*
X0001290101Y0000732789D01*
X0001283539Y0000732789D01*
X0001283539Y0000729040D01*
X0001291975Y0000741226D02*
X0001272290Y0000741226D01*
X0001291975Y0000752474D01*
X0001272290Y0000752474D01*
X0001291975Y0000761848D02*
X0001272290Y0000761848D01*
X0001272290Y0000766535D01*
X0001273228Y0000769347D01*
X0001275103Y0000771222D01*
X0001276977Y0000772159D01*
X0001280727Y0000773097D01*
X0001283539Y0000773097D01*
X0001287289Y0000772159D01*
X0001289163Y0000771222D01*
X0001291038Y0000769347D01*
X0001291975Y0000766535D01*
X0001291975Y0000761848D01*
X0001392763Y0000722009D02*
X0001373078Y0000722009D01*
X0001373078Y0000729508D01*
X0001374015Y0000731383D01*
X0001374953Y0000732320D01*
X0001376827Y0000733258D01*
X0001379640Y0000733258D01*
X0001381514Y0000732320D01*
X0001382452Y0000731383D01*
X0001383389Y0000729508D01*
X0001383389Y0000722009D01*
X0001374015Y0000752005D02*
X0001373078Y0000750131D01*
X0001373078Y0000747319D01*
X0001374015Y0000744506D01*
X0001375890Y0000742632D01*
X0001377765Y0000741694D01*
X0001381514Y0000740757D01*
X0001384326Y0000740757D01*
X0001388076Y0000741694D01*
X0001389951Y0000742632D01*
X0001391826Y0000744506D01*
X0001392763Y0000747319D01*
X0001392763Y0000749193D01*
X0001391826Y0000752005D01*
X0001390888Y0000752943D01*
X0001384326Y0000752943D01*
X0001384326Y0000749193D01*
X0001392763Y0000761379D02*
X0001373078Y0000761379D01*
X0001373078Y0000766066D01*
X0001374015Y0000768878D01*
X0001375890Y0000770753D01*
X0001377765Y0000771691D01*
X0001381514Y0000772628D01*
X0001384326Y0000772628D01*
X0001388076Y0000771691D01*
X0001389951Y0000770753D01*
X0001391826Y0000768878D01*
X0001392763Y0000766066D01*
X0001392763Y0000761379D01*
X0001495912Y0000718466D02*
X0001476227Y0000718466D01*
X0001476227Y0000725965D01*
X0001477165Y0000727840D01*
X0001478102Y0000728777D01*
X0001479977Y0000729715D01*
X0001482789Y0000729715D01*
X0001484664Y0000728777D01*
X0001485601Y0000727840D01*
X0001486539Y0000725965D01*
X0001486539Y0000718466D01*
X0001477165Y0000748462D02*
X0001476227Y0000746587D01*
X0001476227Y0000743775D01*
X0001477165Y0000740963D01*
X0001479040Y0000739088D01*
X0001480914Y0000738151D01*
X0001484664Y0000737214D01*
X0001487476Y0000737214D01*
X0001491226Y0000738151D01*
X0001493100Y0000739088D01*
X0001494975Y0000740963D01*
X0001495912Y0000743775D01*
X0001495912Y0000745650D01*
X0001494975Y0000748462D01*
X0001494038Y0000749400D01*
X0001487476Y0000749400D01*
X0001487476Y0000745650D01*
X0001494038Y0000769085D02*
X0001494975Y0000768147D01*
X0001495912Y0000765335D01*
X0001495912Y0000763460D01*
X0001494975Y0000760648D01*
X0001493100Y0000758773D01*
X0001491226Y0000757836D01*
X0001487476Y0000756899D01*
X0001484664Y0000756899D01*
X0001480914Y0000757836D01*
X0001479040Y0000758773D01*
X0001477165Y0000760648D01*
X0001476227Y0000763460D01*
X0001476227Y0000765335D01*
X0001477165Y0000768147D01*
X0001478102Y0000769085D01*
X0001590401Y0000717060D02*
X0001570716Y0000717060D01*
X0001570716Y0000724559D01*
X0001571653Y0000726434D01*
X0001572590Y0000727371D01*
X0001574465Y0000728308D01*
X0001577277Y0000728308D01*
X0001579152Y0000727371D01*
X0001580090Y0000726434D01*
X0001581027Y0000724559D01*
X0001581027Y0000717060D01*
X0001571653Y0000747056D02*
X0001570716Y0000745181D01*
X0001570716Y0000742369D01*
X0001571653Y0000739557D01*
X0001573528Y0000737682D01*
X0001575403Y0000736745D01*
X0001579152Y0000735808D01*
X0001581964Y0000735808D01*
X0001585714Y0000736745D01*
X0001587589Y0000737682D01*
X0001589463Y0000739557D01*
X0001590401Y0000742369D01*
X0001590401Y0000744244D01*
X0001589463Y0000747056D01*
X0001588526Y0000747994D01*
X0001581964Y0000747994D01*
X0001581964Y0000744244D01*
X0001590401Y0000756430D02*
X0001570716Y0000756430D01*
X0001584776Y0000762992D01*
X0001570716Y0000769553D01*
X0001590401Y0000769553D01*
D26*
X0001123865Y0000073921D02*
X0001123865Y0000113292D01*
X0001165110Y0000077671D02*
X0001163235Y0000075796D01*
X0001157611Y0000073921D01*
X0001153862Y0000073921D01*
X0001148237Y0000075796D01*
X0001144488Y0000079546D01*
X0001142613Y0000083295D01*
X0001140738Y0000090794D01*
X0001140738Y0000096419D01*
X0001142613Y0000103918D01*
X0001144488Y0000107667D01*
X0001148237Y0000111417D01*
X0001153862Y0000113292D01*
X0001157611Y0000113292D01*
X0001163235Y0000111417D01*
X0001165110Y0000109542D01*
X0001181983Y0000073921D02*
X0001181983Y0000113292D01*
X0001191357Y0000113292D01*
X0001196981Y0000111417D01*
X0001200731Y0000107667D01*
X0001202605Y0000103918D01*
X0001204480Y0000096419D01*
X0001204480Y0000090794D01*
X0001202605Y0000083295D01*
X0001200731Y0000079546D01*
X0001196981Y0000075796D01*
X0001191357Y0000073921D01*
X0001181983Y0000073921D01*
X0001217604Y0000113292D02*
X0001241975Y0000113292D01*
X0001228852Y0000098293D01*
X0001234476Y0000098293D01*
X0001238226Y0000096419D01*
X0001240101Y0000094544D01*
X0001241975Y0000090794D01*
X0001241975Y0000081421D01*
X0001240101Y0000077671D01*
X0001238226Y0000075796D01*
X0001234476Y0000073921D01*
X0001223228Y0000073921D01*
X0001219478Y0000075796D01*
X0001217604Y0000077671D01*
X0001288845Y0000073921D02*
X0001288845Y0000113292D01*
X0001303843Y0000113292D01*
X0001307592Y0000111417D01*
X0001309467Y0000109542D01*
X0001311342Y0000105792D01*
X0001311342Y0000100168D01*
X0001309467Y0000096419D01*
X0001307592Y0000094544D01*
X0001303843Y0000092669D01*
X0001288845Y0000092669D01*
X0001328215Y0000073921D02*
X0001328215Y0000100168D01*
X0001328215Y0000113292D02*
X0001326340Y0000111417D01*
X0001328215Y0000109542D01*
X0001330089Y0000111417D01*
X0001328215Y0000113292D01*
X0001328215Y0000109542D01*
X0001346962Y0000100168D02*
X0001346962Y0000073921D01*
X0001346962Y0000096419D02*
X0001348837Y0000098293D01*
X0001352587Y0000100168D01*
X0001358211Y0000100168D01*
X0001361960Y0000098293D01*
X0001363835Y0000094544D01*
X0001363835Y0000073921D01*
X0001412579Y0000073921D02*
X0001412579Y0000113292D01*
X0001412579Y0000094544D02*
X0001435076Y0000094544D01*
X0001435076Y0000073921D02*
X0001435076Y0000113292D01*
X0001468822Y0000075796D02*
X0001465073Y0000073921D01*
X0001457574Y0000073921D01*
X0001453824Y0000075796D01*
X0001451949Y0000079546D01*
X0001451949Y0000094544D01*
X0001453824Y0000098293D01*
X0001457574Y0000100168D01*
X0001465073Y0000100168D01*
X0001468822Y0000098293D01*
X0001470697Y0000094544D01*
X0001470697Y0000090794D01*
X0001451949Y0000087045D01*
X0001504443Y0000073921D02*
X0001504443Y0000094544D01*
X0001502568Y0000098293D01*
X0001498818Y0000100168D01*
X0001491319Y0000100168D01*
X0001487570Y0000098293D01*
X0001504443Y0000075796D02*
X0001500693Y0000073921D01*
X0001491319Y0000073921D01*
X0001487570Y0000075796D01*
X0001485695Y0000079546D01*
X0001485695Y0000083295D01*
X0001487570Y0000087045D01*
X0001491319Y0000088920D01*
X0001500693Y0000088920D01*
X0001504443Y0000090794D01*
X0001540063Y0000073921D02*
X0001540063Y0000113292D01*
X0001540063Y0000075796D02*
X0001536314Y0000073921D01*
X0001528815Y0000073921D01*
X0001525065Y0000075796D01*
X0001523190Y0000077671D01*
X0001521316Y0000081421D01*
X0001521316Y0000092669D01*
X0001523190Y0000096419D01*
X0001525065Y0000098293D01*
X0001528815Y0000100168D01*
X0001536314Y0000100168D01*
X0001540063Y0000098293D01*
X0001573809Y0000075796D02*
X0001570060Y0000073921D01*
X0001562560Y0000073921D01*
X0001558811Y0000075796D01*
X0001556936Y0000079546D01*
X0001556936Y0000094544D01*
X0001558811Y0000098293D01*
X0001562560Y0000100168D01*
X0001570060Y0000100168D01*
X0001573809Y0000098293D01*
X0001575684Y0000094544D01*
X0001575684Y0000090794D01*
X0001556936Y0000087045D01*
X0001592557Y0000073921D02*
X0001592557Y0000100168D01*
X0001592557Y0000092669D02*
X0001594431Y0000096419D01*
X0001596306Y0000098293D01*
X0001600056Y0000100168D01*
X0001603805Y0000100168D01*
D27*
X0000994196Y0000628381D02*
X0000994196Y0000128381D01*
X0000994196Y0000128381D02*
X0001644196Y0000128381D01*
X0001644196Y0000128381D02*
X0001644196Y0000628381D01*
X0001644196Y0000628381D02*
X0000994196Y0000628381D01*
X0001468609Y0000480940D02*
G75*
G03X0001468609Y0000480940I-0000006302D01*
G01*
M02*